<svg width="60" height="60" viewBox="0 0 60 60" fill="none" xmlns="http://www.w3.org/2000/svg">
<g filter="url(#filter0_b)">
<rect width="60" height="60" fill="white" fill-opacity="0.15"/>
<path d="M44.1299 16.3328C44.2601 16.463 44.4308 16.5282 44.6013 16.5282C44.7718 16.5282 44.9424 16.463 45.0726 16.3328L45.5439 15.8615L46.0153 16.3328C46.1454 16.463 46.3161 16.5282 46.4866 16.5282C46.6571 16.5282 46.8278 16.463 46.9579 16.3328C47.2183 16.0725 47.2183 15.6505 46.9579 15.3902L46.4866 14.9188L46.9579 14.4475C47.2183 14.1872 47.2183 13.7652 46.9579 13.5048C46.6976 13.2445 46.2756 13.2445 46.0153 13.5048L45.5439 13.9762L45.0726 13.5048C44.8123 13.2445 44.3903 13.2445 44.1299 13.5048C43.8696 13.7652 43.8696 14.1872 44.1299 14.4475L44.6013 14.9188L44.1299 15.3902C43.8696 15.6505 43.8696 16.0723 44.1299 16.3328Z" fill="#D2A64F"/>
<path d="M17.5714 19.278C18.0974 19.1185 18.5298 18.7643 18.7889 18.28C19.0474 17.7956 19.1028 17.239 18.9433 16.7136C18.7838 16.1883 18.4296 15.756 17.9453 15.4968C17.4603 15.237 16.9043 15.1816 16.3789 15.3418C15.8536 15.5013 15.4213 15.8555 15.1621 16.3398C14.9029 16.8241 14.8476 17.3808 15.0071 17.9061C15.1666 18.4321 15.5208 18.8645 16.0051 19.1236C16.3078 19.2851 16.6386 19.3671 16.9726 19.3671C17.1723 19.3671 17.3741 19.3378 17.5714 19.278ZM16.6339 17.9478C16.4639 17.8566 16.3389 17.7043 16.2831 17.5195C16.2273 17.3346 16.2466 17.1393 16.3378 16.9686C16.4289 16.7986 16.5806 16.6736 16.7654 16.6178C16.8344 16.597 16.9054 16.5865 16.9758 16.5865C17.0929 16.5865 17.2094 16.6151 17.3163 16.6725C17.4863 16.7636 17.6113 16.9153 17.6671 17.1001C17.7229 17.285 17.7036 17.4803 17.6131 17.651C17.5219 17.821 17.3696 17.946 17.1848 18.0018C17.0004 18.0573 16.8058 18.0383 16.6339 17.9478Z" fill="#D2A64F"/>
<path d="M13.2106 39.3407C13.6275 39.3407 13.9655 39.0028 13.9655 38.5859C13.9655 38.169 13.6275 37.8311 13.2106 37.8311C12.7938 37.8311 12.4558 38.169 12.4558 38.5859C12.4558 39.0028 12.7938 39.3407 13.2106 39.3407Z" fill="#D2A64F"/>
<path d="M33.2109 26.5853C33.5791 26.5853 33.8775 26.2868 33.8775 25.9186C33.8775 25.5504 33.5791 25.252 33.2109 25.252C32.8427 25.252 32.5442 25.5504 32.5442 25.9186C32.5442 26.2868 32.8427 26.5853 33.2109 26.5853Z" fill="#D2A64F"/>
<path d="M26.5441 26.5853C26.9123 26.5853 27.2108 26.2868 27.2108 25.9186C27.2108 25.5504 26.9123 25.252 26.5441 25.252C26.1759 25.252 25.8774 25.5504 25.8774 25.9186C25.8774 26.2868 26.1759 26.5853 26.5441 26.5853Z" fill="#D2A64F"/>
<path d="M46.8773 34.252H44.2107C43.8422 34.252 43.544 34.5501 43.544 34.9186C43.544 35.2871 43.8422 35.5853 44.2107 35.5853H46.2107V37.5853C46.2107 37.9538 46.5088 38.252 46.8773 38.252C47.2458 38.252 47.544 37.9538 47.544 37.5853V34.9186C47.544 34.5503 47.2458 34.252 46.8773 34.252Z" fill="#D2A64F"/>
<path d="M46.8773 40.9189C46.5088 40.9189 46.2107 41.2171 46.2107 41.5856V43.5856H44.2107C43.8422 43.5856 43.544 43.8838 43.544 44.2523C43.544 44.6208 43.8422 44.919 44.2107 44.919H46.8773C47.2458 44.919 47.544 44.6208 47.544 44.2523V41.5856C47.544 41.2173 47.2458 40.9189 46.8773 40.9189Z" fill="#D2A64F"/>
<path d="M38.8773 43.5856H36.8773V41.5856C36.8773 41.2171 36.5792 40.9189 36.2107 40.9189C35.8422 40.9189 35.544 41.2171 35.544 41.5856V44.2523C35.544 44.6208 35.8422 44.919 36.2107 44.919H38.8773C39.2458 44.919 39.544 44.6208 39.544 44.2523C39.544 43.8838 39.2458 43.5856 38.8773 43.5856Z" fill="#D2A64F"/>
<path d="M44.8771 39.5856C44.8771 37.7477 43.3816 36.2522 41.5438 36.2522C40.687 36.2522 39.9126 36.5862 39.3215 37.1194C38.9636 36.8632 38.589 36.6316 38.1903 36.4501L36.8771 35.8531V35.5856H38.8771C39.2456 35.5856 39.5438 35.2874 39.5438 34.9189C39.5438 34.5504 39.2456 34.2522 38.8771 34.2522H36.2105C35.842 34.2522 35.5438 34.5504 35.5438 34.9189V35.2471L32.8641 34.0289C32.8666 33.8552 32.869 33.6622 32.871 33.4816C35.4238 32.2629 37.3646 29.9904 38.152 27.2509C38.598 27.2691 39.0035 27.1434 39.4065 26.8922C40.025 26.5062 40.4436 25.8786 40.5256 25.2119C40.6083 24.5439 40.4013 23.8741 39.9593 23.3734C39.6625 23.0381 39.2783 22.7986 38.8558 22.6767C38.8585 22.3649 38.8661 21.9514 38.8773 21.5849C38.8773 21.5784 38.8773 21.5719 38.8773 21.5654V17.5856C38.8773 15.5282 37.7178 13.7276 35.6116 12.5152C32.3733 10.6506 27.5973 10.5992 24.5003 12.3974C22.8571 13.3512 20.9006 15.2386 20.9136 18.8114L20.9221 19.8811C20.9286 20.4886 20.9345 21.0699 20.928 21.5367C20.9306 21.9176 20.928 22.3506 20.9208 22.6689C20.523 22.7782 20.1605 22.9924 19.8648 23.2984C19.4215 23.7587 19.1896 24.3642 19.2125 25.0034C19.2371 25.7169 19.6421 26.4057 20.2945 26.8459C20.7066 27.1239 21.1186 27.2527 21.5691 27.2527C22.2665 29.8002 23.9575 31.9381 26.2136 33.2361C26.2175 33.5902 26.2206 33.8476 26.2228 34.0294L20.8973 36.4499C18.4553 37.5599 16.8771 40.0404 16.8771 42.7682V48.2519C16.8771 48.6204 17.1753 48.9186 17.5438 48.9186H41.5438C41.9123 48.9186 42.2105 48.6204 42.2105 48.2519V42.8512C43.73 42.5419 44.8771 41.1952 44.8771 39.5856ZM41.5438 37.5856C42.6466 37.5856 43.5438 38.4827 43.5438 39.5856C43.5438 40.6884 42.6466 41.5856 41.5438 41.5856C40.441 41.5856 39.5438 40.6884 39.5438 39.5856C39.5438 38.4827 40.441 37.5856 41.5438 37.5856ZM25.1695 13.5506C27.8843 11.9737 32.0881 12.0239 34.9461 13.6711C36.131 14.3534 37.5438 15.5857 37.5438 17.5857V21.2217C35.5386 22.6909 33.2753 23.2514 31.1336 22.7824C29.2443 22.3677 27.6773 21.1926 26.8355 19.5577C26.7378 19.3682 26.5555 19.2367 26.3453 19.2042C26.1356 19.1717 25.9208 19.2421 25.7705 19.3924C24.9126 20.2542 23.6555 20.7672 22.2635 20.8552C22.2623 20.5452 22.2591 20.2121 22.2555 19.8676L22.247 18.8064C22.2358 15.8707 23.8303 14.3279 25.1695 13.5506ZM22.7255 26.3577C22.6871 26.1709 22.5705 26.0094 22.4051 25.9137C22.303 25.8551 22.1876 25.8252 22.0725 25.8252C22.0008 25.8252 21.9293 25.8369 21.8596 25.8597C21.6018 25.9476 21.3635 25.9594 21.0406 25.7406C20.7451 25.5414 20.555 25.2406 20.5445 24.9561C20.5346 24.6814 20.6343 24.4216 20.8245 24.2242C21.0146 24.0276 21.2698 23.9189 21.5438 23.9189C21.7215 23.9189 21.8946 23.8466 22.0196 23.7204C22.2025 23.5369 22.259 23.4791 22.2626 22.1909C23.6935 22.1169 25.0323 21.6624 26.0743 20.8871C27.1543 22.4997 28.8543 23.6469 30.8478 24.0844C31.4448 24.2159 32.0483 24.2804 32.6525 24.2804C34.3098 24.2804 35.9713 23.7859 37.5185 22.8447C37.5213 23.4999 37.579 23.5601 37.73 23.7161C37.8556 23.8449 38.0301 23.9192 38.2105 23.9192C38.497 23.9192 38.7703 24.0422 38.9598 24.2571C39.1525 24.4746 39.2385 24.7557 39.2026 25.0494C39.1688 25.3202 38.9813 25.5859 38.7013 25.7611C38.4206 25.9362 38.1825 25.9636 37.8803 25.8567C37.7 25.7909 37.5008 25.8099 37.3341 25.9022C37.1668 25.9954 37.0476 26.1561 37.0066 26.3431C36.3575 29.3236 34.1545 31.7584 31.2566 32.6972L30.9623 32.7936C30.1335 33.0617 29.2865 33.0722 28.5143 32.8229C25.5665 31.8741 23.3485 29.3969 22.7255 26.3577ZM27.1733 35.0622C27.42 34.9502 27.5736 34.6911 27.5626 34.4202C27.5606 34.3689 27.5575 34.1397 27.5543 33.8752C27.7385 33.9471 27.9161 34.0311 28.1056 34.0921C28.6108 34.2549 29.1363 34.3356 29.6695 34.3356C30.2353 34.3356 30.8088 34.2444 31.374 34.0614L31.5315 34.0099C31.5291 34.2122 31.527 34.3731 31.5256 34.4077C31.5055 34.6857 31.661 34.9467 31.9143 35.0621L33.6048 35.8304L29.544 42.3277L25.483 35.8306L27.1733 35.0622ZM18.2105 42.7686C18.2105 40.5622 19.482 38.5582 21.4495 37.6637L24.2586 36.3869L28.8771 43.7766V47.5856H22.8771V44.9189C22.8771 44.5504 22.579 44.2522 22.2105 44.2522C21.842 44.2522 21.5438 44.5504 21.5438 44.9189V47.5856H18.2105V42.7686ZM30.2105 47.5856V43.7766L34.829 36.3869L35.5438 36.7117V37.5856C35.5438 37.9541 35.842 38.2522 36.2105 38.2522C36.579 38.2522 36.8771 37.9541 36.8771 37.5856V37.3179L37.6381 37.6637C37.9516 37.8061 38.2458 37.9879 38.5278 38.1881C38.3293 38.6146 38.2105 39.0849 38.2105 39.5856C38.2105 41.1952 39.3576 42.5417 40.8771 42.8516V47.5856H30.2105Z" fill="#D2A64F"/>
</g>
<defs>
<filter id="filter0_b" x="-4" y="-4" width="68" height="68" filterUnits="userSpaceOnUse" color-interpolation-filters="sRGB">
<feFlood flood-opacity="0" result="BackgroundImageFix"/>
<feGaussianBlur in="BackgroundImage" stdDeviation="2"/>
<feComposite in2="SourceAlpha" operator="in" result="effect1_backgroundBlur"/>
<feBlend mode="normal" in="SourceGraphic" in2="effect1_backgroundBlur" result="shape"/>
</filter>
</defs>
</svg>
