<svg width="60" height="60" viewBox="0 0 60 60" fill="none" xmlns="http://www.w3.org/2000/svg">
<g filter="url(#filter0_b)">
<rect width="60" height="60" fill="white" fill-opacity="0.15"/>
<path d="M44.8046 36.1328C44.5443 35.8724 44.1223 35.8724 43.862 36.1328L43.3333 36.6614L42.8047 36.1328C42.5443 35.8724 42.1223 35.8724 41.862 36.1328C41.6017 36.3931 41.6017 36.8151 41.862 37.0754L42.3907 37.6041L41.862 38.1328C41.6017 38.3931 41.6017 38.8151 41.862 39.0754C41.9922 39.2056 42.1628 39.2708 42.3333 39.2708C42.5038 39.2708 42.6745 39.2056 42.8047 39.0754L43.3333 38.5468L43.862 39.0754C43.9922 39.2056 44.1628 39.2708 44.3333 39.2708C44.5038 39.2708 44.6745 39.2056 44.8046 39.0754C45.065 38.8151 45.065 38.3931 44.8046 38.1328L44.276 37.6041L44.8046 37.0754C45.0651 36.8151 45.0651 36.3931 44.8046 36.1328Z" fill="#D2A64F"/>
<path d="M22.3334 15.9385C23.4363 15.9385 24.3334 15.0413 24.3334 13.9385C24.3334 12.8356 23.4363 11.9385 22.3334 11.9385C21.2306 11.9385 20.3334 12.8356 20.3334 13.9385C20.3334 15.0413 21.2306 15.9385 22.3334 15.9385ZM22.3334 13.2718C22.7013 13.2718 23.0001 13.571 23.0001 13.9385C23.0001 14.306 22.7013 14.6051 22.3334 14.6051C21.9656 14.6051 21.6668 14.306 21.6668 13.9385C21.6668 13.571 21.9656 13.2718 22.3334 13.2718Z" fill="#D2A64F"/>
<path d="M37.0001 16.6058C37.3683 16.6058 37.6668 16.3073 37.6668 15.9391C37.6668 15.5709 37.3683 15.2725 37.0001 15.2725C36.6319 15.2725 36.3334 15.5709 36.3334 15.9391C36.3334 16.3073 36.6319 16.6058 37.0001 16.6058Z" fill="#D2A64F"/>
<path d="M47 19.9395H45V19.2728C45 18.9046 44.7019 18.6061 44.3334 18.6061H39.6667C39.2982 18.6061 39 18.9046 39 19.2728V22.6061H37.9387L37.9584 21.7311C37.9584 20.6741 37.0984 19.8145 36.0417 19.8145C35.6517 19.8145 35.289 19.9313 34.9857 20.1321C34.5885 19.6341 33.9765 19.3145 33.2917 19.3145C32.9187 19.3145 32.567 19.4091 32.2605 19.5761C31.9169 18.832 31.1635 18.3145 30.2917 18.3145C29.5717 18.3145 28.9324 18.6676 28.5385 19.21C28.1857 18.961 27.7554 18.8145 27.2917 18.8145C26.097 18.8145 25.125 19.7865 25.125 20.9811V21.582L23.685 22.6061H21V19.2728C21 18.9046 20.7019 18.6061 20.3334 18.6061H15.6667C15.2982 18.6061 15 18.9046 15 19.2728V19.9395H13C12.6315 19.9395 12.3334 20.238 12.3334 20.6061V29.9395C12.3334 30.3076 12.6315 30.6061 13 30.6061H15V31.2728C15 31.641 15.2982 31.9395 15.6667 31.9395H20.3334C20.7019 31.9395 21 31.641 21 31.2728V27.9395H21.628C21.6277 27.9525 21.625 27.9688 21.625 27.9811C21.625 28.9801 22.1882 30.1728 22.4694 30.4508L26.4792 34.6256L27.125 37.9641V47.1478C27.125 47.5159 27.4232 47.8144 27.7917 47.8144C28.1602 47.8144 28.4584 47.5159 28.4584 47.1478V37.9005C28.4584 37.8578 28.4545 37.8154 28.446 37.7738L27.7507 34.1795C27.7265 34.0535 27.666 33.9369 27.5775 33.8441L23.4487 29.5473C23.3224 29.38 22.9585 28.5815 22.9585 27.9813C22.9585 27.4625 23.7619 25.3891 24.5634 23.6183L25.1252 23.2188V25.9813C25.1252 26.3495 25.4234 26.648 25.7919 26.648C26.1604 26.648 26.4585 26.3495 26.4585 25.9813V20.9813C26.4585 20.5216 26.8322 20.148 27.2919 20.148C27.7515 20.148 28.1252 20.5216 28.1252 20.9813V22.648C28.1252 23.0161 28.4234 23.3146 28.7919 23.3146C29.1604 23.3146 29.4585 23.0161 29.4585 22.648V20.4813C29.4585 20.0216 29.8322 19.648 30.2919 19.648C30.7515 19.648 31.1252 20.0216 31.1252 20.4813V22.4813C31.1252 22.8495 31.4234 23.148 31.7919 23.148C32.1604 23.148 32.4585 22.8495 32.4585 22.4813V21.4813C32.4585 21.0216 32.8322 20.648 33.2919 20.648C33.7515 20.648 34.1252 21.0216 34.1252 21.4813V22.9813C34.1252 23.3495 34.4234 23.648 34.7919 23.648C35.1604 23.648 35.4585 23.3495 35.4585 22.9813C35.4585 22.9813 35.4585 21.7756 35.4585 21.7313C35.4585 21.4096 35.7202 21.148 36.0419 21.148C36.3635 21.148 36.6252 21.4096 36.6252 21.7163L36.4299 30.438C36.4299 31.1313 36.383 31.829 36.2874 32.5408L35.7919 38.0646V47.3979C35.7919 47.7661 36.09 48.0646 36.4585 48.0646C36.827 48.0646 37.1252 47.7661 37.1252 47.3979L37.1225 38.1245L37.6122 32.6903C37.7125 31.9488 37.7632 31.191 37.7632 30.453L37.8195 27.9396H39V31.273C39 31.6411 39.2982 31.9396 39.6667 31.9396H44.3334C44.7019 31.9396 45 31.6411 45 31.273V30.6063H47C47.3685 30.6063 47.6667 30.3078 47.6667 29.9396V20.6063C47.6667 20.238 47.3685 19.9395 47 19.9395ZM13.6667 29.2728V21.2728H15V29.2728H13.6667ZM19.6667 30.6061H16.3334V19.9395H19.6667V30.6061ZM21.9325 26.6061H21V23.9395H22.9649C22.6325 24.7115 22.2135 25.737 21.9325 26.6061ZM37.8492 26.6061L37.9089 23.9395H39V26.6061H37.8492ZM43.6667 30.6061H40.3334V19.9395H43.6667V30.6061ZM46.3334 29.2728H45V21.2728H46.3334V29.2728Z" fill="#D2A64F"/>
</g>
<defs>
<filter id="filter0_b" x="-4" y="-4" width="68" height="68" filterUnits="userSpaceOnUse" color-interpolation-filters="sRGB">
<feFlood flood-opacity="0" result="BackgroundImageFix"/>
<feGaussianBlur in="BackgroundImage" stdDeviation="2"/>
<feComposite in2="SourceAlpha" operator="in" result="effect1_backgroundBlur"/>
<feBlend mode="normal" in="SourceGraphic" in2="effect1_backgroundBlur" result="shape"/>
</filter>
</defs>
</svg>
