<svg width="60" height="60" viewBox="0 0 60 60" fill="none" xmlns="http://www.w3.org/2000/svg">
<g filter="url(#filter0_b)">
<rect width="60" height="60" fill="white" fill-opacity="0.15"/>
<path d="M46.3334 29.6654C46.7016 29.6654 47.0001 29.3669 47.0001 28.9987C47.0001 28.6305 46.7016 28.332 46.3334 28.332C45.9652 28.332 45.6667 28.6305 45.6667 28.9987C45.6667 29.3669 45.9652 29.6654 46.3334 29.6654Z" fill="#D2A64F"/>
<path d="M39.4715 32.5283C39.2112 32.2679 38.7892 32.2679 38.5289 32.5283L38.0002 33.0569L37.4715 32.5283C37.2112 32.2679 36.7892 32.2679 36.5289 32.5283C36.2685 32.7886 36.2685 33.2106 36.5289 33.4709L37.0575 33.9996L36.5289 34.5283C36.2685 34.7886 36.2685 35.2106 36.5289 35.4709C36.659 35.6011 36.8297 35.6663 37.0002 35.6663C37.1707 35.6663 37.3414 35.6011 37.4715 35.4709L38.0002 34.9423L38.5289 35.4709C38.659 35.6011 38.8297 35.6663 39.0002 35.6663C39.1707 35.6663 39.3414 35.6011 39.4715 35.4709C39.7318 35.2106 39.7318 34.7886 39.4715 34.5283L38.9429 33.9996L39.4715 33.4709C39.732 33.2106 39.732 32.7886 39.4715 32.5283Z" fill="#D2A64F"/>
<path d="M15.3334 34.3311C14.0469 34.3311 13.0001 35.3779 13.0001 36.6644C13.0001 37.9509 14.0469 38.9977 15.3334 38.9977C16.6199 38.9977 17.6667 37.9509 17.6667 36.6644C17.6667 35.3779 16.6199 34.3311 15.3334 34.3311ZM15.3334 37.6644C14.7819 37.6644 14.3334 37.2159 14.3334 36.6644C14.3334 36.1129 14.7819 35.6644 15.3334 35.6644C15.8849 35.6644 16.3334 36.1129 16.3334 36.6644C16.3334 37.2159 15.8849 37.6644 15.3334 37.6644Z" fill="#D2A64F"/>
<path d="M28.3333 30.332C27.9648 30.332 27.6666 30.6302 27.6666 30.9987V32.9987C27.6666 33.3672 27.9648 33.6654 28.3333 33.6654C28.7018 33.6654 29 33.3672 29 32.9987V30.9987C29 30.6302 28.7018 30.332 28.3333 30.332Z" fill="#D2A64F"/>
<path d="M37.3334 11.665C35.3119 11.665 33.6667 13.3102 33.6667 15.3317C33.6667 17.2407 35.1344 18.8122 37.0001 18.9814V22.4592L31.8926 22.9984H31.6667V17.665V16.5472C31.6667 15.3259 30.6726 14.3317 29.4512 14.3317H24.3334C23.9649 14.3317 23.6667 14.6299 23.6667 14.9984C23.6667 16.0844 24.1966 17.0415 25.0031 17.6504C25.0029 17.6555 25.0001 17.6599 25.0001 17.665V20.8727C25.0001 21.6779 25.2879 22.41 25.7507 22.9984H24.8366L19.7291 22.4594V18.976C21.5652 18.7779 23.0001 17.2194 23.0001 15.3317C23.0001 13.3102 21.3549 11.665 19.3334 11.665C17.3119 11.665 15.6667 13.3102 15.6667 15.3317C15.6667 16.0762 15.8912 16.7687 16.2741 17.3477L15.7292 24.9984C15.7292 25.5739 15.9779 26.1227 16.4109 26.5029C16.4826 26.566 16.5666 26.6129 16.6576 26.6402L21.7872 28.196L23.6459 35.012L21.6837 43.5154C21.6382 43.7134 21.6851 43.921 21.8121 44.0799C21.9384 44.2394 22.1304 44.3319 22.3336 44.3319V47.6652C22.3336 48.0337 22.6317 48.3319 23.0002 48.3319C23.3687 48.3319 23.6669 48.0337 23.6669 47.6652V44.3319H26.2134L25.6759 47.5559C25.6154 47.9185 25.8607 48.2622 26.2241 48.3229C26.2612 48.3294 26.2976 48.332 26.3341 48.332C26.6544 48.332 26.9369 48.1009 26.9909 47.7747L27.5676 44.315C27.8264 44.2745 28.0446 44.0929 28.1119 43.8332L28.3332 42.9817L28.5546 43.8332C28.6219 44.093 28.8402 44.2744 29.0991 44.315L29.6757 47.7747C29.7297 48.1009 30.0124 48.332 30.3326 48.332C30.3691 48.332 30.4056 48.3294 30.4426 48.3229C30.8059 48.2624 31.0512 47.9192 30.9907 47.5559L30.4536 44.3317H33.0001V47.665C33.0001 48.0335 33.2982 48.3317 33.6667 48.3317C34.0352 48.3317 34.3334 48.0335 34.3334 47.665V44.3317C34.5366 44.3317 34.7286 44.2392 34.8549 44.0797C34.9819 43.9209 35.0287 43.7132 34.9832 43.5152L33.0211 35.0119L34.8794 28.1969L40.0692 26.6407C40.1611 26.6134 40.2457 26.5665 40.3172 26.5034C40.7514 26.1232 41.0002 25.5744 40.9982 24.9507L40.4484 17.2562C40.7957 16.696 41.0001 16.038 41.0001 15.3317C41.0001 13.3102 39.3549 11.665 37.3334 11.665ZM35.0001 15.3317C35.0001 14.0452 36.0469 12.9984 37.3334 12.9984C38.6199 12.9984 39.6667 14.0452 39.6667 15.3317C39.6667 16.6182 38.6199 17.665 37.3334 17.665C36.0469 17.665 35.0001 16.6182 35.0001 15.3317ZM29.4512 15.665C29.9376 15.665 30.3334 16.0609 30.3334 16.5472V16.9984H27.0001C26.1309 16.9984 25.3894 16.441 25.1141 15.665H29.4512ZM26.3334 20.8727V18.3317H30.3334V22.9984H28.4591C27.2872 22.9984 26.3334 22.0445 26.3334 20.8727ZM19.3334 12.9984C20.6199 12.9984 21.6667 14.0452 21.6667 15.3317C21.6667 16.6182 20.6199 17.665 19.3334 17.665C18.0469 17.665 17.0001 16.6182 17.0001 15.3317C17.0001 14.0452 18.0469 12.9984 19.3334 12.9984ZM33.4956 42.9984H29.7156L28.9786 40.1637C28.9024 39.87 28.6367 39.665 28.3334 39.665C28.0301 39.665 27.7644 39.87 27.6882 40.1637L26.9512 42.9984H23.1712L24.8637 35.665H31.8029L33.4956 42.9984ZM31.8242 34.3317H24.8426L23.3689 28.9282L24.7019 29.5947C24.7944 29.6409 24.8966 29.665 25.0001 29.665H31.6667C31.7702 29.665 31.8724 29.6409 31.9649 29.5947L33.2979 28.928L31.8242 34.3317ZM39.5222 25.413L34.1421 27.0264C34.1049 27.0374 34.0697 27.0517 34.0352 27.0687L31.5092 28.3317H29.0001V26.9984C29.0001 26.6299 28.7019 26.3317 28.3334 26.3317C27.9649 26.3317 27.6667 26.6299 27.6667 26.9984V28.3317H25.1576L22.6316 27.0687C22.5977 27.0517 22.5626 27.038 22.5267 27.027L17.2071 25.4137C17.1139 25.2979 17.0619 25.1599 17.0606 25.0459L17.5267 18.5184C17.7969 18.6722 18.0886 18.7909 18.3959 18.8724V23.0597C18.3959 23.4009 18.6537 23.6867 18.9929 23.7225L24.7319 24.328C24.7547 24.3307 24.7781 24.3319 24.8016 24.3319H31.9279C31.9514 24.3319 31.9747 24.3305 31.9976 24.328L37.7366 23.7225C38.0757 23.6867 38.3336 23.4009 38.3336 23.0597V18.856C38.6409 18.7687 38.9311 18.6419 39.2001 18.4819L39.6667 24.9984C39.6667 25.15 39.6152 25.2959 39.5222 25.413Z" fill="#D2A64F"/>
</g>
<defs>
<filter id="filter0_b" x="-4" y="-4" width="68" height="68" filterUnits="userSpaceOnUse" color-interpolation-filters="sRGB">
<feFlood flood-opacity="0" result="BackgroundImageFix"/>
<feGaussianBlur in="BackgroundImage" stdDeviation="2"/>
<feComposite in2="SourceAlpha" operator="in" result="effect1_backgroundBlur"/>
<feBlend mode="normal" in="SourceGraphic" in2="effect1_backgroundBlur" result="shape"/>
</filter>
</defs>
</svg>
