<svg width="60" height="60" viewBox="0 0 60 60" fill="none" xmlns="http://www.w3.org/2000/svg">
<g filter="url(#filter0_b)">
<rect width="60" height="60" fill="white" fill-opacity="0.15"/>
<path fill-rule="evenodd" clip-rule="evenodd" d="M10 25C10 22.998 11.5738 21.375 13.5152 21.375H46.4848C48.4262 21.375 50 22.998 50 25V36C50 38.002 48.4262 39.625 46.4848 39.625H13.5152C11.5738 39.625 10 38.002 10 36V25ZM13.5152 22.625C12.2432 22.625 11.2121 23.6883 11.2121 25V36C11.2121 37.3117 12.2432 38.375 13.5152 38.375H46.4848C47.7568 38.375 48.7879 37.3117 48.7879 36V25C48.7879 23.6883 47.7568 22.625 46.4848 22.625H13.5152Z" fill="#D2A64F"/>
<path fill-rule="evenodd" clip-rule="evenodd" d="M14 35C14 32.998 15.623 31.375 17.625 31.375H41.625C43.627 31.375 45.25 32.998 45.25 35V39.625H14V35ZM17.625 32.625C16.3133 32.625 15.25 33.6883 15.25 35V38.375H44V35C44 33.6883 42.9367 32.625 41.625 32.625H17.625Z" fill="#D2A64F"/>
<path fill-rule="evenodd" clip-rule="evenodd" d="M33.625 28.375C33.625 28.0298 33.9048 27.75 34.25 27.75H36C36.3452 27.75 36.625 28.0298 36.625 28.375C36.625 28.7202 36.3452 29 36 29H34.25C33.9048 29 33.625 28.7202 33.625 28.375Z" fill="#D2A64F"/>
<path fill-rule="evenodd" clip-rule="evenodd" d="M37.625 28.375C37.625 28.0298 37.9048 27.75 38.25 27.75H46C46.3452 27.75 46.625 28.0298 46.625 28.375C46.625 28.7202 46.3452 29 46 29H38.25C37.9048 29 37.625 28.7202 37.625 28.375Z" fill="#D2A64F"/>
<path d="M16.8204 17.1389C16.9505 17.2691 17.1212 17.3342 17.2917 17.3342C17.4622 17.3342 17.6329 17.2691 17.763 17.1389L18.2917 16.6102L18.8204 17.1389C18.9505 17.2691 19.1212 17.3342 19.2917 17.3342C19.4622 17.3342 19.6329 17.2691 19.7631 17.1389C20.0234 16.8786 20.0234 16.4566 19.7631 16.1962L19.2344 15.6676L19.7631 15.1389C20.0234 14.8786 20.0234 14.4566 19.7631 14.1962C19.5027 13.9359 19.0807 13.9359 18.8204 14.1962L18.2917 14.7249L17.763 14.1962C17.5027 13.9359 17.0807 13.9359 16.8204 14.1962C16.56 14.4566 16.56 14.8786 16.8204 15.1389L17.349 15.6676L16.8204 16.1962C16.5599 16.4566 16.5599 16.8786 16.8204 17.1389Z" fill="#D2A64F"/>
<path d="M34.625 20C35.7278 20 36.625 19.1028 36.625 18C36.625 16.8972 35.7278 16 34.625 16C33.5222 16 32.625 16.8972 32.625 18C32.625 19.1028 33.5222 20 34.625 20ZM34.625 17.3333C34.9925 17.3333 35.2917 17.6325 35.2917 18C35.2917 18.3675 34.9925 18.6667 34.625 18.6667C34.2575 18.6667 33.9583 18.3675 33.9583 18C33.9583 17.6325 34.2575 17.3333 34.625 17.3333Z" fill="#D2A64F"/>
<path d="M14.625 30C15.7278 30 16.625 29.1028 16.625 28C16.625 26.8972 15.7278 26 14.625 26C13.5222 26 12.625 26.8972 12.625 28C12.625 29.1028 13.5222 30 14.625 30ZM14.625 27.3333C14.9925 27.3333 15.2917 27.6325 15.2917 28C15.2917 28.3675 14.9925 28.6667 14.625 28.6667C14.2575 28.6667 13.9583 28.3675 13.9583 28C13.9583 27.6325 14.2575 27.3333 14.625 27.3333Z" fill="#D2A64F"/>
<path d="M28.2917 13.3333C28.6599 13.3333 28.9583 13.0349 28.9583 12.6667C28.9583 12.2985 28.6599 12 28.2917 12C27.9235 12 27.625 12.2985 27.625 12.6667C27.625 13.0349 27.9235 13.3333 28.2917 13.3333Z" fill="#D2A64F"/>
<path fill-rule="evenodd" clip-rule="evenodd" d="M24.25 35C24.25 34.6548 23.9702 34.375 23.625 34.375C23.2798 34.375 23 34.6548 23 35V43.491L22.0671 42.5581C21.823 42.314 21.4273 42.314 21.1832 42.5581C20.9391 42.8021 20.9391 43.1979 21.1832 43.4419L23.6253 45.884L26.0674 43.4419C26.3114 43.1979 26.3114 42.8021 26.0674 42.5581C25.8233 42.314 25.4276 42.314 25.1835 42.5581L24.25 43.4915V35Z" fill="#D2A64F"/>
<path fill-rule="evenodd" clip-rule="evenodd" d="M37.25 35C37.25 34.6548 36.9702 34.375 36.625 34.375C36.2798 34.375 36 34.6548 36 35V43.491L35.0671 42.5581C34.823 42.314 34.4273 42.314 34.1832 42.5581C33.9391 42.8021 33.9391 43.1979 34.1832 43.4419L36.6253 45.884L39.0674 43.4419C39.3114 43.1979 39.3114 42.8021 39.0674 42.5581C38.8233 42.314 38.4276 42.314 38.1835 42.5581L37.25 43.4915V35Z" fill="#D2A64F"/>
<path fill-rule="evenodd" clip-rule="evenodd" d="M30.25 36C30.25 35.6548 29.9702 35.375 29.625 35.375C29.2798 35.375 29 35.6548 29 36V46.491L28.0671 45.5581C27.823 45.314 27.4273 45.314 27.1832 45.5581C26.9391 45.8021 26.9391 46.1979 27.1832 46.4419L29.6253 48.884L32.0674 46.4419C32.3114 46.1979 32.3114 45.8021 32.0674 45.5581C31.8233 45.314 31.4276 45.314 31.1835 45.5581L30.25 46.4915V36Z" fill="#D2A64F"/>
</g>
<defs>
<filter id="filter0_b" x="-4" y="-4" width="68" height="68" filterUnits="userSpaceOnUse" color-interpolation-filters="sRGB">
<feFlood flood-opacity="0" result="BackgroundImageFix"/>
<feGaussianBlur in="BackgroundImage" stdDeviation="2"/>
<feComposite in2="SourceAlpha" operator="in" result="effect1_backgroundBlur"/>
<feBlend mode="normal" in="SourceGraphic" in2="effect1_backgroundBlur" result="shape"/>
</filter>
</defs>
</svg>
