<svg width="40" height="40" viewBox="0 0 40 40" fill="none" xmlns="http://www.w3.org/2000/svg">
<path d="M29.8044 26.1972C29.5441 25.9369 29.1221 25.9369 28.8617 26.1972L28.3331 26.7259L27.8044 26.1972C27.5441 25.9369 27.1221 25.9369 26.8618 26.1972C26.6014 26.4575 26.6014 26.8795 26.8618 27.1399L27.3904 27.6685L26.8618 28.1972C26.6014 28.4575 26.6014 28.8795 26.8618 29.1399C26.9919 29.27 27.1626 29.3352 27.3331 29.3352C27.5036 29.3352 27.6742 29.27 27.8044 29.1399L28.3331 28.6112L28.8617 29.1399C28.9919 29.27 29.1626 29.3352 29.3331 29.3352C29.5036 29.3352 29.6742 29.27 29.8044 29.1399C30.0647 28.8795 30.0647 28.4575 29.8044 28.1972L29.2757 27.6685L29.8044 27.1399C30.0649 26.8795 30.0649 26.4575 29.8044 26.1972Z" fill="#D2A64F"/>
<path d="M9.66683 24.001C8.38033 24.001 7.3335 25.0478 7.3335 26.3343C7.3335 27.6208 8.38033 28.6676 9.66683 28.6676C10.9533 28.6676 12.0002 27.6208 12.0002 26.3343C12.0002 25.0478 10.9533 24.001 9.66683 24.001ZM9.66683 27.3343C9.11533 27.3343 8.66683 26.8858 8.66683 26.3343C8.66683 25.7828 9.11533 25.3343 9.66683 25.3343C10.2183 25.3343 10.6668 25.7828 10.6668 26.3343C10.6668 26.8858 10.2183 27.3343 9.66683 27.3343Z" fill="#D2A64F"/>
<path d="M19.9997 24.6689C19.6312 24.6689 19.333 24.9671 19.333 25.3356V27.3356C19.333 27.7041 19.6312 28.0023 19.9997 28.0023C20.3682 28.0023 20.6664 27.7041 20.6664 27.3356V25.3356C20.6664 24.9671 20.3682 24.6689 19.9997 24.6689Z" fill="#D2A64F"/>
<path d="M38.6665 4.00098H37.3332V0.667643C37.3332 0.299143 37.035 0.000976562 36.6665 0.000976562H33.9998C33.6313 0.000976562 33.3332 0.299143 33.3332 0.667643V4.00098H6.6665V0.667643C6.6665 0.299143 6.36834 0.000976562 5.99984 0.000976562H3.33317C2.96467 0.000976562 2.6665 0.299143 2.6665 0.667643V4.00098H1.33317C0.964671 4.00098 0.666504 4.29914 0.666504 4.66764V6.66764C0.666504 7.03614 0.964671 7.33431 1.33317 7.33431H2.6665V10.6676C2.6665 11.0361 2.96467 11.3343 3.33317 11.3343H5.99984C6.36834 11.3343 6.6665 11.0361 6.6665 10.6676V7.33431H9.28717L8.6665 16.6676C8.6665 17.2438 8.91517 17.7926 9.3495 18.1728C9.3665 18.1878 9.384 18.2015 9.40217 18.2145L13.4073 21.0641L15.3227 29.3661L14.0057 39.2463C13.9803 39.4365 14.0382 39.6285 14.1652 39.7736C14.2915 39.9183 14.4745 40.001 14.6665 40.001H18.4667C18.7545 40.001 19.0103 39.8161 19.1002 39.5426L19.9998 36.8036L20.8995 39.5426C20.9893 39.8161 21.2452 40.001 21.533 40.001H25.3332C25.5252 40.001 25.7082 39.9183 25.8345 39.7738C25.9615 39.6286 26.0193 39.4366 25.994 39.2465L24.677 29.3663L26.5923 21.0643L30.5975 18.2146C30.6157 18.2016 30.6333 18.188 30.6502 18.173C31.0843 17.7928 31.3332 17.244 31.3318 16.6235L30.7127 7.33431H33.3332V10.6676C33.3332 11.0361 33.6313 11.3343 33.9998 11.3343H36.6665C37.035 11.3343 37.3332 11.0361 37.3332 10.6676V7.33431H38.6665C39.035 7.33431 39.3332 7.03614 39.3332 6.66764V4.66764C39.3332 4.29914 39.035 4.00098 38.6665 4.00098ZM1.99984 6.00098V5.33431H2.6665V6.00098H1.99984ZM5.33317 10.001H3.99984V1.33431H5.33317V10.001ZM22.0155 38.6676L20.6333 34.4593C20.5435 34.1858 20.2877 34.001 19.9998 34.001C19.712 34.001 19.4562 34.1858 19.3663 34.4593L17.9842 38.6676H15.4282L16.5835 30.001H23.4162L24.5715 38.6676H22.0155ZM23.4693 28.6676H16.5302L15.1722 22.7826L16.195 23.8056C16.32 23.9306 16.4893 24.001 16.6663 24.001H23.333C23.51 24.001 23.6793 23.9306 23.8043 23.8056L24.8272 22.7826L23.4693 28.6676ZM29.9998 16.6676C29.9998 16.8506 29.9243 17.0251 29.7922 17.1513L25.6132 20.1246C25.5965 20.1365 25.5865 20.1548 25.5712 20.168C25.5578 20.1793 25.5412 20.1838 25.5287 20.1963L23.0572 22.6676H20.6665V21.3343C20.6665 20.9658 20.3683 20.6676 19.9998 20.6676C19.6313 20.6676 19.3332 20.9658 19.3332 21.3343V22.6676H16.9425L14.4712 20.1963C14.4587 20.1838 14.4418 20.1793 14.4287 20.168C14.4132 20.1548 14.4033 20.1366 14.3867 20.1246L10.2077 17.1513C10.0755 17.025 10 16.8525 9.99867 16.7118L10.6235 7.33431H12.0877L11.4452 8.29781C11.3722 8.40731 11.3332 8.53614 11.3332 8.66764V15.3955C11.3332 15.6311 11.4575 15.8493 11.6607 15.969L16.0663 18.5745C16.1692 18.6356 16.2863 18.6676 16.4055 18.6676H23.5943C23.7135 18.6676 23.8307 18.6358 23.9335 18.5745L28.3392 15.969C28.5423 15.8491 28.6667 15.6311 28.6667 15.3955V8.53414C28.6667 8.39548 28.623 8.25948 28.5423 8.14681L27.962 7.33431H29.376L29.9998 16.6676ZM26.3237 7.33431L27.3332 8.74764V15.0151L23.412 17.3343H23.3332V10.8831C23.3332 9.66181 22.339 8.66764 21.1177 8.66764H15.9998C15.6313 8.66764 15.3332 8.96581 15.3332 9.33431C15.3332 10.4203 15.863 11.3775 16.6695 11.9863C16.6693 11.9915 16.6665 11.9958 16.6665 12.001V15.2086C16.6665 16.0138 16.9543 16.746 17.4172 17.3343H16.5877L12.6665 15.0153V8.86948L13.69 7.33431H26.3237ZM17.9998 15.2086V12.6676H21.9998V17.3343H20.1255C18.9537 17.3343 17.9998 16.3805 17.9998 15.2086ZM21.9998 11.3343H18.6665C17.7973 11.3343 17.0558 10.777 16.7805 10.001H21.1177C21.604 10.001 21.9998 10.3968 21.9998 10.8831V11.3343ZM6.6665 6.00098V5.33431H33.3332V6.00098H6.6665ZM35.9998 10.001H34.6665V1.33431H35.9998V10.001ZM37.9998 6.00098H37.3332V5.33431H37.9998V6.00098Z" fill="#D2A64F"/>
</svg>
