<svg width="40" height="37" viewBox="0 0 40 37" fill="none" xmlns="http://www.w3.org/2000/svg">
<path fill-rule="evenodd" clip-rule="evenodd" d="M0 13C0 10.998 1.57379 9.375 3.51515 9.375H36.4848C38.4262 9.375 40 10.998 40 13V24C40 26.002 38.4262 27.625 36.4848 27.625H3.51515C1.57379 27.625 0 26.002 0 24V13ZM3.51515 10.625C2.24322 10.625 1.21212 11.6883 1.21212 13V24C1.21212 25.3117 2.24322 26.375 3.51515 26.375H36.4848C37.7568 26.375 38.7879 25.3117 38.7879 24V13C38.7879 11.6883 37.7568 10.625 36.4848 10.625H3.51515Z" fill="#D2A64F"/>
<path fill-rule="evenodd" clip-rule="evenodd" d="M4 23C4 20.998 5.62297 19.375 7.625 19.375H31.625C33.627 19.375 35.25 20.998 35.25 23V27.625H4V23ZM7.625 20.625C6.31332 20.625 5.25 21.6883 5.25 23V26.375H34V23C34 21.6883 32.9367 20.625 31.625 20.625H7.625Z" fill="#D2A64F"/>
<path fill-rule="evenodd" clip-rule="evenodd" d="M23.625 16.375C23.625 16.0298 23.9048 15.75 24.25 15.75H26C26.3452 15.75 26.625 16.0298 26.625 16.375C26.625 16.7202 26.3452 17 26 17H24.25C23.9048 17 23.625 16.7202 23.625 16.375Z" fill="#D2A64F"/>
<path fill-rule="evenodd" clip-rule="evenodd" d="M27.625 16.375C27.625 16.0298 27.9048 15.75 28.25 15.75H36C36.3452 15.75 36.625 16.0298 36.625 16.375C36.625 16.7202 36.3452 17 36 17H28.25C27.9048 17 27.625 16.7202 27.625 16.375Z" fill="#D2A64F"/>
<path d="M6.82038 5.1389C6.95054 5.26907 7.12121 5.33423 7.29171 5.33423C7.46221 5.33423 7.63288 5.26907 7.76304 5.1389L8.29171 4.61023L8.82038 5.1389C8.95055 5.26907 9.12121 5.33423 9.29172 5.33423C9.46222 5.33423 9.63288 5.26907 9.76305 5.1389C10.0234 4.87857 10.0234 4.45657 9.76305 4.19623L9.23438 3.66756L9.76305 3.1389C10.0234 2.87856 10.0234 2.45656 9.76305 2.19623C9.50272 1.93589 9.08071 1.93589 8.82038 2.19623L8.29171 2.7249L7.76304 2.19623C7.50271 1.93589 7.08071 1.93589 6.82038 2.19623C6.56004 2.45656 6.56004 2.87856 6.82038 3.1389L7.34904 3.66756L6.82038 4.19623C6.55987 4.45657 6.55987 4.87857 6.82038 5.1389Z" fill="#D2A64F"/>
<path d="M24.625 8.00001C25.7278 8.00001 26.625 7.10284 26.625 6C26.625 4.89717 25.7278 4 24.625 4C23.5222 4 22.625 4.89717 22.625 6C22.625 7.10284 23.5222 8.00001 24.625 8.00001ZM24.625 5.33334C24.9925 5.33334 25.2917 5.6325 25.2917 6C25.2917 6.3675 24.9925 6.66667 24.625 6.66667C24.2575 6.66667 23.9583 6.3675 23.9583 6C23.9583 5.6325 24.2575 5.33334 24.625 5.33334Z" fill="#D2A64F"/>
<path d="M4.625 18C5.72784 18 6.62501 17.1028 6.62501 16C6.62501 14.8972 5.72784 14 4.625 14C3.52217 14 2.625 14.8972 2.625 16C2.625 17.1028 3.52217 18 4.625 18ZM4.625 15.3333C4.9925 15.3333 5.29167 15.6325 5.29167 16C5.29167 16.3675 4.9925 16.6667 4.625 16.6667C4.2575 16.6667 3.95834 16.3675 3.95834 16C3.95834 15.6325 4.2575 15.3333 4.625 15.3333Z" fill="#D2A64F"/>
<path d="M18.2917 1.33333C18.6599 1.33333 18.9583 1.03485 18.9583 0.666666C18.9583 0.298476 18.6599 0 18.2917 0C17.9235 0 17.625 0.298476 17.625 0.666666C17.625 1.03485 17.9235 1.33333 18.2917 1.33333Z" fill="#D2A64F"/>
<path fill-rule="evenodd" clip-rule="evenodd" d="M14.2499 23C14.2499 22.6548 13.9701 22.375 13.6249 22.375C13.2797 22.375 12.9999 22.6548 12.9999 23V31.491L12.0669 30.5581C11.8229 30.314 11.4271 30.314 11.1831 30.5581C10.939 30.8021 10.939 31.1979 11.1831 31.4419L13.6252 33.884L16.0672 31.4419C16.3113 31.1979 16.3113 30.8021 16.0672 30.5581C15.8232 30.314 15.4274 30.314 15.1834 30.5581L14.2499 31.4915V23Z" fill="#D2A64F"/>
<path fill-rule="evenodd" clip-rule="evenodd" d="M27.2499 23C27.2499 22.6548 26.9701 22.375 26.6249 22.375C26.2797 22.375 25.9999 22.6548 25.9999 23V31.491L25.0669 30.5581C24.8229 30.314 24.4271 30.314 24.1831 30.5581C23.939 30.8021 23.939 31.1979 24.1831 31.4419L26.6252 33.884L29.0672 31.4419C29.3113 31.1979 29.3113 30.8021 29.0672 30.5581C28.8232 30.314 28.4274 30.314 28.1834 30.5581L27.2499 31.4915V23Z" fill="#D2A64F"/>
<path fill-rule="evenodd" clip-rule="evenodd" d="M20.2499 24C20.2499 23.6548 19.9701 23.375 19.6249 23.375C19.2797 23.375 18.9999 23.6548 18.9999 24V34.491L18.0669 33.5581C17.8229 33.314 17.4271 33.314 17.1831 33.5581C16.939 33.8021 16.939 34.1979 17.1831 34.4419L19.6252 36.884L22.0672 34.4419C22.3113 34.1979 22.3113 33.8021 22.0672 33.5581C21.8232 33.314 21.4274 33.314 21.1834 33.5581L20.2499 34.4915V24Z" fill="#D2A64F"/>
</svg>
