<svg width="36" height="38" viewBox="0 0 36 38" fill="none" xmlns="http://www.w3.org/2000/svg">
<path d="M32.1298 5.33282C32.26 5.46299 32.4307 5.52815 32.6012 5.52815C32.7717 5.52815 32.9423 5.46299 33.0725 5.33282L33.5438 4.86149L34.0151 5.33282C34.1453 5.46299 34.316 5.52815 34.4865 5.52815C34.657 5.52815 34.8276 5.46299 34.9578 5.33282C35.2181 5.07249 35.2181 4.65049 34.9578 4.39015L34.4865 3.91882L34.9578 3.44749C35.2181 3.18715 35.2181 2.76515 34.9578 2.50482C34.6975 2.24449 34.2755 2.24449 34.0151 2.50482L33.5438 2.97615L33.0725 2.50482C32.8122 2.24449 32.3902 2.24449 32.1298 2.50482C31.8695 2.76515 31.8695 3.18715 32.1298 3.44749L32.6012 3.91882L32.1298 4.39015C31.8695 4.65049 31.8695 5.07232 32.1298 5.33282Z" fill="#D2A64F"/>
<path d="M5.57169 8.27797C6.09769 8.11847 6.53002 7.76431 6.78919 7.27997C7.04769 6.79564 7.10302 6.23897 6.94352 5.71364C6.78402 5.18831 6.42985 4.75597 5.94552 4.49681C5.46052 4.23697 4.90452 4.18164 4.37919 4.34181C3.85385 4.50131 3.42152 4.85547 3.16235 5.33981C2.90319 5.82414 2.84785 6.38081 3.00735 6.90614C3.16685 7.43214 3.52102 7.86447 4.00535 8.12364C4.30802 8.28514 4.63885 8.36714 4.97285 8.36714C5.17252 8.36714 5.37435 8.33781 5.57169 8.27797ZM4.63419 6.94781C4.46419 6.85664 4.33919 6.70431 4.28335 6.51947C4.22752 6.33464 4.24685 6.13931 4.33802 5.96864C4.42919 5.79864 4.58085 5.67364 4.76569 5.61781C4.83469 5.59697 4.90569 5.58647 4.97602 5.58647C5.09319 5.58647 5.20969 5.61514 5.31652 5.67247C5.48652 5.76364 5.61152 5.91531 5.66735 6.10014C5.72319 6.28497 5.70385 6.48031 5.61335 6.65097C5.52219 6.82097 5.36985 6.94597 5.18502 7.00181C5.00069 7.05731 4.80602 7.03831 4.63419 6.94781Z" fill="#D2A64F"/>
<path d="M1.21089 28.3407C1.62777 28.3407 1.96572 28.0028 1.96572 27.5859C1.96572 27.169 1.62777 26.8311 1.21089 26.8311C0.794005 26.8311 0.456055 27.169 0.456055 27.5859C0.456055 28.0028 0.794005 28.3407 1.21089 28.3407Z" fill="#D2A64F"/>
<path d="M21.2106 15.5853C21.5788 15.5853 21.8773 15.2868 21.8773 14.9186C21.8773 14.5504 21.5788 14.252 21.2106 14.252C20.8424 14.252 20.5439 14.5504 20.5439 14.9186C20.5439 15.2868 20.8424 15.5853 21.2106 15.5853Z" fill="#D2A64F"/>
<path d="M14.5446 15.5853C14.9128 15.5853 15.2113 15.2868 15.2113 14.9186C15.2113 14.5504 14.9128 14.252 14.5446 14.252C14.1764 14.252 13.8779 14.5504 13.8779 14.9186C13.8779 15.2868 14.1764 15.5853 14.5446 15.5853Z" fill="#D2A64F"/>
<path d="M34.8773 23.252H32.2106C31.8421 23.252 31.5439 23.5501 31.5439 23.9186C31.5439 24.2871 31.8421 24.5853 32.2106 24.5853H34.2106V26.5853C34.2106 26.9538 34.5088 27.252 34.8773 27.252C35.2458 27.252 35.544 26.9538 35.544 26.5853V23.9186C35.544 23.5503 35.2458 23.252 34.8773 23.252Z" fill="#D2A64F"/>
<path d="M34.8773 29.9189C34.5088 29.9189 34.2106 30.2171 34.2106 30.5856V32.5856H32.2106C31.8421 32.5856 31.5439 32.8838 31.5439 33.2523C31.5439 33.6208 31.8421 33.919 32.2106 33.919H34.8773C35.2458 33.919 35.544 33.6208 35.544 33.2523V30.5856C35.544 30.2173 35.2458 29.9189 34.8773 29.9189Z" fill="#D2A64F"/>
<path d="M26.8773 32.5856H24.8773V30.5856C24.8773 30.2171 24.5791 29.9189 24.2106 29.9189C23.8421 29.9189 23.5439 30.2171 23.5439 30.5856V33.2523C23.5439 33.6208 23.8421 33.919 24.2106 33.919H26.8773C27.2458 33.919 27.544 33.6208 27.544 33.2523C27.544 32.8838 27.2458 32.5856 26.8773 32.5856Z" fill="#D2A64F"/>
<path d="M32.877 28.5856C32.877 26.7477 31.3815 25.2522 29.5436 25.2522C28.6868 25.2522 27.9125 25.5862 27.3213 26.1194C26.9635 25.8632 26.5888 25.6316 26.1901 25.4501L24.877 24.8531V24.5856H26.877C27.2455 24.5856 27.5436 24.2874 27.5436 23.9189C27.5436 23.5504 27.2455 23.2522 26.877 23.2522H24.2103C23.8418 23.2522 23.5436 23.5504 23.5436 23.9189V24.2471L20.864 23.0289C20.8665 22.8552 20.8688 22.6622 20.8708 22.4816C23.4236 21.2629 25.3645 18.9904 26.1518 16.2509C26.5978 16.2691 27.0033 16.1434 27.4063 15.8922C28.0248 15.5062 28.4435 14.8786 28.5255 14.2119C28.6081 13.5439 28.4011 12.8741 27.9591 12.3734C27.6623 12.0381 27.2781 11.7986 26.8556 11.6767C26.8583 11.3649 26.866 10.9514 26.8771 10.5849C26.8771 10.5784 26.8771 10.5719 26.8771 10.5654V6.58558C26.8771 4.52824 25.7176 2.72758 23.6115 1.51524C20.3731 -0.349424 15.5971 -0.400757 12.5001 1.39741C10.857 2.35124 8.90045 4.23858 8.91345 7.81141L8.92195 8.88107C8.92845 9.48857 8.93429 10.0699 8.92779 10.5367C8.93045 10.9176 8.92779 11.3506 8.92062 11.6689C8.52279 11.7782 8.16029 11.9924 7.86462 12.2984C7.42129 12.7587 7.18945 13.3642 7.21229 14.0034C7.23695 14.7169 7.64195 15.4057 8.29429 15.8459C8.70645 16.1239 9.11845 16.2527 9.56895 16.2527C10.2663 18.8002 11.9573 20.9381 14.2135 22.2361C14.2173 22.5902 14.2205 22.8476 14.2226 23.0294L8.89712 25.4499C6.45512 26.5599 4.87695 29.0404 4.87695 31.7682V37.2519C4.87695 37.6204 5.17512 37.9186 5.54362 37.9186H29.5436C29.9121 37.9186 30.2103 37.6204 30.2103 37.2519V31.8512C31.7298 31.5419 32.877 30.1952 32.877 28.5856ZM29.5436 26.5856C30.6465 26.5856 31.5436 27.4827 31.5436 28.5856C31.5436 29.6884 30.6465 30.5856 29.5436 30.5856C28.4408 30.5856 27.5436 29.6884 27.5436 28.5856C27.5436 27.4827 28.4408 26.5856 29.5436 26.5856ZM13.1693 2.55058C15.8841 0.973742 20.088 1.02391 22.946 2.67108C24.1308 3.35341 25.5436 4.58574 25.5436 6.58574V10.2217C23.5385 11.6909 21.2751 12.2514 19.1335 11.7824C17.2441 11.3677 15.6771 10.1926 14.8353 8.55774C14.7376 8.36824 14.5553 8.23674 14.3451 8.20424C14.1355 8.17174 13.9206 8.24207 13.7703 8.39241C12.9125 9.25424 11.6553 9.76724 10.2633 9.85524C10.2621 9.54524 10.259 9.21208 10.2553 8.86758L10.2468 7.80641C10.2356 4.87074 11.8301 3.32791 13.1693 2.55058ZM10.7253 15.3577C10.687 15.1709 10.5703 15.0094 10.405 14.9137C10.3028 14.8551 10.1875 14.8252 10.0723 14.8252C10.0006 14.8252 9.92912 14.8369 9.85945 14.8597C9.60162 14.9476 9.36329 14.9594 9.04045 14.7406C8.74495 14.5414 8.55479 14.2406 8.54429 13.9561C8.53445 13.6814 8.63412 13.4216 8.82429 13.2242C9.01445 13.0276 9.26962 12.9189 9.54362 12.9189C9.72129 12.9189 9.89445 12.8466 10.0195 12.7204C10.2023 12.5369 10.2588 12.4791 10.2625 11.1909C11.6933 11.1169 13.0321 10.6624 14.0741 9.88708C15.1541 11.4997 16.8541 12.6469 18.8476 13.0844C19.4446 13.2159 20.0481 13.2804 20.6523 13.2804C22.3096 13.2804 23.9711 12.7859 25.5183 11.8447C25.5211 12.4999 25.5788 12.5601 25.7298 12.7161C25.8555 12.8449 26.03 12.9192 26.2103 12.9192C26.4968 12.9192 26.7701 13.0422 26.9596 13.2571C27.1523 13.4746 27.2383 13.7557 27.2025 14.0494C27.1686 14.3202 26.9811 14.5859 26.7011 14.7611C26.4205 14.9362 26.1823 14.9636 25.8801 14.8567C25.6998 14.7909 25.5006 14.8099 25.334 14.9022C25.1666 14.9954 25.0475 15.1561 25.0065 15.3431C24.3573 18.3236 22.1543 20.7584 19.2565 21.6972L18.9621 21.7936C18.1333 22.0617 17.2863 22.0722 16.5141 21.8229C13.5663 20.8741 11.3483 18.3969 10.7253 15.3577ZM15.1731 24.0622C15.4198 23.9502 15.5735 23.6911 15.5625 23.4202C15.5605 23.3689 15.5573 23.1397 15.5541 22.8752C15.7383 22.9471 15.916 23.0311 16.1055 23.0921C16.6106 23.2549 17.1361 23.3356 17.6693 23.3356C18.2351 23.3356 18.8086 23.2444 19.3738 23.0614L19.5313 23.0099C19.529 23.2122 19.5268 23.3731 19.5255 23.4077C19.5053 23.6857 19.6608 23.9467 19.9141 24.0621L21.6046 24.8304L17.5438 31.3277L13.4828 24.8306L15.1731 24.0622ZM6.21029 31.7686C6.21029 29.5622 7.48179 27.5582 9.44929 26.6637L12.2585 25.3869L16.877 32.7766V36.5856H10.877V33.9189C10.877 33.5504 10.5788 33.2522 10.2103 33.2522C9.84179 33.2522 9.54362 33.5504 9.54362 33.9189V36.5856H6.21029V31.7686ZM18.2103 36.5856V32.7766L22.8288 25.3869L23.5436 25.7117V26.5856C23.5436 26.9541 23.8418 27.2522 24.2103 27.2522C24.5788 27.2522 24.877 26.9541 24.877 26.5856V26.3179L25.638 26.6637C25.9515 26.8061 26.2456 26.9879 26.5276 27.1881C26.3291 27.6146 26.2103 28.0849 26.2103 28.5856C26.2103 30.1952 27.3575 31.5417 28.877 31.8516V36.5856H18.2103Z" fill="#D2A64F"/>
</svg>
