<svg width="36" height="38" viewBox="0 0 36 38" fill="none" xmlns="http://www.w3.org/2000/svg">
<path d="M32.8049 25.1328C32.5446 24.8724 32.1226 24.8724 31.8622 25.1328L31.3336 25.6614L30.8049 25.1328C30.5446 24.8724 30.1226 24.8724 29.8622 25.1328C29.6019 25.3931 29.6019 25.8151 29.8622 26.0754L30.3909 26.6041L29.8622 27.1328C29.6019 27.3931 29.6019 27.8151 29.8622 28.0754C29.9924 28.2056 30.1631 28.2708 30.3336 28.2708C30.5041 28.2708 30.6747 28.2056 30.8049 28.0754L31.3336 27.5468L31.8622 28.0754C31.9924 28.2056 32.1631 28.2708 32.3336 28.2708C32.5041 28.2708 32.6747 28.2056 32.8049 28.0754C33.0652 27.8151 33.0652 27.3931 32.8049 27.1328L32.2762 26.6041L32.8049 26.0754C33.0654 25.8151 33.0654 25.3931 32.8049 25.1328Z" fill="#D2A64F"/>
<path d="M10.3335 4.93848C11.4363 4.93848 12.3335 4.04131 12.3335 2.93848C12.3335 1.83564 11.4363 0.938477 10.3335 0.938477C9.23066 0.938477 8.3335 1.83564 8.3335 2.93848C8.3335 4.04131 9.23066 4.93848 10.3335 4.93848ZM10.3335 2.27181C10.7013 2.27181 11.0002 2.57098 11.0002 2.93848C11.0002 3.30598 10.7013 3.60514 10.3335 3.60514C9.96567 3.60514 9.66683 3.30598 9.66683 2.93848C9.66683 2.57098 9.96567 2.27181 10.3335 2.27181Z" fill="#D2A64F"/>
<path d="M25.0002 5.60579C25.3684 5.60579 25.6668 5.30731 25.6668 4.93913C25.6668 4.57094 25.3684 4.27246 25.0002 4.27246C24.632 4.27246 24.3335 4.57094 24.3335 4.93913C24.3335 5.30731 24.632 5.60579 25.0002 5.60579Z" fill="#D2A64F"/>
<path d="M35.0002 8.93945H33.0002V8.27279C33.0002 7.90462 32.702 7.60612 32.3335 7.60612H27.6668C27.2983 7.60612 27.0002 7.90462 27.0002 8.27279V11.6061H25.9388L25.9585 10.7311C25.9585 9.67412 25.0985 8.81445 24.0418 8.81445C23.6518 8.81445 23.2892 8.93129 22.9858 9.13212C22.5887 8.63412 21.9767 8.31445 21.2918 8.31445C20.9188 8.31445 20.5672 8.40912 20.2607 8.57612C19.917 7.83195 19.1637 7.31445 18.2918 7.31445C17.5718 7.31445 16.9325 7.66762 16.5387 8.20995C16.1858 7.96095 15.7555 7.81445 15.2918 7.81445C14.0972 7.81445 13.1252 8.78645 13.1252 9.98112V10.582L11.6852 11.6061H9.00016V8.27279C9.00016 7.90462 8.702 7.60612 8.3335 7.60612H3.66683C3.29833 7.60612 3.00016 7.90462 3.00016 8.27279V8.93945H1.00016C0.631663 8.93945 0.333496 9.23795 0.333496 9.60612V18.9395C0.333496 19.3076 0.631663 19.6061 1.00016 19.6061H3.00016V20.2728C3.00016 20.641 3.29833 20.9395 3.66683 20.9395H8.3335C8.702 20.9395 9.00016 20.641 9.00016 20.2728V16.9395H9.62816C9.62783 16.9525 9.62516 16.9688 9.62516 16.9811C9.62516 17.9801 10.1883 19.1728 10.4695 19.4508L14.4793 23.6256L15.1252 26.9641V36.1478C15.1252 36.5159 15.4233 36.8144 15.7918 36.8144C16.1603 36.8144 16.4585 36.5159 16.4585 36.1478V26.9005C16.4585 26.8578 16.4547 26.8154 16.4462 26.7738L15.7508 23.1795C15.7267 23.0535 15.6662 22.9369 15.5777 22.8441L11.4488 18.5473C11.3225 18.38 10.9587 17.5815 10.9587 16.9813C10.9587 16.4625 11.762 14.3891 12.5635 12.6183L13.1253 12.2188V14.9813C13.1253 15.3495 13.4235 15.648 13.792 15.648C14.1605 15.648 14.4587 15.3495 14.4587 14.9813V9.98129C14.4587 9.52162 14.8323 9.14795 15.292 9.14795C15.7517 9.14795 16.1253 9.52162 16.1253 9.98129V11.648C16.1253 12.0161 16.4235 12.3146 16.792 12.3146C17.1605 12.3146 17.4587 12.0161 17.4587 11.648V9.48129C17.4587 9.02162 17.8323 8.64795 18.292 8.64795C18.7517 8.64795 19.1253 9.02162 19.1253 9.48129V11.4813C19.1253 11.8495 19.4235 12.148 19.792 12.148C20.1605 12.148 20.4587 11.8495 20.4587 11.4813V10.4813C20.4587 10.0216 20.8323 9.64795 21.292 9.64795C21.7517 9.64795 22.1253 10.0216 22.1253 10.4813V11.9813C22.1253 12.3495 22.4235 12.648 22.792 12.648C23.1605 12.648 23.4587 12.3495 23.4587 11.9813C23.4587 11.9813 23.4587 10.7756 23.4587 10.7313C23.4587 10.4096 23.7203 10.148 24.042 10.148C24.3637 10.148 24.6253 10.4096 24.6253 10.7163L24.43 19.438C24.43 20.1313 24.3832 20.829 24.2875 21.5408L23.792 27.0646V36.3979C23.792 36.7661 24.0902 37.0646 24.4587 37.0646C24.8272 37.0646 25.1253 36.7661 25.1253 36.3979L25.1227 27.1245L25.6123 21.6903C25.7127 20.9488 25.7633 20.191 25.7633 19.453L25.8197 16.9396H27.0002V20.273C27.0002 20.6411 27.2983 20.9396 27.6668 20.9396H32.3335C32.702 20.9396 33.0002 20.6411 33.0002 20.273V19.6063H35.0002C35.3687 19.6063 35.6668 19.3078 35.6668 18.9396V9.60629C35.6668 9.23795 35.3687 8.93945 35.0002 8.93945ZM1.66683 18.2728V10.2728H3.00016V18.2728H1.66683ZM7.66683 19.6061H4.3335V8.93945H7.66683V19.6061ZM9.93266 15.6061H9.00016V12.9395H10.965C10.6327 13.7115 10.2137 14.737 9.93266 15.6061ZM25.8493 15.6061L25.909 12.9395H27.0002V15.6061H25.8493ZM31.6668 19.6061H28.3335V8.93945H31.6668V19.6061ZM34.3335 18.2728H33.0002V10.2728H34.3335V18.2728Z" fill="#D2A64F"/>
</svg>
