<svg width="60" height="60" viewBox="0 0 60 60" fill="none" xmlns="http://www.w3.org/2000/svg">
<g filter="url(#filter0_b)">
<rect width="60" height="60" fill="white" fill-opacity="0.15"/>
<path d="M49.5045 37.7407L47.7965 35.7646C46.4557 34.4237 44.26 34.4087 42.902 35.7327C42.2194 36.3977 41.1169 36.3902 40.4414 35.7154L40.3834 35.6577C39.7327 35.0067 38.8667 34.6479 37.9459 34.6479C37.894 34.6479 37.8449 34.6606 37.7935 34.6627L29.4417 20.4794L42.0927 19.3294C42.9902 19.2477 43.6665 18.5067 43.6665 17.6061C43.6665 16.6672 42.9319 15.9079 41.994 15.8769L26.8229 15.3711C25.7464 15.3339 24.7307 15.8342 24.1012 16.7061C23.4714 17.5777 23.3174 18.7006 23.689 19.7096L26.8775 28.3636L17.5317 36.0601C17.38 35.9711 17.2342 35.8689 17.1042 35.7389C15.7605 34.3946 13.5729 34.3946 12.2292 35.7389L10.5287 37.4394C10.4037 37.5644 10.3334 37.7341 10.3334 37.9107V47.9107C10.3334 48.2789 10.6319 48.5774 11 48.5774H49C49.3682 48.5774 49.6667 48.2789 49.6667 47.9107V38.1764C49.6667 38.0166 49.609 37.8619 49.5045 37.7407ZM28.2924 28.3469L24.9405 19.2486C24.7192 18.6477 24.807 18.0057 25.182 17.4866C25.5567 16.9681 26.1329 16.6891 26.7787 16.7037L41.9502 17.2096C42.165 17.2167 42.3334 17.3909 42.3334 17.6061C42.3334 17.8127 42.178 17.9827 41.9724 18.0012L28.2732 19.2467C28.0457 19.2676 27.8445 19.4032 27.7404 19.6064C27.6359 19.8099 27.643 20.0521 27.7589 20.2489L36.4474 35.0044C36.1059 35.1704 35.7849 35.3814 35.5085 35.6577L35.4275 35.7387C34.6037 36.5629 33.2622 36.5636 32.4377 35.7387C31.094 34.3944 28.9064 34.3944 27.5627 35.7387C27.2375 36.0636 26.8062 36.2426 26.3469 36.2426C26.3445 36.2426 26.342 36.2426 26.3397 36.2426C25.878 36.2406 25.4455 36.0584 25.12 35.7279L25.0504 35.6576C24.3997 35.0066 23.5337 34.6477 22.6129 34.6477C21.6924 34.6477 20.8264 35.0064 20.1754 35.6576L20.0944 35.7386C19.9355 35.8974 19.7539 36.0161 19.564 36.1137L28.0909 29.0917C28.3092 28.9117 28.3904 28.6129 28.2924 28.3469ZM13.1719 36.6816C13.996 35.8574 15.3372 35.8574 16.1615 36.6816C16.8125 37.3326 17.6785 37.6914 18.599 37.6914C19.5199 37.6914 20.3859 37.3327 21.0369 36.6816L21.1179 36.6006C21.917 35.8021 23.3119 35.8044 24.1052 36.5982L24.1712 36.6649C24.7464 37.2492 25.5147 37.5727 26.3344 37.5757C26.3385 37.5761 26.3429 37.5761 26.3467 37.5761C27.1622 37.5761 27.9284 37.2587 28.5052 36.6816C29.3294 35.8574 30.6705 35.8574 31.4949 36.6816C32.8389 38.0262 35.0267 38.0262 36.3702 36.6816L36.4512 36.6006C37.2504 35.8021 38.6417 35.8007 39.442 36.6019L39.5 36.6596C40.6865 37.8464 42.6302 37.8587 43.8324 36.6879C44.6705 35.8709 46.0254 35.8799 46.8207 36.6716L48.3334 38.4244V42.5591L47.5459 41.7662C46.2115 40.4231 44.027 40.4086 42.6754 41.7344C41.9999 42.3966 40.909 42.3894 40.2427 41.7181L40.1844 41.6594C39.5365 41.0071 38.6752 40.6481 37.7589 40.6481C36.8422 40.6481 35.9809 41.0071 35.3337 41.6587L35.2524 41.7404C34.4614 42.5366 33.0844 42.5366 32.2934 41.7404C31.6455 41.0881 30.7842 40.7291 29.8675 40.7291C28.9512 40.7291 28.0899 41.0881 27.442 41.7404C27.1204 42.0642 26.6937 42.2427 26.2395 42.2427C26.2375 42.2427 26.2354 42.2427 26.233 42.2427C25.7767 42.2407 25.3485 42.0591 25.027 41.7304L24.9574 41.6594C24.3095 41.0071 23.4482 40.6481 22.5319 40.6481C21.6152 40.6481 20.7539 41.0071 20.1057 41.6597L20.0257 41.7404C19.2347 42.5359 17.8574 42.5366 17.0664 41.7404C16.4185 41.0881 15.5572 40.7291 14.6405 40.7291C13.7242 40.7291 12.8629 41.0884 12.2154 41.7404L11.6667 42.2934V38.1867L13.1719 36.6816ZM11.6667 47.2441V44.1854L13.1619 42.6799C13.9529 41.8837 15.3299 41.8837 16.1209 42.6799C16.7687 43.3322 17.63 43.6912 18.5464 43.6912C19.463 43.6912 20.3244 43.3322 20.9725 42.6796L21.0525 42.5989C21.8429 41.8027 23.223 41.8049 24.0089 42.5959L24.0749 42.6632C24.6472 43.2486 25.4117 43.5727 26.2282 43.5757C26.232 43.5761 26.2364 43.5761 26.2402 43.5761C27.052 43.5761 27.8144 43.2581 28.3884 42.6799C29.179 41.8831 30.5567 41.8837 31.3477 42.6799C31.9955 43.3322 32.8569 43.6912 33.7735 43.6912C34.6899 43.6912 35.5512 43.3319 36.198 42.6806L36.2794 42.5989C37.07 41.8027 38.447 41.8017 39.239 42.5992L39.2974 42.6579C40.479 43.8481 42.4139 43.8607 43.6092 42.6862C44.4392 41.8721 45.781 41.8809 46.6 42.7057L48.3334 44.4511V47.2441H11.6667Z" fill="#D2A64F"/>
<path d="M11.711 25.1541C11.711 25.5477 12.0302 25.8667 12.4237 25.8667C12.8172 25.8667 13.1365 25.5476 13.1365 25.1541C13.1365 24.7606 12.8173 24.4414 12.4237 24.4414C12.03 24.4414 11.711 24.7604 11.711 25.1541Z" fill="#D2A64F"/>
<path d="M15.0354 14.0895C15.4035 14.0895 15.702 13.791 15.702 13.4228V12.0895C15.702 11.7214 15.4035 11.4229 15.0354 11.4229C14.6672 11.4229 14.3687 11.7214 14.3687 12.0895V13.4228C14.3687 13.791 14.6672 14.0895 15.0354 14.0895Z" fill="#D2A64F"/>
<path d="M15.0354 15.4229C14.6672 15.4229 14.3687 15.7214 14.3687 16.0895V17.4229C14.3687 17.791 14.6672 18.0895 15.0354 18.0895C15.4035 18.0895 15.702 17.791 15.702 17.4229V16.0895C15.702 15.7214 15.4035 15.4229 15.0354 15.4229Z" fill="#D2A64F"/>
<path d="M12.3687 15.4232H13.702C14.0702 15.4232 14.3687 15.1247 14.3687 14.7565C14.3687 14.3883 14.0702 14.0898 13.702 14.0898H12.3687C12.0005 14.0898 11.702 14.3883 11.702 14.7565C11.702 15.1247 12.0005 15.4232 12.3687 15.4232Z" fill="#D2A64F"/>
<path d="M16.3687 15.4232H17.702C18.0702 15.4232 18.3687 15.1247 18.3687 14.7565C18.3687 14.3883 18.0702 14.0898 17.702 14.0898H16.3687C16.0005 14.0898 15.702 14.3883 15.702 14.7565C15.702 15.1247 16.0005 15.4232 16.3687 15.4232Z" fill="#D2A64F"/>
<path d="M40.0003 22.0771C37.6109 22.0771 35.6669 24.0211 35.6669 26.4105V27.6846C35.6669 30.3826 37.8616 32.5771 40.5594 32.5771H43.6669C44.0351 32.5771 44.3336 32.2786 44.3336 31.9105V26.4105C44.3336 24.0211 42.3896 22.0771 40.0003 22.0771ZM43.0003 31.2438H40.5594C38.5969 31.2438 37.0003 29.6471 37.0003 27.6846V26.4105C37.0003 24.7561 38.3459 23.4105 40.0003 23.4105C41.6546 23.4105 43.0003 24.7561 43.0003 26.4105V31.2438Z" fill="#D2A64F"/>
</g>
<defs>
<filter id="filter0_b" x="-4" y="-4" width="68" height="68" filterUnits="userSpaceOnUse" color-interpolation-filters="sRGB">
<feFlood flood-opacity="0" result="BackgroundImageFix"/>
<feGaussianBlur in="BackgroundImage" stdDeviation="2"/>
<feComposite in2="SourceAlpha" operator="in" result="effect1_backgroundBlur"/>
<feBlend mode="normal" in="SourceGraphic" in2="effect1_backgroundBlur" result="shape"/>
</filter>
</defs>
</svg>
