<svg width="34" height="36" viewBox="0 0 34 36" fill="none" xmlns="http://www.w3.org/2000/svg">
<path d="M33.3333 14.6663H16V13.333C16 8.92151 12.4112 5.33301 8 5.33301C3.58883 5.33301 0 8.92151 0 13.333V27.333C0 31.7445 3.58883 35.333 8 35.333H33.3333C33.7015 35.333 34 35.0348 34 34.6663V15.333C34 14.9645 33.7015 14.6663 33.3333 14.6663ZM32.6667 15.9997V31.333H14.928C15.6247 30.1233 16 28.7387 16 27.333V15.9997H32.6667ZM1.33333 13.333C1.33333 9.65717 4.32383 6.66634 8 6.66634C11.6762 6.66634 14.6667 9.65717 14.6667 13.333V22.9203C13.2325 20.7608 10.7808 19.333 8 19.333C5.21917 19.333 2.7675 20.7608 1.33333 22.9203V13.333ZM32.6667 33.9997H8C4.32383 33.9997 1.33333 31.0088 1.33333 27.333C1.33333 23.6572 4.32383 20.6663 8 20.6663C11.6762 20.6663 14.6667 23.6572 14.6667 27.333C14.6667 28.7947 14.2067 30.1728 13.334 31.333H11.5158C12.6272 30.3548 13.3333 28.9265 13.3333 27.333C13.3333 24.3922 10.9408 21.9997 8 21.9997C5.05917 21.9997 2.66667 24.3922 2.66667 27.333C2.66667 30.2738 5.05917 32.6663 8 32.6663H32.6667V33.9997ZM4 27.333C4 25.1273 5.79433 23.333 8 23.333C10.2057 23.333 12 25.1273 12 27.333C12 29.5387 10.2057 31.333 8 31.333C5.79433 31.333 4 29.5387 4 27.333Z" fill="#D2A64F"/>
<path d="M7.99967 24.665C6.52934 24.665 5.33301 25.861 5.33301 27.3317C5.33301 28.8024 6.52934 29.9984 7.99967 29.9984C9.47 29.9984 10.6663 28.8024 10.6663 27.3317C10.6663 25.861 9.47 24.665 7.99967 24.665ZM7.99967 28.665C7.26434 28.665 6.66634 28.0667 6.66634 27.3317C6.66634 26.5967 7.26434 25.9984 7.99967 25.9984C8.735 25.9984 9.333 26.5967 9.333 27.3317C9.333 28.0667 8.735 28.665 7.99967 28.665Z" fill="#D2A64F"/>
<path d="M28.5098 8.6404C28.5098 9.03407 28.8289 9.35307 29.2224 9.35307C29.6159 9.35307 29.9353 9.0339 29.9353 8.6404C29.9353 8.2469 29.6161 7.92773 29.2224 7.92773C28.8288 7.92773 28.5098 8.24673 28.5098 8.6404Z" fill="#D2A64F"/>
<path d="M26.1954 3.80393C26.3255 3.9341 26.4962 3.99926 26.6667 3.99926C26.8372 3.99926 27.0079 3.9341 27.138 3.80393L27.6667 3.27526L28.1954 3.80393C28.3255 3.9341 28.4962 3.99926 28.6667 3.99926C28.8372 3.99926 29.0079 3.9341 29.138 3.80393C29.3984 3.5436 29.3984 3.1216 29.138 2.86127L28.6094 2.3326L29.138 1.80393C29.3984 1.5436 29.3984 1.1216 29.138 0.861266C28.8777 0.600932 28.4557 0.600932 28.1954 0.861266L27.6667 1.38993L27.138 0.861266C26.8777 0.600932 26.4557 0.600932 26.1954 0.861266C25.935 1.1216 25.935 1.5436 26.1954 1.80393L26.724 2.3326L26.1954 2.86127C25.9349 3.1216 25.9349 3.5436 26.1954 3.80393Z" fill="#D2A64F"/>
<path d="M20 9.33302C21.1028 9.33302 22 8.43585 22 7.33301C22 6.23018 21.1028 5.33301 20 5.33301C18.8972 5.33301 18 6.23018 18 7.33301C18 8.43585 18.8972 9.33302 20 9.33302ZM20 6.66634C20.3675 6.66634 20.6667 6.96518 20.6667 7.33301C20.6667 7.70085 20.3675 7.99968 20 7.99968C19.6325 7.99968 19.3333 7.70085 19.3333 7.33301C19.3333 6.96518 19.6325 6.66634 20 6.66634Z" fill="#D2A64F"/>
</svg>
