<svg width="60" height="60" viewBox="0 0 60 60" fill="none" xmlns="http://www.w3.org/2000/svg">
<g filter="url(#filter0_b)">
<rect width="60" height="60" fill="white" fill-opacity="0.15"/>
<path d="M44.9918 33.8428C44.7314 33.5825 44.3091 33.5825 44.0491 33.8428L41.7941 36.0978L39.5011 33.7486C37.7023 31.9058 36.5284 29.4843 36.1961 26.9303L34.6498 15.0495C34.4881 13.8071 33.4214 12.8701 32.1684 12.8701C31.4344 12.8701 30.7754 13.1898 30.3173 13.6948C29.8496 13.1891 29.1829 12.8701 28.4414 12.8701C27.1651 12.8701 26.0751 13.824 25.9058 15.0888L24.3301 26.8563C23.9824 29.4536 22.7683 31.9024 20.9114 33.7516L18.7141 35.94L16.6168 33.8426C16.4918 33.7176 16.3221 33.6474 16.1454 33.6474C15.9688 33.6474 15.7991 33.7176 15.6741 33.8426L13.2761 36.2406C13.2761 36.2406 13.2759 36.2408 13.2758 36.2408C13.2756 36.2408 13.2756 36.241 13.2756 36.2411L11.5588 37.9583C11.2984 38.2186 11.2984 38.6408 11.5588 38.9011L22.2588 49.6011C22.3888 49.7313 22.5596 49.7963 22.7301 49.7963C22.9006 49.7963 23.0714 49.7311 23.2014 49.6011L24.8261 47.9764L24.9186 47.8839L27.3169 45.4856C27.5773 45.2253 27.5773 44.8031 27.3169 44.5428L25.0384 42.2643L25.8573 41.5369H26.8769C28.4094 41.5369 29.7484 40.6958 30.4589 39.4515C31.3016 40.708 32.7346 41.5369 34.3579 41.5369H34.6709L35.5509 42.341L33.3491 44.5428C33.0888 44.8031 33.0888 45.2253 33.3491 45.4856L37.4644 49.6009C37.5946 49.7311 37.7653 49.7961 37.9358 49.7961C38.1063 49.7961 38.2771 49.7309 38.4071 49.6009L49.1073 38.9009C49.2323 38.7759 49.3026 38.6063 49.3026 38.4294C49.3026 38.2526 49.2323 38.0831 49.1073 37.958L44.9918 33.8428ZM22.7301 48.1869L12.9729 38.4298L13.7473 37.6555L23.5044 47.4128L22.7301 48.1869ZM24.4473 46.4698L14.6901 36.7124L16.1456 35.257L25.9028 45.0143L24.4473 46.4698ZM29.6664 37.4141C29.6664 38.9523 28.4151 40.2034 26.8771 40.2034H25.6039C25.4408 40.2034 25.2831 40.2633 25.1613 40.3716L24.0939 41.3196L19.6569 36.8826L21.8523 34.6966C23.9159 32.6414 25.2654 29.92 25.6518 27.0335L27.2274 15.2658C27.3084 14.6603 27.8303 14.2035 28.4414 14.2035C29.1169 14.2035 29.6664 14.753 29.6664 15.4285V20.8721C28.2084 21.0995 27.0281 22.2658 26.8268 23.7658L25.9794 30.0778C25.9304 30.4426 26.1866 30.7783 26.5516 30.8273C26.5818 30.8313 26.6114 30.8333 26.6411 30.8333C26.9699 30.8333 27.2559 30.5901 27.3011 30.2553L28.1484 23.9433C28.2609 23.1048 28.8781 22.438 29.6664 22.2306V36.8454C29.6664 36.9856 29.6738 37.1239 29.6859 37.261C29.6741 37.3103 29.6664 37.3611 29.6664 37.4141ZM35.3794 40.3781C35.2566 40.2658 35.0963 40.2036 34.9298 40.2036H34.3579C32.5063 40.2036 30.9998 38.6971 30.9998 36.8454V22.2541C31.5794 22.4544 32.0229 22.9673 32.1081 23.6023L33.0011 30.2551C33.0463 30.59 33.3323 30.8331 33.6611 30.8331C33.6906 30.8331 33.7204 30.8311 33.7506 30.8271C34.1154 30.7781 34.3718 30.4426 34.3228 30.0776L33.4298 23.4248C33.2554 22.1263 32.2518 21.1084 30.9998 20.8783V15.3725C30.9998 14.728 31.5241 14.2036 32.1686 14.2036C32.7539 14.2036 33.2521 14.6413 33.3276 15.2216L34.8738 27.1023C35.2433 29.9408 36.5478 32.6318 38.5469 34.68L40.8513 37.0406L36.4948 41.3973L35.3794 40.3781ZM44.5204 35.257L45.9759 36.7124L36.2188 46.4698L34.7633 45.0143L44.5204 35.257ZM37.9358 48.1869L37.1614 47.4126L46.9186 37.6553L47.6929 38.4296L37.9358 48.1869Z" fill="#D2A64F"/>
<path d="M14.3334 13.5374C14.7016 13.5374 15.0001 13.2389 15.0001 12.8708V10.8708C15.0001 10.5026 14.7016 10.2041 14.3334 10.2041C13.9652 10.2041 13.6667 10.5026 13.6667 10.8708V12.8708C13.6667 13.2389 13.9652 13.5374 14.3334 13.5374Z" fill="#D2A64F"/>
<path d="M15.0001 17.5368V15.5368C15.0001 15.1686 14.7016 14.8701 14.3334 14.8701C13.9652 14.8701 13.6667 15.1686 13.6667 15.5368V17.5368C13.6667 17.905 13.9652 18.2035 14.3334 18.2035C14.7016 18.2035 15.0001 17.905 15.0001 17.5368Z" fill="#D2A64F"/>
<path d="M13.6667 14.2038C13.6667 13.8356 13.3682 13.5371 13 13.5371H11C10.6319 13.5371 10.3334 13.8356 10.3334 14.2038C10.3334 14.5719 10.6319 14.8704 11 14.8704H13C13.3682 14.8704 13.6667 14.5719 13.6667 14.2038Z" fill="#D2A64F"/>
<path d="M15.6667 14.8704H17.6667C18.0349 14.8704 18.3334 14.5719 18.3334 14.2038C18.3334 13.8356 18.0349 13.5371 17.6667 13.5371H15.6667C15.2986 13.5371 15.0001 13.8356 15.0001 14.2038C15.0001 14.5719 15.2986 14.8704 15.6667 14.8704Z" fill="#D2A64F"/>
<path d="M21.3506 20.1039C21.6637 19.9103 21.7606 19.4994 21.5671 19.1863C21.3734 18.8731 20.9626 18.7763 20.6494 18.9698C20.3362 19.1634 20.2394 19.5743 20.4329 19.8874C20.6266 20.2008 21.0374 20.2976 21.3506 20.1039Z" fill="#D2A64F"/>
<path d="M41.3158 24.3029C41.0026 24.4965 40.9058 24.9073 41.0993 25.2205C41.293 25.5337 41.7038 25.6305 42.0169 25.437C42.3301 25.2433 42.4269 24.8325 42.2334 24.5194C42.0398 24.2062 41.6289 24.1092 41.3158 24.3029Z" fill="#D2A64F"/>
<path d="M49.5669 13.1863C49.3732 12.8731 48.9624 12.7763 48.6492 12.9698C48.3361 13.1634 48.2392 13.5743 48.4327 13.8874C48.6264 14.2006 49.0372 14.2974 49.3504 14.1039C49.6636 13.9103 49.7606 13.4994 49.5669 13.1863Z" fill="#D2A64F"/>
<path d="M14.6705 30.2031C15.089 30.2031 15.5125 30.0907 15.8937 29.8551C16.4239 29.5272 16.7945 29.0127 16.9377 28.4062C17.0807 27.7996 16.9792 27.1736 16.6514 26.6434C16.3235 26.1132 15.809 25.7426 15.2024 25.5994C14.5965 25.4562 13.9699 25.5579 13.4397 25.8857C12.9095 26.2136 12.5389 26.7281 12.3957 27.3346C12.2527 27.9412 12.3542 28.5672 12.682 29.0974C13.123 29.8104 13.8882 30.2031 14.6705 30.2031ZM13.6934 27.6409C13.7547 27.3809 13.9135 27.1604 14.1409 27.0197C14.3682 26.8792 14.6364 26.8356 14.8964 26.8971C15.1564 26.9584 15.3769 27.1172 15.5174 27.3446C15.6579 27.5717 15.7014 27.8401 15.64 28.0999C15.5787 28.3599 15.4199 28.5804 15.1925 28.7209C14.7237 29.0111 14.106 28.8651 13.816 28.3962C13.6755 28.1692 13.632 27.9009 13.6934 27.6409Z" fill="#D2A64F"/>
<path d="M39.3485 17.0976C39.7895 17.8104 40.5547 18.2031 41.3372 18.2031C41.7557 18.2031 42.1792 18.0907 42.5603 17.8551C43.0905 17.5272 43.4612 17.0127 43.6043 16.4062C43.7473 15.7996 43.6458 15.1736 43.318 14.6434C42.9902 14.1132 42.4757 13.7426 41.869 13.5994C41.2632 13.4562 40.6365 13.5579 40.1064 13.8857C39.5762 14.2136 39.2055 14.7281 39.0624 15.3346C38.9192 15.9414 39.0209 16.5674 39.3485 17.0976ZM40.36 15.6409C40.4213 15.3809 40.5802 15.1604 40.8075 15.0197C41.0348 14.8792 41.303 14.8354 41.563 14.8971C41.823 14.9584 42.0435 15.1172 42.184 15.3446C42.3245 15.5717 42.368 15.8401 42.3067 16.0999C42.2453 16.3599 42.0865 16.5804 41.8592 16.7209C41.3903 17.0109 40.7727 16.8652 40.4827 16.3962C40.3422 16.1692 40.2987 15.9009 40.36 15.6409Z" fill="#D2A64F"/>
</g>
<defs>
<filter id="filter0_b" x="-4" y="-4" width="68" height="68" filterUnits="userSpaceOnUse" color-interpolation-filters="sRGB">
<feFlood flood-opacity="0" result="BackgroundImageFix"/>
<feGaussianBlur in="BackgroundImage" stdDeviation="2"/>
<feComposite in2="SourceAlpha" operator="in" result="effect1_backgroundBlur"/>
<feBlend mode="normal" in="SourceGraphic" in2="effect1_backgroundBlur" result="shape"/>
</filter>
</defs>
</svg>
