<svg width="60" height="60" viewBox="0 0 60 60" fill="none" xmlns="http://www.w3.org/2000/svg">
<g filter="url(#filter0_b)">
<rect width="60" height="60" fill="white" fill-opacity="0.15"/>
<path d="M19.4714 25.1972C19.2111 24.9369 18.7891 24.9369 18.5287 25.1972L18.0001 25.7259L17.4714 25.1972C17.2111 24.9369 16.7891 24.9369 16.5287 25.1972C16.2684 25.4575 16.2684 25.8795 16.5287 26.1399L17.0574 26.6685L16.5287 27.1972C16.2684 27.4575 16.2684 27.8795 16.5287 28.1399C16.6589 28.27 16.8296 28.3352 17.0001 28.3352C17.1706 28.3352 17.3412 28.27 17.4714 28.1399L18.0001 27.6112L18.5287 28.1399C18.6589 28.27 18.8296 28.3352 19.0001 28.3352C19.1706 28.3352 19.3412 28.27 19.4714 28.1399C19.7317 27.8795 19.7317 27.4575 19.4714 27.1972L18.9427 26.6685L19.4714 26.1399C19.7319 25.8795 19.7319 25.4575 19.4714 25.1972Z" fill="#D2A64F"/>
<path d="M28.3337 17.0023C28.7018 17.0023 29.0003 16.7038 29.0003 16.3356C29.0003 15.9674 28.7018 15.6689 28.3337 15.6689C27.9655 15.6689 27.667 15.9674 27.667 16.3356C27.667 16.7038 27.9655 17.0023 28.3337 17.0023Z" fill="#D2A64F"/>
<path d="M16.9319 17.5387C17.2346 17.7002 17.5654 17.7822 17.8994 17.7822C18.0999 17.7822 18.3011 17.7528 18.4984 17.693C19.0238 17.5335 19.4561 17.1793 19.7153 16.695C19.9744 16.2107 20.0298 15.654 19.8703 15.1287C19.7108 14.6033 19.3566 14.171 18.8723 13.9118C18.3879 13.652 17.8313 13.5967 17.3059 13.7568C16.7806 13.9163 16.3483 14.2705 16.0891 14.7548C15.8299 15.2392 15.7746 15.7958 15.9341 16.3212C16.0934 16.8472 16.4476 17.2795 16.9319 17.5387ZM17.2646 15.3837C17.3558 15.2137 17.5074 15.0887 17.6923 15.0328C17.7613 15.012 17.8323 15.0015 17.9026 15.0015C18.0198 15.0015 18.1363 15.0302 18.2431 15.0875C18.4131 15.1787 18.5381 15.3303 18.5939 15.5152C18.6499 15.7 18.6304 15.8953 18.5393 16.066C18.4481 16.236 18.2964 16.361 18.1116 16.4168C17.9274 16.4722 17.7328 16.454 17.5608 16.3628C17.3908 16.2717 17.2658 16.1193 17.2099 15.9345C17.1541 15.7497 17.1734 15.5542 17.2646 15.3837Z" fill="#D2A64F"/>
<path d="M14.0002 44.333C14.5525 44.333 15.0002 43.8853 15.0002 43.333C15.0002 42.7807 14.5525 42.333 14.0002 42.333C13.448 42.333 13.0002 42.7807 13.0002 43.333C13.0002 43.8853 13.448 44.333 14.0002 44.333Z" fill="#D2A64F"/>
<path d="M50.3335 45.0011H47.0001V37.6678C47.0001 37.2993 46.702 37.0011 46.3335 37.0011H44.8895L42.465 23.6678H43.6668C44.0353 23.6678 44.3335 23.3696 44.3335 23.0011V21.0011C44.3335 20.7303 44.171 20.5 43.9393 20.3955L45.6245 15.9021C45.7013 15.6971 45.6726 15.468 45.5483 15.2881C45.4233 15.1085 45.2188 15.001 45.0001 15.001H43.0001C42.7221 15.001 42.4735 15.1735 42.3758 15.4333L40.538 20.3343H34.3335C33.965 20.3343 33.6668 20.6325 33.6668 21.001V22.3343H29.6668C28.564 22.3343 27.6668 23.2315 27.6668 24.3343C27.6668 25.4371 28.564 26.3343 29.6668 26.3343C30.0353 26.3343 30.3335 26.0361 30.3335 25.6676C30.3335 25.2991 30.0353 25.001 29.6668 25.001C29.299 25.001 29.0001 24.7021 29.0001 24.3343C29.0001 23.9665 29.299 23.6676 29.6668 23.6676H37.1106L39.5348 37.001H37.6668C37.2983 37.001 37.0001 37.2991 37.0001 37.6676V38.3343H15.6668C15.2983 38.3343 15.0001 38.6325 15.0001 39.001V40.3343H14.0001C12.3458 40.3343 11.0001 41.68 11.0001 43.3343C11.0001 43.9508 11.1878 44.5238 11.508 45.001H9.66679C9.29829 45.001 9.00012 45.2991 9.00012 45.6676C9.00012 46.0361 9.29829 46.3343 9.66679 46.3343H50.3335C50.702 46.3343 51.0001 46.0361 51.0001 45.6676C51.0001 45.2991 50.702 45.0011 50.3335 45.0011ZM43.4623 16.3345H44.0378L42.5376 20.3345H41.9623L43.4623 16.3345ZM35.0001 22.3345V21.6678H43.0001V22.3345H35.0001ZM38.4653 23.6678H41.1105L43.535 37.0011H40.8895L38.4653 23.6678ZM38.3335 38.3345H45.6668V40.3345H38.3335V39.0011V38.3345ZM37.0001 39.6678V40.3345H16.3335V39.6678H37.0001ZM14.0001 45.0011C13.0808 45.0011 12.3335 44.2538 12.3335 43.3345C12.3335 42.4151 13.0808 41.6678 14.0001 41.6678H45.6668V45.0011H14.0001Z" fill="#D2A64F"/>
</g>
<defs>
<filter id="filter0_b" x="-4" y="-4" width="68" height="68" filterUnits="userSpaceOnUse" color-interpolation-filters="sRGB">
<feFlood flood-opacity="0" result="BackgroundImageFix"/>
<feGaussianBlur in="BackgroundImage" stdDeviation="2"/>
<feComposite in2="SourceAlpha" operator="in" result="effect1_backgroundBlur"/>
<feBlend mode="normal" in="SourceGraphic" in2="effect1_backgroundBlur" result="shape"/>
</filter>
</defs>
</svg>
