<svg width="32" height="42" viewBox="0 0 32 42" fill="none" xmlns="http://www.w3.org/2000/svg">
<path d="M1.06803 13.0003C1.43622 13.0003 1.7347 12.7018 1.7347 12.3337C1.7347 11.9655 1.43622 11.667 1.06803 11.667C0.699843 11.667 0.401367 11.9655 0.401367 12.3337C0.401367 12.7018 0.699843 13.0003 1.06803 13.0003Z" fill="#D2A64F"/>
<path d="M10.4291 35.4229C9.90244 35.2627 9.34644 35.318 8.86278 35.5779C8.37844 35.837 8.02428 36.2692 7.86478 36.7947C7.70528 37.3202 7.76061 37.8767 8.01978 38.361C8.27894 38.8454 8.71111 39.1995 9.23661 39.359C9.43394 39.4189 9.63511 39.4482 9.83561 39.4482C10.1696 39.4482 10.5003 39.3662 10.8031 39.2047C11.2874 38.9455 11.6416 38.5134 11.8011 37.9872C11.9606 37.4619 11.9053 36.9052 11.6461 36.4209C11.3869 35.9365 10.9544 35.5824 10.4291 35.4229ZM10.5248 37.6005C10.4688 37.7854 10.3438 37.9377 10.1739 38.0289C10.0028 38.12 9.80811 38.1382 9.62311 38.0829C9.43828 38.0269 9.28644 37.9019 9.19544 37.732C9.10428 37.5615 9.08478 37.3662 9.14078 37.1812C9.19678 36.9962 9.32178 36.8445 9.49161 36.7535C9.59844 36.6962 9.71494 36.6675 9.83211 36.6675C9.90244 36.6675 9.97344 36.6779 10.0424 36.6989C10.2273 36.7549 10.3791 36.8799 10.4701 37.0497C10.5613 37.2204 10.5808 37.4157 10.5248 37.6005Z" fill="#D2A64F"/>
<path d="M31.0931 38.7065C29.7168 38.3609 28.3346 37.5418 27.2988 36.4585C26.2948 35.4103 25.6148 34.2715 25.2568 33.591C26.0519 33.3467 26.8246 33.0842 27.3158 32.9122C27.7851 33.6655 28.7871 35.0202 30.1518 35.4747C30.2221 35.4982 30.2931 35.5092 30.3628 35.5092C30.6421 35.5092 30.9024 35.3327 30.9949 35.0535C31.1114 34.7038 30.9226 34.3263 30.5738 34.2104C29.4443 33.834 28.4866 32.3419 28.2131 31.7988C28.0614 31.4968 27.7079 31.3548 27.3896 31.4713C27.3636 31.4805 24.7861 32.4153 23.2503 32.761C21.5381 33.1315 17.1553 33.9068 13.4893 33.095C11.0179 32.5468 7.92092 30.9225 4.28675 28.2688C3.94108 28.0143 3.40392 27.8085 2.92992 27.6275C2.73008 27.5507 2.45592 27.4458 2.40258 27.4147C2.37725 27.3952 2.36475 27.3678 2.36475 27.3327V26.0612C2.38758 24.9967 6.00142 7.54618 6.59008 5.64451C6.60758 5.63151 6.63308 5.61585 6.65525 5.60551L14.9254 1.82618L17.5661 5.26501C17.6669 5.40435 17.6593 5.59635 17.5473 5.72201L14.8728 8.71751C14.7464 8.86001 14.5231 8.87501 14.3956 8.76835L13.3161 7.77551C13.1586 7.63035 12.9418 7.56201 12.7361 7.60435C12.5258 7.64735 12.3546 7.77951 12.2668 7.97485C12.1034 8.19951 11.1021 8.53285 10.1659 8.67335C9.89642 8.71435 9.67825 8.91485 9.61575 9.18051C9.55392 9.44551 9.65875 9.72218 9.88208 9.87901L10.2889 10.1642L11.5466 19.6297C11.1434 20.1492 10.7989 20.7227 10.5343 21.3483C10.3911 21.6875 10.5493 22.0788 10.8884 22.222C10.9731 22.2578 11.0616 22.2747 11.1483 22.2747C11.4081 22.2747 11.6548 22.1223 11.7623 21.8678C12.7559 19.5177 15.0463 17.9995 17.5978 17.9995C20.0268 17.9995 22.2723 19.4168 23.3184 21.6108C23.4759 21.9422 23.8738 22.0855 24.2071 21.9253C24.5391 21.7672 24.6804 21.3693 24.5216 21.0367C24.1848 20.3305 23.7429 19.6935 23.2239 19.1348C24.3191 17.6077 26.2063 16.6662 28.2644 16.6662C29.1076 16.6662 29.9226 16.8185 30.6869 17.12C31.0281 17.2528 31.4161 17.0868 31.5516 16.7437C31.6864 16.4012 31.5184 16.0145 31.1753 15.879C30.2553 15.5163 29.2756 15.3328 28.2644 15.3328C25.8328 15.3328 23.5858 16.4362 22.2299 18.2357C20.9173 17.241 19.2956 16.6662 17.5978 16.6662C15.7793 16.6662 14.0731 17.3073 12.7294 18.4123L11.5763 9.73385C12.0313 9.60435 12.5046 9.42518 12.8751 9.18118L13.5144 9.76901C14.2228 10.3647 15.2566 10.2925 15.8686 9.60368L18.5424 6.60951C19.0691 6.01768 19.1114 5.12185 18.6329 4.46635L15.6596 0.593347C15.4701 0.34668 15.1349 0.264514 14.8536 0.393514L6.11525 4.38701C6.01375 4.43001 5.49875 4.67351 5.33792 5.18318C4.87375 6.58235 1.03125 24.7235 1.03125 26.0595V27.3328C1.03125 27.7788 1.23108 28.1908 1.57492 28.4605C1.74808 28.5992 1.99542 28.6975 2.45325 28.8727C2.80875 29.0087 3.29575 29.1957 3.49825 29.3447C7.28408 32.109 10.5484 33.8088 13.2008 34.3973C16.9833 35.2345 21.2971 34.5477 23.5379 34.0633C23.6686 34.0338 23.8078 33.9993 23.9489 33.9633C24.3238 34.716 25.1041 36.094 26.3361 37.3797C27.4143 38.5085 28.8224 39.392 30.2644 39.855V40.9995C30.2644 41.368 30.5626 41.6662 30.9311 41.6662C31.2996 41.6662 31.5978 41.368 31.5978 40.9995V39.353C31.5978 39.0477 31.3899 38.7807 31.0931 38.7065Z" fill="#D2A64F"/>
<path d="M19.4669 30.6797C13.4266 31.8847 11.6004 28.5085 11.5274 28.3685C11.4402 28.1947 11.2812 28.067 11.0926 28.0202L8.42591 27.3535C8.06907 27.263 7.70657 27.4805 7.61791 27.8385C7.52807 28.1954 7.74557 28.5572 8.10291 28.6465L10.5001 29.2462C11.0247 30.0522 12.8477 32.2755 16.9929 32.2755C17.8113 32.2755 18.7208 32.1888 19.7286 31.9872C20.0893 31.9148 20.3236 31.564 20.2514 31.2027C20.1799 30.8418 19.8316 30.6035 19.4669 30.6797Z" fill="#D2A64F"/>
<path d="M21.5109 22.3382C21.3924 22.1292 21.1711 22.0004 20.9309 22.0004H18.9309V19.3337C18.9309 19.04 18.7389 18.781 18.4575 18.6957C18.1775 18.6104 17.8722 18.7199 17.7095 18.9639L13.7095 24.9639C13.5735 25.1684 13.5604 25.4314 13.6764 25.648C13.7924 25.8647 14.0182 26.0002 14.2642 26.0002H16.2642V29.3335C16.2642 29.633 16.464 29.896 16.7532 29.976C16.8119 29.9924 16.8717 30.0002 16.9309 30.0002C17.1607 30.0002 17.38 29.881 17.5025 29.6767L21.5026 23.01C21.6261 22.8044 21.6294 22.5479 21.5109 22.3382ZM17.5975 26.9267V25.3337C17.5975 24.9652 17.2994 24.667 16.9309 24.667H15.5097L17.5975 21.5355V22.667C17.5975 23.0355 17.8957 23.3337 18.2642 23.3337H19.7532L17.5975 26.9267Z" fill="#D2A64F"/>
</svg>
