<svg width="34" height="38" viewBox="0 0 34 38" fill="none" xmlns="http://www.w3.org/2000/svg">
<path d="M33.3332 18.6654C33.7014 18.6654 33.9999 18.3669 33.9999 17.9987C33.9999 17.6305 33.7014 17.332 33.3332 17.332C32.965 17.332 32.6665 17.6305 32.6665 17.9987C32.6665 18.3669 32.965 18.6654 33.3332 18.6654Z" fill="#D2A64F"/>
<path d="M26.4714 21.5283C26.2111 21.2679 25.7891 21.2679 25.5287 21.5283L25.0001 22.0569L24.4714 21.5283C24.2111 21.2679 23.7891 21.2679 23.5287 21.5283C23.2684 21.7886 23.2684 22.2106 23.5287 22.4709L24.0574 22.9996L23.5287 23.5283C23.2684 23.7886 23.2684 24.2106 23.5287 24.4709C23.6589 24.6011 23.8296 24.6663 24.0001 24.6663C24.1706 24.6663 24.3412 24.6011 24.4714 24.4709L25.0001 23.9423L25.5287 24.4709C25.6589 24.6011 25.8296 24.6663 26.0001 24.6663C26.1706 24.6663 26.3412 24.6011 26.4714 24.4709C26.7317 24.2106 26.7317 23.7886 26.4714 23.5283L25.9427 22.9996L26.4714 22.4709C26.7319 22.2106 26.7319 21.7886 26.4714 21.5283Z" fill="#D2A64F"/>
<path d="M2.33333 23.3311C1.04683 23.3311 0 24.3779 0 25.6644C0 26.9509 1.04683 27.9977 2.33333 27.9977C3.61983 27.9977 4.66667 26.9509 4.66667 25.6644C4.66667 24.3779 3.61983 23.3311 2.33333 23.3311ZM2.33333 26.6644C1.78183 26.6644 1.33333 26.2159 1.33333 25.6644C1.33333 25.1129 1.78183 24.6644 2.33333 24.6644C2.88483 24.6644 3.33333 25.1129 3.33333 25.6644C3.33333 26.2159 2.88483 26.6644 2.33333 26.6644Z" fill="#D2A64F"/>
<path d="M15.3332 19.332C14.9647 19.332 14.6665 19.6302 14.6665 19.9987V21.9987C14.6665 22.3672 14.9647 22.6654 15.3332 22.6654C15.7017 22.6654 15.9998 22.3672 15.9998 21.9987V19.9987C15.9998 19.6302 15.7017 19.332 15.3332 19.332Z" fill="#D2A64F"/>
<path d="M24.3332 0.665039C22.3117 0.665039 20.6665 2.31021 20.6665 4.33171C20.6665 6.24071 22.1342 7.81221 23.9998 7.98137V11.4592L18.8923 11.9984H18.6665V6.66504V5.54721C18.6665 4.32587 17.6723 3.33171 16.451 3.33171H11.3332C10.9647 3.33171 10.6665 3.62987 10.6665 3.99837C10.6665 5.08437 11.1963 6.04154 12.0028 6.65037C12.0027 6.65554 11.9998 6.65987 11.9998 6.66504V9.87271C11.9998 10.6779 12.2877 11.41 12.7505 11.9984H11.8363L6.72884 11.4594V7.97604C8.565 7.77787 9.99984 6.21937 9.99984 4.33171C9.99984 2.31021 8.35467 0.665039 6.33317 0.665039C4.31167 0.665039 2.6665 2.31021 2.6665 4.33171C2.6665 5.07621 2.891 5.76871 3.27384 6.34771L2.729 13.9984C2.729 14.5739 2.97767 15.1227 3.41067 15.5029C3.48234 15.566 3.56634 15.6129 3.65734 15.6402L8.787 17.196L10.6457 24.012L8.6835 32.5154C8.638 32.7134 8.68484 32.921 8.81184 33.0799C8.93817 33.2394 9.13017 33.3319 9.33334 33.3319V36.6652C9.33334 37.0337 9.6315 37.3319 10 37.3319C10.3685 37.3319 10.6667 37.0337 10.6667 36.6652V33.3319H13.2132L12.6757 36.5559C12.6152 36.9185 12.8605 37.2622 13.2238 37.3229C13.261 37.3294 13.2973 37.332 13.3338 37.332C13.6542 37.332 13.9367 37.1009 13.9907 36.7747L14.5673 33.315C14.8262 33.2745 15.0443 33.0929 15.1117 32.8332L15.333 31.9817L15.5543 32.8332C15.6217 33.093 15.84 33.2744 16.0988 33.315L16.6755 36.7747C16.7295 37.1009 17.0122 37.332 17.3323 37.332C17.3688 37.332 17.4053 37.3294 17.4423 37.3229C17.8057 37.2624 18.051 36.9192 17.9905 36.5559L17.4533 33.3317H19.9998V36.665C19.9998 37.0335 20.298 37.3317 20.6665 37.3317C21.035 37.3317 21.3332 37.0335 21.3332 36.665V33.3317C21.5363 33.3317 21.7283 33.2392 21.8547 33.0797C21.9817 32.9209 22.0285 32.7132 21.983 32.5152L20.0208 24.0119L21.8792 17.1969L27.069 15.6407C27.1608 15.6134 27.2455 15.5665 27.317 15.5034C27.7512 15.1232 28 14.5744 27.998 13.9507L27.4482 6.25621C27.7955 5.69604 27.9998 5.03804 27.9998 4.33171C27.9998 2.31021 26.3547 0.665039 24.3332 0.665039ZM21.9998 4.33171C21.9998 3.04521 23.0467 1.99837 24.3332 1.99837C25.6197 1.99837 26.6665 3.04521 26.6665 4.33171C26.6665 5.61821 25.6197 6.66504 24.3332 6.66504C23.0467 6.66504 21.9998 5.61821 21.9998 4.33171ZM16.451 4.66504C16.9373 4.66504 17.3332 5.06087 17.3332 5.54721V5.99837H13.9998C13.1307 5.99837 12.3892 5.44104 12.1138 4.66504H16.451ZM13.3332 9.87271V7.33171H17.3332V11.9984H15.4588C14.287 11.9984 13.3332 11.0445 13.3332 9.87271ZM6.33317 1.99837C7.61967 1.99837 8.6665 3.04521 8.6665 4.33171C8.6665 5.61821 7.61967 6.66504 6.33317 6.66504C5.04667 6.66504 3.99984 5.61821 3.99984 4.33171C3.99984 3.04521 5.04667 1.99837 6.33317 1.99837ZM20.4953 31.9984H16.7153L15.9783 29.1637C15.9022 28.87 15.6365 28.665 15.3332 28.665C15.0298 28.665 14.7642 28.87 14.688 29.1637L13.951 31.9984H10.171L11.8635 24.665H18.8027L20.4953 31.9984ZM18.824 23.3317H11.8423L10.3687 17.9282L11.7017 18.5947C11.7942 18.6409 11.8963 18.665 11.9998 18.665H18.6665C18.77 18.665 18.8722 18.6409 18.9647 18.5947L20.2977 17.928L18.824 23.3317ZM26.522 14.413L21.1418 16.0264C21.1047 16.0374 21.0695 16.0517 21.035 16.0687L18.509 17.3317H15.9998V15.9984C15.9998 15.6299 15.7017 15.3317 15.3332 15.3317C14.9647 15.3317 14.6665 15.6299 14.6665 15.9984V17.3317H12.1573L9.63134 16.0687C9.5975 16.0517 9.56234 16.038 9.5265 16.027L4.20684 14.4137C4.11367 14.2979 4.06167 14.1599 4.06034 14.0459L4.5265 7.51837C4.79667 7.67221 5.08834 7.79087 5.39567 7.87237V12.0597C5.39567 12.4009 5.6535 12.6867 5.99267 12.7225L11.7317 13.328C11.7545 13.3307 11.7778 13.3319 11.8013 13.3319H18.9277C18.9512 13.3319 18.9745 13.3305 18.9973 13.328L24.7363 12.7225C25.0755 12.6867 25.3333 12.4009 25.3333 12.0597V7.85604C25.6407 7.76871 25.9308 7.64187 26.1998 7.48187L26.6665 13.9984C26.6665 14.15 26.615 14.2959 26.522 14.413Z" fill="#D2A64F"/>
</svg>
