<svg width="60" height="60" viewBox="0 0 60 60" fill="none" xmlns="http://www.w3.org/2000/svg">
<g filter="url(#filter0_b)">
<rect width="60" height="60" fill="white" fill-opacity="0.15"/>
<path d="M46.277 24.8769L42.8679 21.468L42.9802 20.9964L46.708 19.8935C46.9912 19.8099 47.1859 19.5495 47.1859 19.2542C47.1859 18.9589 46.9912 18.6985 46.708 18.6149L42.9802 17.512L42.1677 14.0999C42.096 13.7994 41.8279 13.5875 41.5192 13.5875C41.2105 13.5875 40.9424 13.7994 40.8707 14.0999L40.0589 17.512L39.1739 17.7739L33.8492 12.4499C32.8649 11.4652 31.5555 10.9229 30.1637 10.9229C28.7712 10.9229 27.4625 11.4652 26.4782 12.4499L14.0505 24.8769C12.018 26.909 12.018 30.2164 14.0505 32.2485L14.6729 32.8708L13.941 35.4682C13.5569 37.4907 11.2074 40.9682 11.1839 41.003C11.0042 41.2677 11.0374 41.6229 11.2639 41.849L18.6559 49.241C18.7847 49.3699 18.9554 49.4364 19.1272 49.4364C19.2522 49.4364 19.3785 49.4012 19.4892 49.3292L23.4612 46.7582C24.4812 46.0979 25.4577 45.3687 26.3927 44.5904L26.478 44.6755C27.4624 45.6602 28.771 46.2022 30.1635 46.2022C31.5555 46.2022 32.8647 45.6602 33.849 44.6755L46.2767 32.2485C48.3089 30.216 48.3089 26.9094 46.277 24.8769ZM40.8069 18.6812C41.036 18.6135 41.2112 18.4285 41.2665 18.1962L41.5192 17.134L41.7725 18.1962C41.8279 18.4287 42.003 18.6135 42.2322 18.6812L44.169 19.2542L42.2322 19.8272C42.003 19.8949 41.8279 20.0799 41.7725 20.3122L41.5192 21.3744L41.2665 20.3122C41.2112 20.0797 41.036 19.8949 40.8069 19.8272L38.87 19.2542L40.8069 18.6812ZM22.7365 45.6392L19.2177 47.9172L12.5907 41.2902C13.2769 40.2242 14.8994 37.5652 15.2379 35.7735L18.0804 25.6844C18.1917 25.0997 18.7105 24.698 19.3147 24.7574C19.6227 24.7867 19.9 24.935 20.0954 25.1754C20.2835 25.4065 20.3727 25.6949 20.348 25.9905L19.0225 31.7347C18.9562 32.0247 19.0889 32.3235 19.3494 32.4677C19.6079 32.6119 19.9327 32.5667 20.1437 32.356L29.7147 22.7854C30.0877 22.4127 30.7342 22.4139 31.106 22.7854C31.2915 22.9712 31.3944 23.2184 31.3944 23.481C31.3944 23.744 31.2915 23.9912 31.106 24.177C31.106 24.177 31.106 24.1772 31.1059 24.1772L24.0644 31.219C23.804 31.4794 23.804 31.9014 24.0644 32.1617C24.3247 32.422 24.7467 32.422 25.007 32.1617L33.994 23.1744C34.3782 22.7909 35.0019 22.7909 35.386 23.1744C35.5715 23.3602 35.6739 23.6074 35.6739 23.8704C35.6739 24.133 35.5717 24.3802 35.386 24.566L33.037 26.9149C33.0367 26.9152 33.0362 26.9155 33.0357 26.9159L26.3984 33.5532C26.138 33.8135 26.138 34.2355 26.3984 34.4958C26.5285 34.626 26.6992 34.6912 26.8697 34.6912C27.0402 34.6912 27.2109 34.626 27.341 34.4958L33.9792 27.858C34.3712 27.4667 35.0087 27.4669 35.4017 27.8585C35.7937 28.2509 35.7937 28.8895 35.4017 29.2817L33.4877 31.1957L28.4064 36.2767C28.146 36.537 28.146 36.959 28.4064 37.2194C28.6667 37.4797 29.0887 37.4797 29.349 37.2194L29.7062 36.8622C29.7065 36.8619 29.7069 36.8619 29.707 36.8615L34.4304 32.1382C34.793 31.7752 35.4265 31.7742 35.7904 32.1385C35.972 32.3199 36.0722 32.5614 36.0722 32.8182C36.0722 33.075 35.9719 33.3165 35.7904 33.4982L27.509 41.7797C26.0609 43.2277 24.4554 44.5262 22.7365 45.6392ZM45.3342 31.3059L32.9065 43.7328C32.1735 44.4655 31.1995 44.8689 30.1637 44.8689C29.1272 44.8689 28.1534 44.4655 27.4209 43.7325L27.4044 43.716C27.7605 43.3922 28.1115 43.0629 28.4515 42.7227L36.7329 34.4412C37.1665 34.0075 37.4054 33.4314 37.4054 32.8185C37.4054 32.2052 37.1664 31.629 36.7329 31.1962C36.4924 30.9552 36.2 30.7882 35.8877 30.681L36.3442 30.2245C37.2564 29.3124 37.2564 27.828 36.3442 26.9155C36.0884 26.6602 35.7857 26.484 35.4654 26.3719L36.3285 25.5087C36.766 25.0712 37.0069 24.4892 37.0069 23.8704C37.0069 23.2512 36.766 22.6692 36.3285 22.2314C35.4229 21.3274 33.9542 21.329 33.0512 22.2317L32.5837 22.6992C32.472 22.3869 32.2984 22.0922 32.0487 21.8427C31.1744 20.9674 29.6477 20.966 28.772 21.8427L20.845 29.7697L21.6575 26.2485C21.6634 26.2232 21.6674 26.1977 21.6705 26.1724C21.744 25.5067 21.5527 24.854 21.1302 24.3342C20.7077 23.8147 20.108 23.4934 19.4414 23.4299C18.1549 23.3087 17.011 24.17 16.7839 25.379L15.0877 31.3999L14.9935 31.3057C13.4812 29.793 13.4812 27.332 14.9935 25.8194L27.4212 13.3924C28.1537 12.6597 29.1275 12.256 30.164 12.256C31.1999 12.256 32.1739 12.6597 32.9069 13.3924L37.719 18.204L36.3307 18.6147C36.0475 18.6984 35.8529 18.9587 35.8529 19.254C35.8529 19.5494 36.0475 19.8097 36.3307 19.8934L40.0592 20.9962L40.871 24.4084C40.9427 24.7089 41.2109 24.9207 41.5195 24.9207C41.8282 24.9207 42.0964 24.7089 42.168 24.4084L42.5055 22.9907L45.3347 25.8195C46.846 27.3322 46.846 29.7932 45.3342 31.3059Z" fill="#D2A64F"/>
<path d="M14.8303 13.2301C15.1988 13.2301 15.497 12.9316 15.497 12.5635V11.2301C15.497 10.862 15.1988 10.5635 14.8303 10.5635C14.4618 10.5635 14.1636 10.862 14.1636 11.2301V12.5635C14.1636 12.9316 14.4618 13.2301 14.8303 13.2301Z" fill="#D2A64F"/>
<path d="M14.8303 14.5635C14.4618 14.5635 14.1636 14.862 14.1636 15.2301V16.5635C14.1636 16.9316 14.4618 17.2301 14.8303 17.2301C15.1988 17.2301 15.497 16.9316 15.497 16.5635V15.2301C15.497 14.862 15.1988 14.5635 14.8303 14.5635Z" fill="#D2A64F"/>
<path d="M12.1636 14.5638H13.4969C13.8654 14.5638 14.1636 14.2653 14.1636 13.8971C14.1636 13.529 13.8654 13.2305 13.4969 13.2305H12.1636C11.7951 13.2305 11.4969 13.529 11.4969 13.8971C11.4969 14.2653 11.7951 14.5638 12.1636 14.5638Z" fill="#D2A64F"/>
<path d="M16.1637 14.5638H17.497C17.8655 14.5638 18.1637 14.2653 18.1637 13.8971C18.1637 13.529 17.8655 13.2305 17.497 13.2305H16.1637C15.7952 13.2305 15.497 13.529 15.497 13.8971C15.497 14.2653 15.7952 14.5638 16.1637 14.5638Z" fill="#D2A64F"/>
<path d="M43.1638 43.2295C41.8773 43.2295 40.8305 44.2763 40.8305 45.5628C40.8305 46.8493 41.8773 47.8961 43.1638 47.8961C44.4503 47.8961 45.4972 46.8493 45.4972 45.5628C45.4972 44.2763 44.4503 43.2295 43.1638 43.2295ZM43.1638 46.5628C42.6123 46.5628 42.1638 46.1143 42.1638 45.5628C42.1638 45.0113 42.6123 44.5628 43.1638 44.5628C43.7153 44.5628 44.1638 45.0113 44.1638 45.5628C44.1638 46.1143 43.7152 46.5628 43.1638 46.5628Z" fill="#D2A64F"/>
<path d="M48.2185 38.916C47.8248 38.916 47.5058 39.2352 47.5058 39.6287C47.5058 40.0224 47.8248 40.3415 48.2185 40.3415C48.6121 40.3415 48.9311 40.0224 48.9311 39.6287C48.9313 39.235 48.6121 38.916 48.2185 38.916Z" fill="#D2A64F"/>
</g>
<defs>
<filter id="filter0_b" x="-4" y="-4" width="68" height="68" filterUnits="userSpaceOnUse" color-interpolation-filters="sRGB">
<feFlood flood-opacity="0" result="BackgroundImageFix"/>
<feGaussianBlur in="BackgroundImage" stdDeviation="2"/>
<feComposite in2="SourceAlpha" operator="in" result="effect1_backgroundBlur"/>
<feBlend mode="normal" in="SourceGraphic" in2="effect1_backgroundBlur" result="shape"/>
</filter>
</defs>
</svg>
