<svg width="50" height="50" viewBox="0 0 50 50" fill="none" xmlns="http://www.w3.org/2000/svg">
<path d="M41.0003 31.667C41.0003 29.0938 38.9068 27.0003 36.3337 27.0003H35.4155C36.3895 26.0932 37.0003 24.8007 37.0003 23.3677V23.2997C37.0003 21.3343 35.8528 19.6323 34.1927 18.8278C35.1365 18.0955 35.7455 16.9513 35.7455 15.667C35.7455 13.4613 33.9512 11.667 31.7455 11.667H23.667C21.4613 11.667 19.667 13.4613 19.667 15.667C19.667 16.7522 20.102 17.7372 20.806 18.4585C18.5968 18.9615 16.9425 20.9403 16.9425 23.2997V23.3677C16.9425 26.0505 19.0812 28.2417 21.7432 28.3295C20.8745 29.1775 20.3337 30.36 20.3337 31.667C20.3337 32.9718 20.8727 34.1527 21.7388 35.0003H18.667C15.91 35.0003 13.667 37.2433 13.667 40.0003C13.667 42.7573 15.91 45.0003 18.667 45.0003H36.0003C38.7573 45.0003 41.0003 42.7573 41.0003 40.0003C41.0003 38.1995 40.0432 36.6185 38.611 35.738C40.0353 34.9382 41.0003 33.4135 41.0003 31.667ZM23.667 13.0003H31.7455C33.2158 13.0003 34.4122 14.1967 34.4122 15.667C34.4122 17.1373 33.2158 18.3337 31.7455 18.3337H23.667C22.1967 18.3337 21.0003 17.1373 21.0003 15.667C21.0003 14.1967 22.1967 13.0003 23.667 13.0003ZM21.9085 27.0003C19.9055 27.0003 18.2758 25.3707 18.2758 23.3677V23.2997C18.2758 21.2967 19.9055 19.667 21.9085 19.667H32.0343C34.0373 19.667 35.6668 21.2967 35.6668 23.2997V23.3677C35.6668 25.3707 34.0373 27.0003 32.0343 27.0003H21.9085ZM39.667 40.0003C39.667 42.0222 38.0222 43.667 36.0003 43.667H18.667C16.6452 43.667 15.0003 42.0222 15.0003 40.0003C15.0003 37.9785 16.6452 36.3337 18.667 36.3337H35.8722H36.0003C38.0222 36.3337 39.667 37.9785 39.667 40.0003ZM36.3337 35.0003H25.0003C23.1623 35.0003 21.667 33.505 21.667 31.667C21.667 29.829 23.1623 28.3337 25.0003 28.3337H36.3337C38.1717 28.3337 39.667 29.829 39.667 31.667C39.667 33.505 38.1717 35.0003 36.3337 35.0003Z" fill="#D2A64F"/>
<path d="M34.3327 23.3337C34.3327 22.9655 34.0342 22.667 33.666 22.667C33.2979 22.667 32.9994 22.9655 32.9994 23.3337C32.9994 24.2527 32.2517 25.0003 31.3327 25.0003C30.9645 25.0003 30.666 25.2988 30.666 25.667C30.666 26.0352 30.9645 26.3337 31.3327 26.3337C32.9869 26.3337 34.3327 24.9878 34.3327 23.3337Z" fill="#D2A64F"/>
<path d="M18.6666 37.4678C17.2701 37.4678 16.1338 38.6039 16.1338 40.0006C16.1338 40.3688 16.4323 40.6673 16.8005 40.6673C17.1686 40.6673 17.4671 40.3688 17.4671 40.0006C17.4671 39.3393 18.0053 38.8011 18.6666 38.8011C19.0348 38.8011 19.3333 38.5026 19.3333 38.1344C19.3333 37.7663 19.0348 37.4678 18.6666 37.4678Z" fill="#D2A64F"/>
<path d="M10.3337 22.333C9.96549 22.333 9.66699 22.6315 9.66699 22.9997V24.9997C9.66699 25.3678 9.96549 25.6663 10.3337 25.6663C10.7018 25.6663 11.0003 25.3678 11.0003 24.9997V22.9997C11.0003 22.6315 10.7018 22.333 10.3337 22.333Z" fill="#D2A64F"/>
<path d="M10.3337 27C9.96549 27 9.66699 27.2985 9.66699 27.6667V29.6667C9.66699 30.0348 9.96549 30.3333 10.3337 30.3333C10.7018 30.3333 11.0003 30.0348 11.0003 29.6667V27.6667C11.0003 27.2985 10.7018 27 10.3337 27Z" fill="#D2A64F"/>
<path d="M8.99968 25.667H6.99968C6.63151 25.667 6.33301 25.9655 6.33301 26.3337C6.33301 26.7018 6.63151 27.0003 6.99968 27.0003H8.99968C9.36784 27.0003 9.66634 26.7018 9.66634 26.3337C9.66634 25.9655 9.36784 25.667 8.99968 25.667Z" fill="#D2A64F"/>
<path d="M14.3333 26.3337C14.3333 25.9655 14.0348 25.667 13.6667 25.667H11.6667C11.2985 25.667 11 25.9655 11 26.3337C11 26.7018 11.2985 27.0003 11.6667 27.0003H13.6667C14.0348 27.0003 14.3333 26.7018 14.3333 26.3337Z" fill="#D2A64F"/>
<path d="M39.6667 8.33334C40.0348 8.33334 40.3334 8.03484 40.3334 7.66667V5.66667C40.3334 5.2985 40.0348 5 39.6667 5C39.2985 5 39 5.2985 39 5.66667V7.66667C39 8.03484 39.2985 8.33334 39.6667 8.33334Z" fill="#D2A64F"/>
<path d="M39.6667 9.66699C39.2985 9.66699 39 9.96549 39 10.3337V12.3337C39 12.7018 39.2985 13.0003 39.6667 13.0003C40.0348 13.0003 40.3334 12.7018 40.3334 12.3337V10.3337C40.3334 9.96549 40.0348 9.66699 39.6667 9.66699Z" fill="#D2A64F"/>
<path d="M36.3337 9.66634H38.3337C38.7018 9.66634 39.0003 9.36784 39.0003 8.99967C39.0003 8.63151 38.7018 8.33301 38.3337 8.33301H36.3337C35.9655 8.33301 35.667 8.63151 35.667 8.99967C35.667 9.36784 35.9655 9.66634 36.3337 9.66634Z" fill="#D2A64F"/>
<path d="M42.9997 8.33301H40.9997C40.6315 8.33301 40.333 8.63151 40.333 8.99967C40.333 9.36784 40.6315 9.66634 40.9997 9.66634H42.9997C43.3678 9.66634 43.6663 9.36784 43.6663 8.99967C43.6663 8.63151 43.3678 8.33301 42.9997 8.33301Z" fill="#D2A64F"/>
<path d="M16.9997 9.66634C17.3679 9.66634 17.6663 9.36786 17.6663 8.99967C17.6663 8.63148 17.3679 8.33301 16.9997 8.33301C16.6315 8.33301 16.333 8.63148 16.333 8.99967C16.333 9.36786 16.6315 9.66634 16.9997 9.66634Z" fill="#D2A64F"/>
<path d="M41.6667 21.6663C42.0349 21.6663 42.3333 21.3679 42.3333 20.9997C42.3333 20.6315 42.0349 20.333 41.6667 20.333C41.2985 20.333 41 20.6315 41 20.9997C41 21.3679 41.2985 21.6663 41.6667 21.6663Z" fill="#D2A64F"/>
<path d="M6.99967 39.6664C7.36786 39.6664 7.66634 39.3679 7.66634 38.9997C7.66634 38.6315 7.36786 38.333 6.99967 38.333C6.63148 38.333 6.33301 38.6315 6.33301 38.9997C6.33301 39.3679 6.63148 39.6664 6.99967 39.6664Z" fill="#D2A64F"/>
<path d="M9.33333 12.3337C10.62 12.3337 11.6667 11.287 11.6667 10.0003C11.6667 8.71366 10.62 7.66699 9.33333 7.66699C8.04667 7.66699 7 8.71366 7 10.0003C7 11.287 8.04667 12.3337 9.33333 12.3337ZM9.33333 9.00033C9.88483 9.00033 10.3333 9.44883 10.3333 10.0003C10.3333 10.5518 9.88483 11.0003 9.33333 11.0003C8.78183 11.0003 8.33333 10.5518 8.33333 10.0003C8.33333 9.44883 8.78183 9.00033 9.33333 9.00033Z" fill="#D2A64F"/>
</svg>
