<svg width="50" height="50" viewBox="0 0 50 50" fill="none" xmlns="http://www.w3.org/2000/svg">
<path d="M35.3813 21.9657H35.3337V20.6797V20.6324V14.8125C35.3337 9.60388 30.937 5.36621 25.5328 5.36621H23.801C18.397 5.36638 14.0003 9.60388 14.0003 14.8125V20.6324V20.6797V21.9667C12.1607 21.9769 10.667 23.4757 10.667 25.3177C10.667 27.166 12.1707 28.6697 14.019 28.6697H14.0245C14.2352 31.4654 15.8508 33.9719 18.3478 35.3115L18.7978 35.553C19.1937 35.7654 19.5973 35.9539 20.0068 36.1212V43.9659C20.0068 44.334 20.3053 44.6325 20.6735 44.6325H28.667C29.0352 44.6325 29.3337 44.334 29.3337 43.9659V36.1997C29.888 35.9835 30.4318 35.7282 30.9603 35.4309L31.1313 35.3345C33.5712 33.9619 35.14 31.4414 35.316 28.6699H35.3813C37.2297 28.6699 38.7333 27.1662 38.7333 25.3179C38.7333 23.4695 37.2297 21.9657 35.3813 21.9657ZM15.3337 14.8125C15.3337 10.339 19.1322 6.69954 23.8012 6.69954H25.533C30.202 6.69954 34.0005 10.339 34.0005 14.8125V19.921C32.5225 19.6234 28.5822 18.3634 22.1217 13.0382C21.4978 12.524 20.7427 12.2627 19.9897 12.2627C19.3775 12.2627 18.7667 12.4357 18.23 12.7862C17.381 13.3405 16.2233 14.2892 15.3337 15.7407V14.8125ZM12.0003 25.3177C12.0003 24.2109 12.8958 23.3102 14.0003 23.3V27.3354C12.8958 27.3252 12.0003 26.4245 12.0003 25.3177ZM28.0003 43.299H21.3403V36.5832C22.463 36.9022 23.6163 37.0617 24.7692 37.0617C25.8553 37.0617 26.9408 36.9194 28.0003 36.6367V43.299ZM30.4775 34.1724L30.3065 34.2687C26.9195 36.1742 22.8528 36.2152 19.4283 34.378L18.9783 34.1365C16.7302 32.9305 15.3337 30.5965 15.3337 28.0452C15.3337 28.0315 15.3305 28.0189 15.3297 28.0054C15.3305 27.9919 15.3337 27.9792 15.3337 27.9655V20.6795C15.3337 17.035 17.305 14.9825 18.9587 13.9024C19.6535 13.4485 20.6052 13.5164 21.2733 14.0669C28.198 19.7745 32.446 21.0072 34.0003 21.273V27.9655C34.0003 27.9719 34.002 27.9779 34.0022 27.9842C34.002 27.9905 34.0003 27.9964 34.0003 28.0029C34.0003 28.0277 34.005 28.0512 34.0077 28.0754C34.005 28.0995 34.0003 28.123 34.0003 28.1479C34.0003 30.6415 32.6505 32.9499 30.4775 34.1724ZM35.3813 27.3364H35.3337V23.299H35.3813C36.4945 23.299 37.4 24.2045 37.4 25.3177C37.4 26.4309 36.4945 27.3364 35.3813 27.3364Z" fill="#D2A64F"/>
<path d="M21.6375 18.0601C21.5464 18.0019 19.3777 16.6499 16.9052 18.1252C16.589 18.3139 16.4857 18.7232 16.6744 19.0394C16.7992 19.2486 17.0205 19.3646 17.2475 19.3646C17.3637 19.3646 17.4814 19.3342 17.5885 19.2704C19.3324 18.2297 20.8485 19.1399 20.922 19.1852C21.2319 19.3814 21.642 19.2902 21.8399 18.9811C22.0384 18.6707 21.9477 18.2586 21.6375 18.0601Z" fill="#D2A64F"/>
<path d="M21.0423 22.9239C20.7565 22.6915 20.3367 22.7349 20.1045 23.0205C19.8502 23.3332 19.4588 23.4987 19.0585 23.4632C18.7368 23.4347 18.4457 23.2825 18.2383 23.0349C18.002 22.7524 17.5815 22.715 17.2993 22.9515C17.017 23.1877 16.9797 23.6082 17.216 23.8905C17.6517 24.4112 18.2642 24.731 18.9405 24.7914C19.0162 24.798 19.0915 24.8014 19.1665 24.8014C19.928 24.8014 20.6528 24.4599 21.139 23.8619C21.3712 23.576 21.328 23.1562 21.0423 22.9239Z" fill="#D2A64F"/>
<path d="M31.7093 22.9239C31.4233 22.6915 31.0037 22.7349 30.7715 23.0205C30.5173 23.3332 30.1262 23.4987 29.7255 23.4632C29.4038 23.4347 29.1127 23.2825 28.9053 23.0349C28.6692 22.7524 28.2485 22.715 27.9663 22.9515C27.684 23.1877 27.6467 23.6082 27.883 23.8905C28.3187 24.4112 28.9312 24.731 29.6075 24.7914C29.6832 24.798 29.7585 24.8014 29.8335 24.8014C30.595 24.8014 31.3198 24.4599 31.806 23.8619C32.0382 23.576 31.995 23.1562 31.7093 22.9239Z" fill="#D2A64F"/>
<path d="M26.3763 28.924C26.0903 28.6915 25.6706 28.7348 25.4385 29.0207C25.1841 29.3333 24.7933 29.4987 24.3925 29.4633C24.0708 29.4348 23.7797 29.2827 23.5723 29.035C23.336 28.7525 22.9155 28.7153 22.6333 28.9517C22.351 29.1878 22.3137 29.6083 22.55 29.8907C22.9857 30.4113 23.5982 30.7312 24.2745 30.7915C24.3502 30.7982 24.4255 30.8015 24.5005 30.8015C25.262 30.8015 25.9868 30.46 26.473 29.862C26.7051 29.5762 26.662 29.1563 26.3763 28.924Z" fill="#D2A64F"/>
<path d="M24.3333 20.3804C24.746 20.3804 25.0806 20.0458 25.0806 19.6331C25.0806 19.2203 24.746 18.8857 24.3333 18.8857C23.9205 18.8857 23.5859 19.2203 23.5859 19.6331C23.5859 20.0458 23.9205 20.3804 24.3333 20.3804Z" fill="#D2A64F"/>
<path d="M40.6667 9.30013C41.0348 9.30013 41.3334 9.00163 41.3334 8.63347V6.63346C41.3334 6.2653 41.0348 5.9668 40.6667 5.9668C40.2985 5.9668 40 6.2653 40 6.63346V8.63347C40 9.00163 40.2985 9.30013 40.6667 9.30013Z" fill="#D2A64F"/>
<path d="M40.6667 10.6328C40.2985 10.6328 40 10.9313 40 11.2995V13.2995C40 13.6676 40.2985 13.9661 40.6667 13.9661C41.0348 13.9661 41.3334 13.6676 41.3334 13.2995V11.2995C41.3334 10.9313 41.0348 10.6328 40.6667 10.6328Z" fill="#D2A64F"/>
<path d="M37.3337 10.6331H39.3337C39.7018 10.6331 40.0003 10.3346 40.0003 9.96647C40.0003 9.5983 39.7018 9.2998 39.3337 9.2998H37.3337C36.9655 9.2998 36.667 9.5983 36.667 9.96647C36.667 10.3346 36.9655 10.6331 37.3337 10.6331Z" fill="#D2A64F"/>
<path d="M43.9997 9.2998H41.9997C41.6315 9.2998 41.333 9.5983 41.333 9.96647C41.333 10.3346 41.6315 10.6331 41.9997 10.6331H43.9997C44.3678 10.6331 44.6663 10.3346 44.6663 9.96647C44.6663 9.5983 44.3678 9.2998 43.9997 9.2998Z" fill="#D2A64F"/>
<path d="M9.33366 33.9658C8.96549 33.9658 8.66699 34.2643 8.66699 34.6325V36.6325C8.66699 37.0007 8.96549 37.2992 9.33366 37.2992C9.70182 37.2992 10.0003 37.0007 10.0003 36.6325V34.6325C10.0003 34.2643 9.70182 33.9658 9.33366 33.9658Z" fill="#D2A64F"/>
<path d="M9.33366 38.6328C8.96549 38.6328 8.66699 38.9313 8.66699 39.2995V41.2995C8.66699 41.6677 8.96549 41.9662 9.33366 41.9662C9.70182 41.9662 10.0003 41.6677 10.0003 41.2995V39.2995C10.0003 38.9313 9.70182 38.6328 9.33366 38.6328Z" fill="#D2A64F"/>
<path d="M7.99968 37.2998H5.99968C5.63151 37.2998 5.33301 37.5983 5.33301 37.9665C5.33301 38.3346 5.63151 38.6331 5.99968 38.6331H7.99968C8.36784 38.6331 8.66634 38.3346 8.66634 37.9665C8.66634 37.5983 8.36784 37.2998 7.99968 37.2998Z" fill="#D2A64F"/>
<path d="M12.6667 37.2998H10.6667C10.2985 37.2998 10 37.5983 10 37.9665C10 38.3346 10.2985 38.6331 10.6667 38.6331H12.6667C13.0348 38.6331 13.3333 38.3346 13.3333 37.9665C13.3333 37.5983 13.0348 37.2998 12.6667 37.2998Z" fill="#D2A64F"/>
<path d="M42.6667 19.3001C43.0349 19.3001 43.3333 19.0017 43.3333 18.6335C43.3333 18.2653 43.0349 17.9668 42.6667 17.9668C42.2985 17.9668 42 18.2653 42 18.6335C42 19.0017 42.2985 19.3001 42.6667 19.3001Z" fill="#D2A64F"/>
<path d="M33.3337 39.2992C33.7019 39.2992 34.0003 39.0007 34.0003 38.6325C34.0003 38.2643 33.7019 37.9658 33.3337 37.9658C32.9655 37.9658 32.667 38.2643 32.667 38.6325C32.667 39.0007 32.9655 39.2992 33.3337 39.2992Z" fill="#D2A64F"/>
<path d="M9.33366 17.9661C9.70185 17.9661 10.0003 17.6677 10.0003 17.2995C10.0003 16.9313 9.70185 16.6328 9.33366 16.6328C8.96547 16.6328 8.66699 16.9313 8.66699 17.2995C8.66699 17.6677 8.96547 17.9661 9.33366 17.9661Z" fill="#D2A64F"/>
<path d="M8.33333 10.6335C9.62 10.6335 10.6667 9.5868 10.6667 8.30013C10.6667 7.01346 9.62 5.9668 8.33333 5.9668C7.04667 5.9668 6 7.01346 6 8.30013C6 9.5868 7.04667 10.6335 8.33333 10.6335ZM8.33333 7.30013C8.88483 7.30013 9.33333 7.74863 9.33333 8.30013C9.33333 8.85163 8.88483 9.30013 8.33333 9.30013C7.78183 9.30013 7.33333 8.85163 7.33333 8.30013C7.33333 7.74863 7.78183 7.30013 8.33333 7.30013Z" fill="#D2A64F"/>
<path d="M40.3333 36.6328C39.0467 36.6328 38 37.6795 38 38.9661C38 40.2528 39.0467 41.2995 40.3333 41.2995C41.62 41.2995 42.6667 40.2528 42.6667 38.9661C42.6667 37.6795 41.62 36.6328 40.3333 36.6328ZM40.3333 39.9661C39.7818 39.9661 39.3333 39.5176 39.3333 38.9661C39.3333 38.4146 39.7818 37.9661 40.3333 37.9661C40.8848 37.9661 41.3333 38.4146 41.3333 38.9661C41.3333 39.5176 40.8848 39.9661 40.3333 39.9661Z" fill="#D2A64F"/>
</svg>
