<svg width="60" height="60" viewBox="0 0 60 60" fill="none" xmlns="http://www.w3.org/2000/svg">
<g filter="url(#filter0_b)">
<rect width="60" height="60" fill="white" fill-opacity="0.15"/>
<path d="M15.0684 22.0003C15.4366 22.0003 15.7351 21.7018 15.7351 21.3337C15.7351 20.9655 15.4366 20.667 15.0684 20.667C14.7002 20.667 14.4017 20.9655 14.4017 21.3337C14.4017 21.7018 14.7002 22.0003 15.0684 22.0003Z" fill="#D2A64F"/>
<path d="M24.4295 44.4229C23.9028 44.2627 23.3468 44.318 22.8631 44.5779C22.3788 44.837 22.0246 45.2692 21.8651 45.7947C21.7056 46.3202 21.761 46.8767 22.0201 47.361C22.2793 47.8454 22.7115 48.1995 23.237 48.359C23.4343 48.4189 23.6355 48.4482 23.836 48.4482C24.17 48.4482 24.5006 48.3662 24.8035 48.2047C25.2878 47.9455 25.642 47.5134 25.8015 46.9872C25.961 46.4619 25.9056 45.9052 25.6465 45.4209C25.3873 44.9365 24.9548 44.5824 24.4295 44.4229ZM24.5251 46.6005C24.4691 46.7854 24.3441 46.9377 24.1743 47.0289C24.0031 47.12 23.8085 47.1382 23.6235 47.0829C23.4386 47.0269 23.2868 46.9019 23.1958 46.732C23.1046 46.5615 23.0851 46.3662 23.1411 46.1812C23.1971 45.9962 23.3221 45.8445 23.492 45.7535C23.5988 45.6962 23.7153 45.6675 23.8325 45.6675C23.9028 45.6675 23.9738 45.6779 24.0428 45.6989C24.2276 45.7549 24.3795 45.8799 24.4705 46.0497C24.5616 46.2204 24.5811 46.4157 24.5251 46.6005Z" fill="#D2A64F"/>
<path d="M45.0933 47.7065C43.717 47.3609 42.3348 46.5418 41.299 45.4585C40.295 44.4103 39.615 43.2715 39.257 42.591C40.0522 42.3467 40.8248 42.0842 41.316 41.9122C41.7853 42.6655 42.7873 44.0202 44.152 44.4747C44.2223 44.4982 44.2933 44.5092 44.363 44.5092C44.6423 44.5092 44.9027 44.3327 44.9952 44.0535C45.1117 43.7038 44.9228 43.3263 44.574 43.2104C43.4445 42.834 42.4868 41.3419 42.2133 40.7988C42.0617 40.4968 41.7082 40.3548 41.3898 40.4713C41.3638 40.4805 38.7863 41.4153 37.2505 41.761C35.5383 42.1315 31.1555 42.9068 27.4895 42.095C25.0182 41.5468 21.9212 39.9225 18.287 37.2688C17.9413 37.0143 17.4042 36.8085 16.9302 36.6275C16.7303 36.5507 16.4562 36.4458 16.4028 36.4147C16.3775 36.3952 16.365 36.3678 16.365 36.3327V35.0612C16.3878 33.9967 20.0017 16.5462 20.5903 14.6445C20.6078 14.6315 20.6333 14.6158 20.6555 14.6055L28.9257 10.8262L31.5663 14.265C31.6672 14.4043 31.6595 14.5963 31.5475 14.722L28.873 17.7175C28.7467 17.86 28.5233 17.875 28.3958 17.7683L27.3163 16.7755C27.1588 16.6303 26.942 16.562 26.7363 16.6043C26.526 16.6473 26.3548 16.7795 26.267 16.9748C26.1037 17.1995 25.1023 17.5328 24.1662 17.6733C23.8967 17.7143 23.6785 17.9148 23.616 18.1805C23.5542 18.4455 23.659 18.7222 23.8823 18.879L24.2892 19.1642L25.5468 28.6297C25.1437 29.1492 24.7992 29.7227 24.5345 30.3483C24.3913 30.6875 24.5495 31.0788 24.8887 31.222C24.9733 31.2578 25.0618 31.2747 25.1485 31.2747C25.4083 31.2747 25.655 31.1223 25.7625 30.8678C26.7562 28.5177 29.0465 26.9995 31.598 26.9995C34.027 26.9995 36.2725 28.4168 37.3187 30.6108C37.4762 30.9422 37.874 31.0855 38.2073 30.9253C38.5393 30.7672 38.6807 30.3693 38.5218 30.0367C38.185 29.3305 37.7432 28.6935 37.2242 28.1348C38.3193 26.6077 40.2065 25.6662 42.2647 25.6662C43.1078 25.6662 43.9228 25.8185 44.6872 26.12C45.0283 26.2528 45.4163 26.0868 45.5518 25.7437C45.6867 25.4012 45.5187 25.0145 45.1755 24.879C44.2555 24.5163 43.2758 24.3328 42.2647 24.3328C39.833 24.3328 37.586 25.4362 36.2302 27.2357C34.9175 26.241 33.2958 25.6662 31.598 25.6662C29.7795 25.6662 28.0733 26.3073 26.7297 27.4123L25.5765 18.7338C26.0315 18.6043 26.5048 18.4252 26.8753 18.1812L27.5147 18.769C28.223 19.3647 29.2568 19.2925 29.8688 18.6037L32.5427 15.6095C33.0693 15.0177 33.1117 14.1218 32.6332 13.4663L29.6598 9.59335C29.4703 9.34668 29.1352 9.26451 28.8538 9.39351L20.1155 13.387C20.014 13.43 19.499 13.6735 19.3382 14.1832C18.874 15.5823 15.0315 33.7235 15.0315 35.0595V36.3328C15.0315 36.7788 15.2313 37.1908 15.5752 37.4605C15.7483 37.5992 15.9957 37.6975 16.4535 37.8727C16.809 38.0087 17.296 38.1957 17.4985 38.3447C21.2843 41.109 24.5487 42.8088 27.201 43.3973C30.9835 44.2345 35.2973 43.5477 37.5382 43.0633C37.6688 43.0338 37.808 42.9993 37.9492 42.9633C38.324 43.716 39.1043 45.094 40.3363 46.3797C41.4145 47.5085 42.8227 48.392 44.2647 48.855V49.9995C44.2647 50.368 44.5628 50.6662 44.9313 50.6662C45.2998 50.6662 45.598 50.368 45.598 49.9995V48.353C45.598 48.0477 45.3902 47.7807 45.0933 47.7065Z" fill="#D2A64F"/>
<path d="M33.467 39.6797C27.4267 40.8847 25.6005 37.5085 25.5275 37.3685C25.4404 37.1947 25.2814 37.067 25.0927 37.0202L22.426 36.3535C22.0692 36.263 21.7067 36.4805 21.618 36.8385C21.5282 37.1954 21.7457 37.5572 22.103 37.6465L24.5002 38.2462C25.0249 39.0522 26.8479 41.2755 30.993 41.2755C31.8114 41.2755 32.7209 41.1888 33.7287 40.9872C34.0894 40.9148 34.3237 40.564 34.2515 40.2027C34.18 39.8418 33.8317 39.6035 33.467 39.6797Z" fill="#D2A64F"/>
<path d="M35.5114 31.3382C35.3929 31.1292 35.1715 31.0004 34.9314 31.0004H32.9314V28.3337C32.9314 28.04 32.7394 27.781 32.458 27.6957C32.178 27.6104 31.8727 27.7199 31.71 27.9639L27.71 33.9639C27.574 34.1684 27.5609 34.4314 27.6769 34.648C27.7929 34.8647 28.0187 35.0002 28.2647 35.0002H30.2647V38.3335C30.2647 38.633 30.4645 38.896 30.7537 38.976C30.8124 38.9924 30.8722 39.0002 30.9314 39.0002C31.1612 39.0002 31.3805 38.881 31.503 38.6767L35.503 32.01C35.6265 31.8044 35.6299 31.5479 35.5114 31.3382ZM31.598 35.9267V34.3337C31.598 33.9652 31.2999 33.667 30.9314 33.667H29.5102L31.598 30.5355V31.667C31.598 32.0355 31.8962 32.3337 32.2647 32.3337H33.7537L31.598 35.9267Z" fill="#D2A64F"/>
</g>
<defs>
<filter id="filter0_b" x="-4" y="-4" width="68" height="68" filterUnits="userSpaceOnUse" color-interpolation-filters="sRGB">
<feFlood flood-opacity="0" result="BackgroundImageFix"/>
<feGaussianBlur in="BackgroundImage" stdDeviation="2"/>
<feComposite in2="SourceAlpha" operator="in" result="effect1_backgroundBlur"/>
<feBlend mode="normal" in="SourceGraphic" in2="effect1_backgroundBlur" result="shape"/>
</filter>
</defs>
</svg>
