<svg width="42" height="34" viewBox="0 0 42 34" fill="none" xmlns="http://www.w3.org/2000/svg">
<path d="M10.4714 12.1972C10.2111 11.9369 9.78908 11.9369 9.52875 12.1972L9.00008 12.7259L8.47141 12.1972C8.21108 11.9369 7.78908 11.9369 7.52875 12.1972C7.26841 12.4575 7.26841 12.8795 7.52875 13.1399L8.05741 13.6685L7.52875 14.1972C7.26841 14.4575 7.26841 14.8795 7.52875 15.1399C7.65891 15.27 7.82958 15.3352 8.00008 15.3352C8.17058 15.3352 8.34125 15.27 8.47141 15.1399L9.00008 14.6112L9.52875 15.1399C9.65891 15.27 9.82958 15.3352 10.0001 15.3352C10.1706 15.3352 10.3412 15.27 10.4714 15.1399C10.7317 14.8795 10.7317 14.4575 10.4714 14.1972L9.94275 13.6685L10.4714 13.1399C10.7319 12.8795 10.7319 12.4575 10.4714 12.1972Z" fill="#D2A64F"/>
<path d="M19.3337 4.00228C19.7018 4.00228 20.0003 3.7038 20.0003 3.33561C20.0003 2.96742 19.7018 2.66895 19.3337 2.66895C18.9655 2.66895 18.667 2.96742 18.667 3.33561C18.667 3.7038 18.9655 4.00228 19.3337 4.00228Z" fill="#D2A64F"/>
<path d="M7.93194 4.53868C8.23461 4.70017 8.56544 4.78218 8.89944 4.78218C9.09994 4.78218 9.30111 4.75284 9.49844 4.69301C10.0238 4.53351 10.4561 4.17934 10.7153 3.69501C10.9744 3.21068 11.0298 2.65401 10.8703 2.12868C10.7108 1.60335 10.3566 1.17101 9.87227 0.911846C9.38794 0.652012 8.83127 0.596679 8.30594 0.756846C7.78061 0.916345 7.34828 1.27051 7.08911 1.75485C6.82994 2.23918 6.77461 2.79584 6.93411 3.32118C7.09344 3.84718 7.44761 4.27951 7.93194 4.53868ZM8.26461 2.38368C8.35577 2.21368 8.50744 2.08868 8.69227 2.03284C8.76127 2.01201 8.83227 2.00151 8.90261 2.00151C9.01977 2.00151 9.13627 2.03018 9.24311 2.08751C9.41311 2.17868 9.53811 2.33034 9.59394 2.51518C9.64994 2.70001 9.63044 2.89534 9.53927 3.06601C9.44811 3.23601 9.29644 3.36101 9.11161 3.41684C8.92744 3.47218 8.73277 3.45401 8.56077 3.36284C8.39077 3.27168 8.26578 3.11934 8.20994 2.93451C8.15411 2.74968 8.17344 2.55418 8.26461 2.38368Z" fill="#D2A64F"/>
<path d="M5 31.333C5.55229 31.333 6 30.8853 6 30.333C6 29.7807 5.55229 29.333 5 29.333C4.44772 29.333 4 29.7807 4 30.333C4 30.8853 4.44772 31.333 5 31.333Z" fill="#D2A64F"/>
<path d="M41.3333 32.0011H38V24.6678C38 24.2993 37.7018 24.0011 37.3333 24.0011H35.8893L33.4648 10.6678H34.6667C35.0352 10.6678 35.3333 10.3696 35.3333 10.0011V8.00114C35.3333 7.73031 35.1708 7.49998 34.9392 7.39548L36.6243 2.90214C36.7012 2.69714 36.6725 2.46798 36.5482 2.28814C36.4232 2.10848 36.2187 2.00098 36 2.00098H34C33.722 2.00098 33.4733 2.17348 33.3757 2.43331L31.5378 7.33431H25.3333C24.9648 7.33431 24.6667 7.63248 24.6667 8.00098V9.33431H20.6667C19.5638 9.33431 18.6667 10.2315 18.6667 11.3343C18.6667 12.4371 19.5638 13.3343 20.6667 13.3343C21.0352 13.3343 21.3333 13.0361 21.3333 12.6676C21.3333 12.2991 21.0352 12.001 20.6667 12.001C20.2988 12.001 20 11.7021 20 11.3343C20 10.9665 20.2988 10.6676 20.6667 10.6676H28.1105L30.5347 24.001H28.6667C28.2982 24.001 28 24.2991 28 24.6676V25.3343H6.66667C6.29817 25.3343 6 25.6325 6 26.001V27.3343H5C3.34567 27.3343 2 28.68 2 30.3343C2 30.9508 2.18767 31.5238 2.50783 32.001H0.666667C0.298167 32.001 0 32.2991 0 32.6676C0 33.0361 0.298167 33.3343 0.666667 33.3343H41.3333C41.7018 33.3343 42 33.0361 42 32.6676C42 32.2991 41.7018 32.0011 41.3333 32.0011ZM34.4622 3.33448H35.0377L33.5375 7.33448H32.9622L34.4622 3.33448ZM26 9.33448V8.66781H34V9.33448H26ZM29.4652 10.6678H32.1103L34.5348 24.0011H31.8893L29.4652 10.6678ZM29.3333 25.3345H36.6667V27.3345H29.3333V26.0011V25.3345ZM28 26.6678V27.3345H7.33333V26.6678H28ZM5 32.0011C4.08067 32.0011 3.33333 31.2538 3.33333 30.3345C3.33333 29.4151 4.08067 28.6678 5 28.6678H36.6667V32.0011H5Z" fill="#D2A64F"/>
</svg>
