<svg width="60" height="60" viewBox="0 0 60 60" fill="none" xmlns="http://www.w3.org/2000/svg">
<g filter="url(#filter0_b)">
<rect width="60" height="60" fill="white" fill-opacity="0.15"/>
<path d="M39.8044 36.1972C39.5441 35.9369 39.1221 35.9369 38.8617 36.1972L38.3331 36.7259L37.8044 36.1972C37.5441 35.9369 37.1221 35.9369 36.8618 36.1972C36.6014 36.4575 36.6014 36.8795 36.8618 37.1399L37.3904 37.6685L36.8618 38.1972C36.6014 38.4575 36.6014 38.8795 36.8618 39.1399C36.9919 39.27 37.1626 39.3352 37.3331 39.3352C37.5036 39.3352 37.6742 39.27 37.8044 39.1399L38.3331 38.6112L38.8617 39.1399C38.9919 39.27 39.1626 39.3352 39.3331 39.3352C39.5036 39.3352 39.6742 39.27 39.8044 39.1399C40.0647 38.8795 40.0647 38.4575 39.8044 38.1972L39.2757 37.6685L39.8044 37.1399C40.0649 36.8795 40.0649 36.4575 39.8044 36.1972Z" fill="#D2A64F"/>
<path d="M19.6667 34.001C18.3802 34.001 17.3334 35.0478 17.3334 36.3343C17.3334 37.6208 18.3802 38.6676 19.6667 38.6676C20.9532 38.6676 22 37.6208 22 36.3343C22 35.0478 20.9532 34.001 19.6667 34.001ZM19.6667 37.3343C19.1152 37.3343 18.6667 36.8858 18.6667 36.3343C18.6667 35.7828 19.1152 35.3343 19.6667 35.3343C20.2182 35.3343 20.6667 35.7828 20.6667 36.3343C20.6667 36.8858 20.2182 37.3343 19.6667 37.3343Z" fill="#D2A64F"/>
<path d="M29.9999 34.6689C29.6314 34.6689 29.3333 34.9671 29.3333 35.3356V37.3356C29.3333 37.7041 29.6314 38.0023 29.9999 38.0023C30.3684 38.0023 30.6666 37.7041 30.6666 37.3356V35.3356C30.6666 34.9671 30.3684 34.6689 29.9999 34.6689Z" fill="#D2A64F"/>
<path d="M48.6666 14.001H47.3333V10.6676C47.3333 10.2991 47.0351 10.001 46.6666 10.001H44C43.6315 10.001 43.3333 10.2991 43.3333 10.6676V14.001H16.6666V10.6676C16.6666 10.2991 16.3685 10.001 16 10.001H13.3333C12.9648 10.001 12.6666 10.2991 12.6666 10.6676V14.001H11.3333C10.9648 14.001 10.6666 14.2991 10.6666 14.6676V16.6676C10.6666 17.0361 10.9648 17.3343 11.3333 17.3343H12.6666V20.6676C12.6666 21.0361 12.9648 21.3343 13.3333 21.3343H16C16.3685 21.3343 16.6666 21.0361 16.6666 20.6676V17.3343H19.2873L18.6666 26.6676C18.6666 27.2438 18.9153 27.7926 19.3496 28.1728C19.3666 28.1878 19.3841 28.2015 19.4023 28.2145L23.4075 31.0641L25.3228 39.3661L24.0058 49.2463C23.9805 49.4365 24.0383 49.6285 24.1653 49.7736C24.2916 49.9183 24.4746 50.001 24.6666 50.001H28.4668C28.7546 50.001 29.0105 49.8161 29.1003 49.5426L30 46.8036L30.8996 49.5426C30.9895 49.8161 31.2453 50.001 31.5331 50.001H35.3333C35.5253 50.001 35.7083 49.9183 35.8346 49.7738C35.9616 49.6286 36.0195 49.4366 35.9941 49.2465L34.6771 39.3663L36.5925 31.0643L40.5976 28.2146C40.6158 28.2016 40.6335 28.188 40.6503 28.173C41.0845 27.7928 41.3333 27.244 41.332 26.6235L40.7128 17.3343H43.3333V20.6676C43.3333 21.0361 43.6315 21.3343 44 21.3343H46.6666C47.0351 21.3343 47.3333 21.0361 47.3333 20.6676V17.3343H48.6666C49.0351 17.3343 49.3333 17.0361 49.3333 16.6676V14.6676C49.3333 14.2991 49.0351 14.001 48.6666 14.001ZM12 16.001V15.3343H12.6666V16.001H12ZM15.3333 20.001H14V11.3343H15.3333V20.001ZM32.0156 48.6676L30.6335 44.4593C30.5436 44.1858 30.2878 44.001 30 44.001C29.7121 44.001 29.4563 44.1858 29.3665 44.4593L27.9843 48.6676H25.4283L26.5836 40.001H33.4163L34.5716 48.6676H32.0156ZM33.4695 38.6676H26.5303L25.1723 32.7826L26.1951 33.8056C26.3201 33.9306 26.4895 34.001 26.6665 34.001H33.3331C33.5101 34.001 33.6795 33.9306 33.8045 33.8056L34.8273 32.7826L33.4695 38.6676ZM40 26.6676C40 26.8506 39.9245 27.0251 39.7923 27.1513L35.6133 30.1246C35.5966 30.1365 35.5866 30.1548 35.5713 30.168C35.558 30.1793 35.5413 30.1838 35.5288 30.1963L33.0573 32.6676H30.6666V31.3343C30.6666 30.9658 30.3685 30.6676 30 30.6676C29.6315 30.6676 29.3333 30.9658 29.3333 31.3343V32.6676H26.9426L24.4713 30.1963C24.4588 30.1838 24.442 30.1793 24.4288 30.168C24.4133 30.1548 24.4035 30.1366 24.3868 30.1246L20.2078 27.1513C20.0756 27.025 20.0001 26.8525 19.9988 26.7118L20.6236 17.3343H22.0878L21.4453 18.2978C21.3723 18.4073 21.3333 18.5361 21.3333 18.6676V25.3955C21.3333 25.6311 21.4576 25.8493 21.6608 25.969L26.0665 28.5745C26.1693 28.6356 26.2865 28.6676 26.4056 28.6676H33.5945C33.7136 28.6676 33.8308 28.6358 33.9336 28.5745L38.3393 25.969C38.5425 25.8491 38.6668 25.6311 38.6668 25.3955V18.5341C38.6668 18.3955 38.6231 18.2595 38.5425 18.1468L37.9621 17.3343H39.3761L40 26.6676ZM36.3238 17.3343L37.3333 18.7476V25.0151L33.4121 27.3343H33.3333V20.8831C33.3333 19.6618 32.3391 18.6676 31.1178 18.6676H26C25.6315 18.6676 25.3333 18.9658 25.3333 19.3343C25.3333 20.4203 25.8631 21.3775 26.6696 21.9863C26.6695 21.9915 26.6666 21.9958 26.6666 22.001V25.2086C26.6666 26.0138 26.9545 26.746 27.4173 27.3343H26.5878L22.6666 25.0153V18.8695L23.6901 17.3343H36.3238ZM28 25.2086V22.6676H32V27.3343H30.1256C28.9538 27.3343 28 26.3805 28 25.2086ZM32 21.3343H28.6666C27.7975 21.3343 27.056 20.777 26.7806 20.001H31.1178C31.6041 20.001 32 20.3968 32 20.8831V21.3343ZM16.6666 16.001V15.3343H43.3333V16.001H16.6666ZM46 20.001H44.6666V11.3343H46V20.001ZM48 16.001H47.3333V15.3343H48V16.001Z" fill="#D2A64F"/>
</g>
<defs>
<filter id="filter0_b" x="-4" y="-4" width="68" height="68" filterUnits="userSpaceOnUse" color-interpolation-filters="sRGB">
<feFlood flood-opacity="0" result="BackgroundImageFix"/>
<feGaussianBlur in="BackgroundImage" stdDeviation="2"/>
<feComposite in2="SourceAlpha" operator="in" result="effect1_backgroundBlur"/>
<feBlend mode="normal" in="SourceGraphic" in2="effect1_backgroundBlur" result="shape"/>
</filter>
</defs>
</svg>
