<svg width="60" height="60" viewBox="0 0 60 60" fill="none" xmlns="http://www.w3.org/2000/svg">
<g filter="url(#filter0_b)">
<rect width="60" height="60" fill="white" fill-opacity="0.15"/>
<path d="M46.3335 26.6663H29.0001V25.333C29.0001 20.9215 25.4113 17.333 21.0001 17.333C16.589 17.333 13.0001 20.9215 13.0001 25.333V39.333C13.0001 43.7445 16.589 47.333 21.0001 47.333H46.3335C46.7016 47.333 47.0001 47.0348 47.0001 46.6663V27.333C47.0001 26.9645 46.7016 26.6663 46.3335 26.6663ZM45.6668 27.9997V43.333H27.9281C28.6248 42.1233 29.0001 40.7387 29.0001 39.333V27.9997H45.6668ZM14.3335 25.333C14.3335 21.6572 17.324 18.6663 21.0001 18.6663C24.6763 18.6663 27.6668 21.6572 27.6668 25.333V34.9203C26.2326 32.7608 23.781 31.333 21.0001 31.333C18.2193 31.333 15.7676 32.7608 14.3335 34.9203V25.333ZM45.6668 45.9997H21.0001C17.324 45.9997 14.3335 43.0088 14.3335 39.333C14.3335 35.6572 17.324 32.6663 21.0001 32.6663C24.6763 32.6663 27.6668 35.6572 27.6668 39.333C27.6668 40.7947 27.2068 42.1728 26.3341 43.333H24.516C25.6273 42.3548 26.3335 40.9265 26.3335 39.333C26.3335 36.3922 23.941 33.9997 21.0001 33.9997C18.0593 33.9997 15.6668 36.3922 15.6668 39.333C15.6668 42.2738 18.0593 44.6663 21.0001 44.6663H45.6668V45.9997ZM17.0001 39.333C17.0001 37.1273 18.7945 35.333 21.0001 35.333C23.2058 35.333 25.0001 37.1273 25.0001 39.333C25.0001 41.5387 23.2058 43.333 21.0001 43.333C18.7945 43.333 17.0001 41.5387 17.0001 39.333Z" fill="#D2A64F"/>
<path d="M21.0002 36.665C19.5298 36.665 18.3335 37.861 18.3335 39.3317C18.3335 40.8024 19.5298 41.9984 21.0002 41.9984C22.4705 41.9984 23.6668 40.8024 23.6668 39.3317C23.6668 37.861 22.4705 36.665 21.0002 36.665ZM21.0002 40.665C20.2648 40.665 19.6668 40.0667 19.6668 39.3317C19.6668 38.5967 20.2648 37.9984 21.0002 37.9984C21.7355 37.9984 22.3335 38.5967 22.3335 39.3317C22.3335 40.0667 21.7355 40.665 21.0002 40.665Z" fill="#D2A64F"/>
<path d="M41.5098 20.6404C41.5098 21.0341 41.8289 21.3531 42.2224 21.3531C42.6159 21.3531 42.9353 21.0339 42.9353 20.6404C42.9353 20.2469 42.6161 19.9277 42.2224 19.9277C41.8288 19.9277 41.5098 20.2467 41.5098 20.6404Z" fill="#D2A64F"/>
<path d="M39.1955 15.8039C39.3257 15.9341 39.4963 15.9993 39.6668 15.9993C39.8373 15.9993 40.008 15.9341 40.1382 15.8039L40.6668 15.2753L41.1955 15.8039C41.3257 15.9341 41.4963 15.9993 41.6668 15.9993C41.8373 15.9993 42.008 15.9341 42.1382 15.8039C42.3985 15.5436 42.3985 15.1216 42.1382 14.8613L41.6095 14.3326L42.1382 13.8039C42.3985 13.5436 42.3985 13.1216 42.1382 12.8613C41.8778 12.6009 41.4558 12.6009 41.1955 12.8613L40.6668 13.3899L40.1382 12.8613C39.8778 12.6009 39.4558 12.6009 39.1955 12.8613C38.9352 13.1216 38.9352 13.5436 39.1955 13.8039L39.7242 14.3326L39.1955 14.8613C38.935 15.1216 38.935 15.5436 39.1955 15.8039Z" fill="#D2A64F"/>
<path d="M33.0001 21.333C34.103 21.333 35.0001 20.4358 35.0001 19.333C35.0001 18.2302 34.103 17.333 33.0001 17.333C31.8973 17.333 31.0001 18.2302 31.0001 19.333C31.0001 20.4358 31.8973 21.333 33.0001 21.333ZM33.0001 18.6663C33.3676 18.6663 33.6668 18.9652 33.6668 19.333C33.6668 19.7008 33.3676 19.9997 33.0001 19.9997C32.6326 19.9997 32.3335 19.7008 32.3335 19.333C32.3335 18.9652 32.6326 18.6663 33.0001 18.6663Z" fill="#D2A64F"/>
</g>
<defs>
<filter id="filter0_b" x="-4" y="-4" width="68" height="68" filterUnits="userSpaceOnUse" color-interpolation-filters="sRGB">
<feFlood flood-opacity="0" result="BackgroundImageFix"/>
<feGaussianBlur in="BackgroundImage" stdDeviation="2"/>
<feComposite in2="SourceAlpha" operator="in" result="effect1_backgroundBlur"/>
<feBlend mode="normal" in="SourceGraphic" in2="effect1_backgroundBlur" result="shape"/>
</filter>
</defs>
</svg>
