<svg width="60" height="60" viewBox="0 0 60 60" fill="none" xmlns="http://www.w3.org/2000/svg">
<g filter="url(#filter0_b)">
<rect width="60" height="60" fill="white" fill-opacity="0.15"/>
<path d="M46 36.667C46 34.0938 43.9065 32.0003 41.3333 32.0003H40.4151C41.3891 31.0932 42 29.8007 42 28.3677V28.2997C42 26.3343 40.8525 24.6323 39.1923 23.8278C40.1361 23.0955 40.7451 21.9513 40.7451 20.667C40.7451 18.4613 38.9508 16.667 36.7451 16.667H28.6666C26.461 16.667 24.6666 18.4613 24.6666 20.667C24.6666 21.7522 25.1016 22.7372 25.8056 23.4585C23.5965 23.9615 21.9421 25.9403 21.9421 28.2997V28.3677C21.9421 31.0505 24.0808 33.2417 26.7428 33.3295C25.8741 34.1775 25.3333 35.36 25.3333 36.667C25.3333 37.9718 25.8723 39.1527 26.7385 40.0003H23.6666C20.9096 40.0003 18.6666 42.2433 18.6666 45.0003C18.6666 47.7573 20.9096 50.0003 23.6666 50.0003H41C43.757 50.0003 46 47.7573 46 45.0003C46 43.1995 45.0428 41.6185 43.6106 40.738C45.035 39.9382 46 38.4135 46 36.667ZM28.6666 18.0003H36.7451C38.2155 18.0003 39.4118 19.1967 39.4118 20.667C39.4118 22.1373 38.2155 23.3337 36.7451 23.3337H28.6666C27.1963 23.3337 26 22.1373 26 20.667C26 19.1967 27.1963 18.0003 28.6666 18.0003ZM26.9081 32.0003C24.9051 32.0003 23.2755 30.3707 23.2755 28.3677V28.2997C23.2755 26.2967 24.9051 24.667 26.9081 24.667H37.034C39.037 24.667 40.6665 26.2967 40.6665 28.2997V28.3677C40.6665 30.3707 39.037 32.0003 37.034 32.0003H26.9081ZM44.6666 45.0003C44.6666 47.0222 43.0218 48.667 41 48.667H23.6666C21.6448 48.667 20 47.0222 20 45.0003C20 42.9785 21.6448 41.3337 23.6666 41.3337H40.8718H41C43.0218 41.3337 44.6666 42.9785 44.6666 45.0003ZM41.3333 40.0003H30C28.162 40.0003 26.6666 38.505 26.6666 36.667C26.6666 34.829 28.162 33.3337 30 33.3337H41.3333C43.1713 33.3337 44.6666 34.829 44.6666 36.667C44.6666 38.505 43.1713 40.0003 41.3333 40.0003Z" fill="#D2A64F"/>
<path d="M39.3332 28.3337C39.3332 27.9655 39.0347 27.667 38.6665 27.667C38.2983 27.667 37.9998 27.9655 37.9998 28.3337C37.9998 29.2527 37.2522 30.0003 36.3332 30.0003C35.965 30.0003 35.6665 30.2988 35.6665 30.667C35.6665 31.0352 35.965 31.3337 36.3332 31.3337C37.9873 31.3337 39.3332 29.9878 39.3332 28.3337Z" fill="#D2A64F"/>
<path d="M23.6666 42.4678C22.2701 42.4678 21.1338 43.6039 21.1338 45.0006C21.1338 45.3688 21.4323 45.6673 21.8005 45.6673C22.1686 45.6673 22.4671 45.3688 22.4671 45.0006C22.4671 44.3393 23.0053 43.8011 23.6666 43.8011C24.0348 43.8011 24.3333 43.5026 24.3333 43.1344C24.3333 42.7663 24.0348 42.4678 23.6666 42.4678Z" fill="#D2A64F"/>
<path d="M15.3332 27.333C14.965 27.333 14.6665 27.6315 14.6665 27.9997V29.9997C14.6665 30.3678 14.965 30.6663 15.3332 30.6663C15.7013 30.6663 15.9998 30.3678 15.9998 29.9997V27.9997C15.9998 27.6315 15.7013 27.333 15.3332 27.333Z" fill="#D2A64F"/>
<path d="M15.3332 32C14.965 32 14.6665 32.2985 14.6665 32.6667V34.6667C14.6665 35.0348 14.965 35.3333 15.3332 35.3333C15.7013 35.3333 15.9998 35.0348 15.9998 34.6667V32.6667C15.9998 32.2985 15.7013 32 15.3332 32Z" fill="#D2A64F"/>
<path d="M13.9998 30.667H11.9998C11.6316 30.667 11.3331 30.9655 11.3331 31.3337C11.3331 31.7018 11.6316 32.0003 11.9998 32.0003H13.9998C14.368 32.0003 14.6665 31.7018 14.6665 31.3337C14.6665 30.9655 14.368 30.667 13.9998 30.667Z" fill="#D2A64F"/>
<path d="M19.3332 31.3337C19.3332 30.9655 19.0347 30.667 18.6665 30.667H16.6665C16.2984 30.667 15.9999 30.9655 15.9999 31.3337C15.9999 31.7018 16.2984 32.0003 16.6665 32.0003H18.6665C19.0347 32.0003 19.3332 31.7018 19.3332 31.3337Z" fill="#D2A64F"/>
<path d="M44.6668 13.3333C45.035 13.3333 45.3335 13.0348 45.3335 12.6667V10.6667C45.3335 10.2985 45.035 10 44.6668 10C44.2986 10 44.0001 10.2985 44.0001 10.6667V12.6667C44.0001 13.0348 44.2986 13.3333 44.6668 13.3333Z" fill="#D2A64F"/>
<path d="M44.6668 14.667C44.2986 14.667 44.0001 14.9655 44.0001 15.3337V17.3337C44.0001 17.7018 44.2986 18.0003 44.6668 18.0003C45.035 18.0003 45.3335 17.7018 45.3335 17.3337V15.3337C45.3335 14.9655 45.035 14.667 44.6668 14.667Z" fill="#D2A64F"/>
<path d="M41.3334 14.6663H43.3334C43.7016 14.6663 44.0001 14.3678 44.0001 13.9997C44.0001 13.6315 43.7016 13.333 43.3334 13.333H41.3334C40.9652 13.333 40.6667 13.6315 40.6667 13.9997C40.6667 14.3678 40.9652 14.6663 41.3334 14.6663Z" fill="#D2A64F"/>
<path d="M48.0002 13.333H46.0002C45.632 13.333 45.3335 13.6315 45.3335 13.9997C45.3335 14.3678 45.632 14.6663 46.0002 14.6663H48.0002C48.3683 14.6663 48.6668 14.3678 48.6668 13.9997C48.6668 13.6315 48.3683 13.333 48.0002 13.333Z" fill="#D2A64F"/>
<path d="M21.9999 14.6663C22.3681 14.6663 22.6666 14.3679 22.6666 13.9997C22.6666 13.6315 22.3681 13.333 21.9999 13.333C21.6317 13.333 21.3333 13.6315 21.3333 13.9997C21.3333 14.3679 21.6317 14.6663 21.9999 14.6663Z" fill="#D2A64F"/>
<path d="M46.6668 26.6663C47.035 26.6663 47.3335 26.3679 47.3335 25.9997C47.3335 25.6315 47.035 25.333 46.6668 25.333C46.2986 25.333 46.0001 25.6315 46.0001 25.9997C46.0001 26.3679 46.2986 26.6663 46.6668 26.6663Z" fill="#D2A64F"/>
<path d="M11.9998 44.6664C12.368 44.6664 12.6665 44.3679 12.6665 43.9997C12.6665 43.6315 12.368 43.333 11.9998 43.333C11.6316 43.333 11.3331 43.6315 11.3331 43.9997C11.3331 44.3679 11.6316 44.6664 11.9998 44.6664Z" fill="#D2A64F"/>
<path d="M14.3332 17.3337C15.6199 17.3337 16.6665 16.287 16.6665 15.0003C16.6665 13.7137 15.6199 12.667 14.3332 12.667C13.0465 12.667 11.9999 13.7137 11.9999 15.0003C11.9999 16.287 13.0465 17.3337 14.3332 17.3337ZM14.3332 14.0003C14.8847 14.0003 15.3332 14.4488 15.3332 15.0003C15.3332 15.5518 14.8847 16.0003 14.3332 16.0003C13.7817 16.0003 13.3332 15.5518 13.3332 15.0003C13.3332 14.4488 13.7817 14.0003 14.3332 14.0003Z" fill="#D2A64F"/>
</g>
<defs>
<filter id="filter0_b" x="-4" y="-4" width="68" height="68" filterUnits="userSpaceOnUse" color-interpolation-filters="sRGB">
<feFlood flood-opacity="0" result="BackgroundImageFix"/>
<feGaussianBlur in="BackgroundImage" stdDeviation="2"/>
<feComposite in2="SourceAlpha" operator="in" result="effect1_backgroundBlur"/>
<feBlend mode="normal" in="SourceGraphic" in2="effect1_backgroundBlur" result="shape"/>
</filter>
</defs>
</svg>
