<svg width="50" height="50" viewBox="0 0 50 50" fill="none" xmlns="http://www.w3.org/2000/svg">
<path d="M39.992 28.8428C39.7317 28.5825 39.3094 28.5825 39.0494 28.8428L36.7944 31.0978L34.5014 28.7486C32.7025 26.9058 31.5287 24.4843 31.1964 21.9303L29.65 10.0495C29.4884 8.80712 28.4217 7.87012 27.1687 7.87012C26.4347 7.87012 25.7757 8.18978 25.3175 8.69478C24.8499 8.18912 24.1832 7.87012 23.4417 7.87012C22.1654 7.87012 21.0754 8.82395 20.906 10.0888L19.3304 21.8563C18.9827 24.4536 17.7685 26.9024 15.9117 28.7516L13.7144 30.94L11.617 28.8426C11.492 28.7176 11.3224 28.6474 11.1457 28.6474C10.969 28.6474 10.7994 28.7176 10.6744 28.8426L8.27635 31.2406C8.27635 31.2406 8.27619 31.2408 8.27602 31.2408C8.27585 31.2408 8.27585 31.241 8.27585 31.2411L6.55902 32.9583C6.29869 33.2186 6.29869 33.6408 6.55902 33.9011L17.259 44.6011C17.389 44.7313 17.5599 44.7963 17.7304 44.7963C17.9009 44.7963 18.0717 44.7311 18.2017 44.6011L19.8264 42.9764L19.9189 42.8839L22.3172 40.4856C22.5775 40.2253 22.5775 39.8031 22.3172 39.5428L20.0387 37.2643L20.8575 36.5369H21.8772C23.4097 36.5369 24.7487 35.6958 25.4592 34.4515C26.3019 35.708 27.7349 36.5369 29.3582 36.5369H29.6712L30.5512 37.341L28.3494 39.5428C28.089 39.8031 28.089 40.2253 28.3494 40.4856L32.4647 44.6009C32.5949 44.7311 32.7655 44.7961 32.936 44.7961C33.1065 44.7961 33.2774 44.7309 33.4074 44.6009L44.1075 33.9009C44.2325 33.7759 44.3029 33.6063 44.3029 33.4294C44.3029 33.2526 44.2325 33.0831 44.1075 32.958L39.992 28.8428ZM17.7304 43.1869L7.97319 33.4298L8.74752 32.6555L18.5047 42.4128L17.7304 43.1869ZM19.4475 41.4698L9.69035 31.7124L11.1459 30.257L20.903 40.0143L19.4475 41.4698ZM24.6667 32.4141C24.6667 33.9523 23.4154 35.2034 21.8774 35.2034H20.6042C20.441 35.2034 20.2834 35.2633 20.1615 35.3716L19.0942 36.3196L14.6572 31.8826L16.8525 29.6966C18.9162 27.6414 20.2657 24.92 20.652 22.0335L22.2277 10.2658C22.3087 9.66028 22.8305 9.20345 23.4417 9.20345C24.1172 9.20345 24.6667 9.75295 24.6667 10.4285V15.8721C23.2087 16.0995 22.0284 17.2658 21.827 18.7658L20.9797 25.0778C20.9307 25.4426 21.1869 25.7783 21.5519 25.8273C21.582 25.8313 21.6117 25.8333 21.6414 25.8333C21.9702 25.8333 22.2562 25.5901 22.3014 25.2553L23.1487 18.9433C23.2612 18.1048 23.8784 17.438 24.6667 17.2306V31.8454C24.6667 31.9856 24.674 32.1239 24.6862 32.261C24.6744 32.3103 24.6667 32.3611 24.6667 32.4141ZM30.3797 35.3781C30.2569 35.2658 30.0965 35.2036 29.93 35.2036H29.3582C27.5065 35.2036 26 33.6971 26 31.8454V17.2541C26.5797 17.4544 27.0232 17.9673 27.1084 18.6023L28.0014 25.2551C28.0465 25.59 28.3325 25.8331 28.6614 25.8331C28.6909 25.8331 28.7207 25.8311 28.7509 25.8271C29.1157 25.7781 29.372 25.4426 29.323 25.0776L28.43 18.4248C28.2557 17.1263 27.252 16.1084 26 15.8783V10.3725C26 9.72795 26.5244 9.20362 27.1689 9.20362C27.7542 9.20362 28.2524 9.64128 28.3279 10.2216L29.874 22.1023C30.2435 24.9408 31.548 27.6318 33.5472 29.68L35.8515 32.0406L31.495 36.3973L30.3797 35.3781ZM39.5207 30.257L40.9762 31.7124L31.219 41.4698L29.7635 40.0143L39.5207 30.257ZM32.936 43.1869L32.1617 42.4126L41.9189 32.6553L42.6932 33.4296L32.936 43.1869Z" fill="#D2A64F"/>
<path d="M9.33317 8.53744C9.70134 8.53744 9.99984 8.23894 9.99984 7.87077V5.87077C9.99984 5.5026 9.70134 5.2041 9.33317 5.2041C8.965 5.2041 8.6665 5.5026 8.6665 5.87077V7.87077C8.6665 8.23894 8.965 8.53744 9.33317 8.53744Z" fill="#D2A64F"/>
<path d="M9.99984 12.5368V10.5368C9.99984 10.1686 9.70134 9.87012 9.33317 9.87012C8.965 9.87012 8.6665 10.1686 8.6665 10.5368V12.5368C8.6665 12.905 8.965 13.2035 9.33317 13.2035C9.70134 13.2035 9.99984 12.905 9.99984 12.5368Z" fill="#D2A64F"/>
<path d="M8.66683 9.20378C8.66683 8.83561 8.36833 8.53711 8.00017 8.53711H6.00016C5.632 8.53711 5.3335 8.83561 5.3335 9.20378C5.3335 9.57194 5.632 9.87044 6.00016 9.87044H8.00017C8.36833 9.87044 8.66683 9.57194 8.66683 9.20378Z" fill="#D2A64F"/>
<path d="M10.6667 9.87044H12.6667C13.0348 9.87044 13.3333 9.57194 13.3333 9.20378C13.3333 8.83561 13.0348 8.53711 12.6667 8.53711H10.6667C10.2985 8.53711 10 8.83561 10 9.20378C10 9.57194 10.2985 9.87044 10.6667 9.87044Z" fill="#D2A64F"/>
<path d="M16.3503 15.1039C16.6635 14.9103 16.7603 14.4994 16.5668 14.1863C16.3732 13.8731 15.9623 13.7763 15.6492 13.9698C15.336 14.1634 15.2392 14.5743 15.4327 14.8874C15.6263 15.2008 16.0372 15.2976 16.3503 15.1039Z" fill="#D2A64F"/>
<path d="M36.3157 19.3029C36.0025 19.4965 35.9057 19.9073 36.0992 20.2205C36.2928 20.5337 36.7037 20.6305 37.0168 20.437C37.33 20.2433 37.4268 19.8325 37.2333 19.5194C37.0397 19.2062 36.6288 19.1092 36.3157 19.3029Z" fill="#D2A64F"/>
<path d="M44.5668 8.18627C44.3732 7.8731 43.9623 7.77627 43.6492 7.96977C43.336 8.16344 43.2392 8.57427 43.4327 8.88743C43.6263 9.2006 44.0372 9.29743 44.3503 9.10393C44.6635 8.91027 44.7605 8.49943 44.5668 8.18627Z" fill="#D2A64F"/>
<path d="M9.67054 25.2031C10.089 25.2031 10.5125 25.0907 10.8937 24.8551C11.4239 24.5272 11.7945 24.0127 11.9377 23.4062C12.0807 22.7996 11.9792 22.1736 11.6514 21.6434C11.3235 21.1132 10.809 20.7426 10.2024 20.5994C9.59654 20.4562 8.96988 20.5579 8.43971 20.8857C7.90954 21.2136 7.53888 21.7281 7.39571 22.3346C7.25271 22.9412 7.35421 23.5672 7.68204 24.0974C8.12304 24.8104 8.88821 25.2031 9.67054 25.2031ZM8.69338 22.6409C8.75471 22.3809 8.91354 22.1604 9.14088 22.0197C9.36821 21.8792 9.63638 21.8356 9.89638 21.8971C10.1564 21.9584 10.3769 22.1172 10.5174 22.3446C10.6579 22.5717 10.7014 22.8401 10.64 23.0999C10.5787 23.3599 10.4199 23.5804 10.1925 23.7209C9.72371 24.0111 9.10604 23.8651 8.81604 23.3962C8.67554 23.1692 8.63204 22.9009 8.69338 22.6409Z" fill="#D2A64F"/>
<path d="M34.3485 12.0976C34.7895 12.8104 35.5546 13.2031 36.3371 13.2031C36.7556 13.2031 37.1791 13.0907 37.5603 12.8551C38.0905 12.5272 38.4611 12.0127 38.6043 11.4062C38.7473 10.7996 38.6458 10.1736 38.318 9.6434C37.9901 9.11323 37.4756 8.74256 36.869 8.5994C36.2631 8.45623 35.6365 8.55789 35.1063 8.88573C34.5761 9.21356 34.2055 9.72806 34.0623 10.3346C33.9191 10.9414 34.0208 11.5674 34.3485 12.0976ZM35.36 10.6409C35.4213 10.3809 35.5801 10.1604 35.8075 10.0197C36.0348 9.87923 36.303 9.8354 36.563 9.89706C36.823 9.9584 37.0435 10.1172 37.184 10.3446C37.3245 10.5717 37.368 10.8401 37.3066 11.0999C37.2453 11.3599 37.0865 11.5804 36.8591 11.7209C36.3903 12.0109 35.7726 11.8652 35.4826 11.3962C35.3421 11.1692 35.2986 10.9009 35.36 10.6409Z" fill="#D2A64F"/>
</svg>
