<svg width="60" height="60" viewBox="0 0 60 60" fill="none" xmlns="http://www.w3.org/2000/svg">
<g filter="url(#filter0_b)">
<rect width="60" height="60" fill="white" fill-opacity="0.15"/>
<path d="M40.3811 26.9657H40.3334V25.6797V25.6324V19.8125C40.3334 14.6039 35.9368 10.3662 30.5326 10.3662H28.8007C23.3967 10.3664 19.0001 14.6039 19.0001 19.8125V25.6324V25.6797V26.9667C17.1604 26.9769 15.6667 28.4757 15.6667 30.3177C15.6667 32.166 17.1704 33.6697 19.0187 33.6697H19.0242C19.2349 36.4654 20.8506 38.9719 23.3476 40.3115L23.7976 40.553C24.1934 40.7654 24.5971 40.9539 25.0066 41.1212V48.9659C25.0066 49.334 25.3051 49.6325 25.6732 49.6325H33.6667C34.0349 49.6325 34.3334 49.334 34.3334 48.9659V41.1997C34.8877 40.9835 35.4316 40.7282 35.9601 40.4309L36.1311 40.3345C38.5709 38.9619 40.1397 36.4414 40.3157 33.6699H40.3811C42.2294 33.6699 43.7331 32.1662 43.7331 30.3179C43.7331 28.4695 42.2294 26.9657 40.3811 26.9657ZM20.3334 19.8125C20.3334 15.339 24.1319 11.6995 28.8009 11.6995H30.5327C35.2017 11.6995 39.0002 15.339 39.0002 19.8125V24.921C37.5222 24.6234 33.5819 23.3634 27.1214 18.0382C26.4976 17.524 25.7424 17.2627 24.9894 17.2627C24.3772 17.2627 23.7664 17.4357 23.2297 17.7862C22.3807 18.3405 21.2231 19.2892 20.3334 20.7407V19.8125ZM17.0001 30.3177C17.0001 29.2109 17.8956 28.3102 19.0001 28.3V32.3354C17.8956 32.3252 17.0001 31.4245 17.0001 30.3177ZM33.0001 48.299H26.3401V41.5832C27.4627 41.9022 28.6161 42.0617 29.7689 42.0617C30.8551 42.0617 31.9406 41.9194 33.0001 41.6367V48.299ZM35.4772 39.1724L35.3062 39.2687C31.9192 41.1742 27.8526 41.2152 24.4281 39.378L23.9781 39.1365C21.7299 37.9305 20.3334 35.5965 20.3334 33.0452C20.3334 33.0315 20.3302 33.0189 20.3294 33.0054C20.3302 32.9919 20.3334 32.9792 20.3334 32.9655V25.6795C20.3334 22.035 22.3047 19.9825 23.9584 18.9024C24.6532 18.4485 25.6049 18.5164 26.2731 19.0669C33.1977 24.7745 37.4457 26.0072 39.0001 26.273V32.9655C39.0001 32.9719 39.0017 32.9779 39.0019 32.9842C39.0017 32.9905 39.0001 32.9964 39.0001 33.0029C39.0001 33.0277 39.0047 33.0512 39.0074 33.0754C39.0047 33.0995 39.0001 33.123 39.0001 33.1479C39.0001 35.6415 37.6502 37.9499 35.4772 39.1724ZM40.3811 32.3364H40.3334V28.299H40.3811C41.4942 28.299 42.3997 29.2045 42.3997 30.3177C42.3997 31.4309 41.4942 32.3364 40.3811 32.3364Z" fill="#D2A64F"/>
<path d="M26.6372 23.0601C26.546 23.0019 24.3773 21.6499 21.9048 23.1252C21.5887 23.3139 21.4853 23.7232 21.674 24.0394C21.7988 24.2486 22.0202 24.3646 22.2472 24.3646C22.3633 24.3646 22.481 24.3342 22.5882 24.2704C24.332 23.2297 25.8482 24.1399 25.9217 24.1852C26.2315 24.3814 26.6417 24.2902 26.8395 23.9811C27.038 23.6707 26.9473 23.2586 26.6372 23.0601Z" fill="#D2A64F"/>
<path d="M26.0428 27.9239C25.757 27.6915 25.3372 27.7349 25.105 28.0205C24.8507 28.3332 24.4593 28.4987 24.059 28.4632C23.7373 28.4347 23.4462 28.2825 23.2388 28.0349C23.0025 27.7524 22.582 27.715 22.2998 27.9515C22.0175 28.1877 21.9802 28.6082 22.2165 28.8905C22.6522 29.4112 23.2647 29.731 23.941 29.7914C24.0167 29.798 24.092 29.8014 24.167 29.8014C24.9285 29.8014 25.6533 29.4599 26.1395 28.8619C26.3717 28.576 26.3285 28.1562 26.0428 27.9239Z" fill="#D2A64F"/>
<path d="M36.7096 27.9239C36.4236 27.6915 36.0039 27.7349 35.7717 28.0205C35.5176 28.3332 35.1264 28.4987 34.7257 28.4632C34.4041 28.4347 34.1129 28.2825 33.9056 28.0349C33.6694 27.7524 33.2487 27.715 32.9666 27.9515C32.6842 28.1877 32.6469 28.6082 32.8832 28.8905C33.3189 29.4112 33.9314 29.731 34.6077 29.7914C34.6834 29.798 34.7587 29.8014 34.8337 29.8014C35.5952 29.8014 36.3201 29.4599 36.8062 28.8619C37.0384 28.576 36.9952 28.1562 36.7096 27.9239Z" fill="#D2A64F"/>
<path d="M31.3762 33.924C31.0902 33.6915 30.6705 33.7348 30.4384 34.0207C30.184 34.3333 29.7932 34.4987 29.3924 34.4633C29.0707 34.4348 28.7795 34.2827 28.5722 34.035C28.3359 33.7525 27.9154 33.7153 27.6332 33.9517C27.3509 34.1878 27.3135 34.6083 27.5499 34.8907C27.9855 35.4113 28.598 35.7312 29.2744 35.7915C29.35 35.7982 29.4254 35.8015 29.5004 35.8015C30.2619 35.8015 30.9867 35.46 31.4729 34.862C31.705 34.5762 31.6619 34.1563 31.3762 33.924Z" fill="#D2A64F"/>
<path d="M29.3335 25.3804C29.7463 25.3804 30.0809 25.0458 30.0809 24.6331C30.0809 24.2203 29.7463 23.8857 29.3335 23.8857C28.9208 23.8857 28.5862 24.2203 28.5862 24.6331C28.5862 25.0458 28.9208 25.3804 29.3335 25.3804Z" fill="#D2A64F"/>
<path d="M45.6666 14.3001C46.0347 14.3001 46.3332 14.0016 46.3332 13.6335V11.6335C46.3332 11.2653 46.0347 10.9668 45.6666 10.9668C45.2984 10.9668 44.9999 11.2653 44.9999 11.6335V13.6335C44.9999 14.0016 45.2984 14.3001 45.6666 14.3001Z" fill="#D2A64F"/>
<path d="M45.6666 15.6328C45.2984 15.6328 44.9999 15.9313 44.9999 16.2995V18.2995C44.9999 18.6676 45.2984 18.9661 45.6666 18.9661C46.0347 18.9661 46.3332 18.6676 46.3332 18.2995V16.2995C46.3332 15.9313 46.0347 15.6328 45.6666 15.6328Z" fill="#D2A64F"/>
<path d="M42.3332 15.6331H44.3332C44.7013 15.6331 44.9998 15.3346 44.9998 14.9665C44.9998 14.5983 44.7013 14.2998 44.3332 14.2998H42.3332C41.965 14.2998 41.6665 14.5983 41.6665 14.9665C41.6665 15.3346 41.965 15.6331 42.3332 15.6331Z" fill="#D2A64F"/>
<path d="M48.9999 14.2998H46.9999C46.6318 14.2998 46.3333 14.5983 46.3333 14.9665C46.3333 15.3346 46.6318 15.6331 46.9999 15.6331H48.9999C49.3681 15.6331 49.6666 15.3346 49.6666 14.9665C49.6666 14.5983 49.3681 14.2998 48.9999 14.2998Z" fill="#D2A64F"/>
<path d="M14.3334 38.9658C13.9652 38.9658 13.6667 39.2643 13.6667 39.6325V41.6325C13.6667 42.0007 13.9652 42.2992 14.3334 42.2992C14.7016 42.2992 15.0001 42.0007 15.0001 41.6325V39.6325C15.0001 39.2643 14.7016 38.9658 14.3334 38.9658Z" fill="#D2A64F"/>
<path d="M14.3334 43.6328C13.9652 43.6328 13.6667 43.9313 13.6667 44.2995V46.2995C13.6667 46.6677 13.9652 46.9662 14.3334 46.9662C14.7016 46.9662 15.0001 46.6677 15.0001 46.2995V44.2995C15.0001 43.9313 14.7016 43.6328 14.3334 43.6328Z" fill="#D2A64F"/>
<path d="M13 42.2998H11C10.6319 42.2998 10.3334 42.5983 10.3334 42.9665C10.3334 43.3346 10.6319 43.6331 11 43.6331H13C13.3682 43.6331 13.6667 43.3346 13.6667 42.9665C13.6667 42.5983 13.3682 42.2998 13 42.2998Z" fill="#D2A64F"/>
<path d="M17.6668 42.2998H15.6668C15.2986 42.2998 15.0001 42.5983 15.0001 42.9665C15.0001 43.3346 15.2986 43.6331 15.6668 43.6331H17.6668C18.035 43.6331 18.3335 43.3346 18.3335 42.9665C18.3335 42.5983 18.035 42.2998 17.6668 42.2998Z" fill="#D2A64F"/>
<path d="M47.6667 24.3001C48.0349 24.3001 48.3333 24.0017 48.3333 23.6335C48.3333 23.2653 48.0349 22.9668 47.6667 22.9668C47.2985 22.9668 47 23.2653 47 23.6335C47 24.0017 47.2985 24.3001 47.6667 24.3001Z" fill="#D2A64F"/>
<path d="M38.3332 44.2992C38.7014 44.2992 38.9999 44.0007 38.9999 43.6325C38.9999 43.2643 38.7014 42.9658 38.3332 42.9658C37.965 42.9658 37.6665 43.2643 37.6665 43.6325C37.6665 44.0007 37.965 44.2992 38.3332 44.2992Z" fill="#D2A64F"/>
<path d="M14.3334 22.9661C14.7016 22.9661 15.0001 22.6677 15.0001 22.2995C15.0001 21.9313 14.7016 21.6328 14.3334 21.6328C13.9652 21.6328 13.6667 21.9313 13.6667 22.2995C13.6667 22.6677 13.9652 22.9661 14.3334 22.9661Z" fill="#D2A64F"/>
<path d="M13.3333 15.6335C14.62 15.6335 15.6667 14.5868 15.6667 13.3001C15.6667 12.0135 14.62 10.9668 13.3333 10.9668C12.0467 10.9668 11 12.0135 11 13.3001C11 14.5868 12.0467 15.6335 13.3333 15.6335ZM13.3333 12.3001C13.8848 12.3001 14.3333 12.7486 14.3333 13.3001C14.3333 13.8516 13.8848 14.3001 13.3333 14.3001C12.7818 14.3001 12.3333 13.8516 12.3333 13.3001C12.3333 12.7486 12.7818 12.3001 13.3333 12.3001Z" fill="#D2A64F"/>
<path d="M45.3332 41.6328C44.0465 41.6328 42.9999 42.6795 42.9999 43.9661C42.9999 45.2528 44.0465 46.2995 45.3332 46.2995C46.6199 46.2995 47.6665 45.2528 47.6665 43.9661C47.6665 42.6795 46.6199 41.6328 45.3332 41.6328ZM45.3332 44.9661C44.7817 44.9661 44.3332 44.5176 44.3332 43.9661C44.3332 43.4146 44.7817 42.9661 45.3332 42.9661C45.8847 42.9661 46.3332 43.4146 46.3332 43.9661C46.3332 44.5176 45.8847 44.9661 45.3332 44.9661Z" fill="#D2A64F"/>
</g>
<defs>
<filter id="filter0_b" x="-4" y="-4" width="68" height="68" filterUnits="userSpaceOnUse" color-interpolation-filters="sRGB">
<feFlood flood-opacity="0" result="BackgroundImageFix"/>
<feGaussianBlur in="BackgroundImage" stdDeviation="2"/>
<feComposite in2="SourceAlpha" operator="in" result="effect1_backgroundBlur"/>
<feBlend mode="normal" in="SourceGraphic" in2="effect1_backgroundBlur" result="shape"/>
</filter>
</defs>
</svg>
