<svg width="38" height="40" viewBox="0 0 38 40" fill="none" xmlns="http://www.w3.org/2000/svg">
<path d="M35.2768 14.8769L31.8676 11.468L31.98 10.9964L35.7078 9.89352C35.991 9.80985 36.1856 9.54952 36.1856 9.25418C36.1856 8.95885 35.991 8.69852 35.7078 8.61485L31.98 7.51202L31.1675 4.09985C31.0958 3.79935 30.8276 3.58752 30.519 3.58752C30.2103 3.58752 29.9421 3.79935 29.8705 4.09985L29.0586 7.51202L28.1736 7.77385L22.849 2.44985C21.8646 1.46518 20.5553 0.922852 19.1635 0.922852C17.771 0.922852 16.4623 1.46518 15.478 2.44985L3.05029 14.8769C1.01779 16.909 1.01779 20.2164 3.05029 22.2485L3.67262 22.8708L2.94079 25.4682C2.55662 27.4907 0.207121 30.9682 0.183621 31.003C0.00395468 31.2677 0.0371213 31.6229 0.263621 31.849L7.65562 39.241C7.78445 39.3699 7.95512 39.4364 8.12696 39.4364C8.25196 39.4364 8.37829 39.4012 8.48895 39.3292L12.461 36.7582C13.481 36.0979 14.4575 35.3687 15.3925 34.5904L15.4778 34.6755C16.4621 35.6602 17.7708 36.2022 19.1633 36.2022C20.5553 36.2022 21.8645 35.6602 22.8488 34.6755L35.2765 22.2485C37.3086 20.216 37.3086 16.9094 35.2768 14.8769ZM29.8066 8.68118C30.0358 8.61352 30.211 8.42852 30.2663 8.19619L30.519 7.13402L30.7723 8.19619C30.8276 8.42869 31.0028 8.61352 31.232 8.68118L33.1688 9.25418L31.232 9.82719C31.0028 9.89485 30.8276 10.0799 30.7723 10.3122L30.519 11.3744L30.2663 10.3122C30.211 10.0797 30.0358 9.89485 29.8066 9.82719L27.8698 9.25418L29.8066 8.68118ZM11.7363 35.6392L8.21745 37.9172L1.59045 31.2902C2.27662 30.2242 3.89912 27.5652 4.23762 25.7735L7.08012 15.6844C7.19145 15.0997 7.71029 14.698 8.31446 14.7574C8.62245 14.7867 8.89979 14.935 9.09512 15.1754C9.28329 15.4065 9.37245 15.6949 9.34779 15.9905L8.02229 21.7347C7.95596 22.0247 8.08862 22.3235 8.34912 22.4677C8.60762 22.6119 8.93245 22.5667 9.14345 22.356L18.7145 12.7854C19.0875 12.4127 19.734 12.4139 20.1058 12.7854C20.2913 12.9712 20.3941 13.2184 20.3941 13.481C20.3941 13.744 20.2913 13.9912 20.1058 14.177C20.1058 14.177 20.1058 14.1772 20.1056 14.1772L13.0641 21.219C12.8038 21.4794 12.8038 21.9014 13.0641 22.1617C13.3245 22.422 13.7465 22.422 14.0068 22.1617L22.9938 13.1744C23.378 12.7909 24.0016 12.7909 24.3858 13.1744C24.5713 13.3602 24.6736 13.6074 24.6736 13.8704C24.6736 14.133 24.5715 14.3802 24.3858 14.566L22.0368 16.9149C22.0365 16.9152 22.036 16.9155 22.0355 16.9159L15.3981 23.5532C15.1378 23.8135 15.1378 24.2355 15.3981 24.4958C15.5283 24.626 15.699 24.6912 15.8695 24.6912C16.04 24.6912 16.2106 24.626 16.3408 24.4958L22.979 17.858C23.371 17.4667 24.0085 17.4669 24.4015 17.8585C24.7935 18.2509 24.7935 18.8895 24.4015 19.2817L22.4875 21.1957L17.4061 26.2767C17.1458 26.537 17.1458 26.959 17.4061 27.2194C17.6665 27.4797 18.0885 27.4797 18.3488 27.2194L18.706 26.8622C18.7063 26.8619 18.7066 26.8619 18.7068 26.8615L23.4301 22.1382C23.7928 21.7752 24.4263 21.7742 24.7901 22.1385C24.9718 22.3199 25.072 22.5614 25.072 22.8182C25.072 23.075 24.9716 23.3165 24.7901 23.4982L16.5088 31.7797C15.0606 33.2277 13.4551 34.5262 11.7363 35.6392ZM34.334 21.3059L21.9063 33.7328C21.1733 34.4655 20.1993 34.8689 19.1635 34.8689C18.127 34.8689 17.1531 34.4655 16.4206 33.7325L16.4041 33.716C16.7603 33.3922 17.1113 33.0629 17.4513 32.7227L25.7326 24.4412C26.1663 24.0075 26.4051 23.4314 26.4051 22.8185C26.4051 22.2052 26.1661 21.629 25.7326 21.1962C25.4921 20.9552 25.1998 20.7882 24.8875 20.681L25.344 20.2245C26.2561 19.3124 26.2561 17.828 25.344 16.9155C25.0881 16.6602 24.7855 16.484 24.4651 16.3719L25.3283 15.5087C25.7658 15.0712 26.0066 14.4892 26.0066 13.8704C26.0066 13.2512 25.7658 12.6692 25.3283 12.2314C24.4226 11.3274 22.954 11.329 22.051 12.2317L21.5835 12.6992C21.4718 12.3869 21.2981 12.0922 21.0485 11.8427C20.1741 10.9674 18.6475 10.966 17.7718 11.8427L9.84479 19.7697L10.6573 16.2485C10.6631 16.2232 10.6671 16.1977 10.6703 16.1724C10.7438 15.5067 10.5525 14.854 10.13 14.3342C9.70745 13.8147 9.10779 13.4934 8.44112 13.4299C7.15462 13.3087 6.01079 14.17 5.78362 15.379L4.08745 21.3999L3.99329 21.3057C2.48096 19.793 2.48096 17.332 3.99329 15.8194L16.421 3.39235C17.1535 2.65968 18.1273 2.25602 19.1638 2.25602C20.1996 2.25602 21.1736 2.65968 21.9066 3.39235L26.7188 8.20402L25.3305 8.61469C25.0473 8.69835 24.8526 8.95868 24.8526 9.25402C24.8526 9.54935 25.0473 9.80968 25.3305 9.89335L29.059 10.9962L29.8708 14.4084C29.9425 14.7089 30.2106 14.9207 30.5193 14.9207C30.828 14.9207 31.0961 14.7089 31.1678 14.4084L31.5053 12.9907L34.3345 15.8195C35.8458 17.3322 35.8458 19.7932 34.334 21.3059Z" fill="#D2A64F"/>
<path d="M3.82975 3.23014C4.19825 3.23014 4.49642 2.93164 4.49642 2.56347V1.23014C4.49642 0.861976 4.19825 0.563477 3.82975 0.563477C3.46125 0.563477 3.16309 0.861976 3.16309 1.23014V2.56347C3.16309 2.93164 3.46125 3.23014 3.82975 3.23014Z" fill="#D2A64F"/>
<path d="M3.82975 4.56348C3.46125 4.56348 3.16309 4.86198 3.16309 5.23014V6.56347C3.16309 6.93164 3.46125 7.23014 3.82975 7.23014C4.19825 7.23014 4.49642 6.93164 4.49642 6.56347V5.23014C4.49642 4.86198 4.19825 4.56348 3.82975 4.56348Z" fill="#D2A64F"/>
<path d="M1.16374 4.5638H2.49707C2.86557 4.5638 3.16373 4.2653 3.16373 3.89713C3.16373 3.52897 2.86557 3.23047 2.49707 3.23047H1.16374C0.795237 3.23047 0.49707 3.52897 0.49707 3.89713C0.49707 4.2653 0.795237 4.5638 1.16374 4.5638Z" fill="#D2A64F"/>
<path d="M5.16374 4.5638H6.49707C6.86557 4.5638 7.16373 4.2653 7.16373 3.89713C7.16373 3.52897 6.86557 3.23047 6.49707 3.23047H5.16374C4.79524 3.23047 4.49707 3.52897 4.49707 3.89713C4.49707 4.2653 4.79524 4.5638 5.16374 4.5638Z" fill="#D2A64F"/>
<path d="M32.1634 33.2295C30.8769 33.2295 29.8301 34.2763 29.8301 35.5628C29.8301 36.8493 30.8769 37.8961 32.1634 37.8961C33.4499 37.8961 34.4967 36.8493 34.4967 35.5628C34.4967 34.2763 33.4499 33.2295 32.1634 33.2295ZM32.1634 36.5628C31.6119 36.5628 31.1634 36.1143 31.1634 35.5628C31.1634 35.0113 31.6119 34.5628 32.1634 34.5628C32.7149 34.5628 33.1634 35.0113 33.1634 35.5628C33.1634 36.1143 32.7147 36.5628 32.1634 36.5628Z" fill="#D2A64F"/>
<path d="M37.2185 28.916C36.8249 28.916 36.5059 29.2352 36.5059 29.6287C36.5059 30.0224 36.8249 30.3415 37.2185 30.3415C37.6122 30.3415 37.9312 30.0224 37.9312 29.6287C37.9313 29.235 37.6122 28.916 37.2185 28.916Z" fill="#D2A64F"/>
</svg>
