<svg width="40" height="38" viewBox="0 0 40 38" fill="none" xmlns="http://www.w3.org/2000/svg">
<path d="M39.5042 26.7407L37.7962 24.7646C36.4553 23.4237 34.2597 23.4087 32.9017 24.7327C32.219 25.3977 31.1165 25.3902 30.441 24.7154L30.383 24.6577C29.7323 24.0067 28.8663 23.6479 27.9455 23.6479C27.8937 23.6479 27.8445 23.6606 27.7932 23.6627L19.4413 9.47941L32.0923 8.32941C32.9898 8.24774 33.6662 7.50674 33.6662 6.60608C33.6662 5.66724 32.9315 4.90791 31.9937 4.87691L16.8225 4.37108C15.746 4.33391 14.7303 4.83424 14.1008 5.70608C13.471 6.57774 13.317 7.70057 13.6887 8.70957L16.8772 17.3636L7.53134 25.0601C7.37967 24.9711 7.23384 24.8689 7.10384 24.7389C5.76017 23.3946 3.57251 23.3946 2.22884 24.7389L0.528341 26.4394C0.403341 26.5644 0.333008 26.7341 0.333008 26.9107V36.9107C0.333008 37.2789 0.631508 37.5774 0.999674 37.5774H38.9997C39.3678 37.5774 39.6663 37.2789 39.6663 36.9107V27.1764C39.6663 27.0166 39.6087 26.8619 39.5042 26.7407ZM18.292 17.3469L14.9402 8.24857C14.7188 7.64774 14.8067 7.00574 15.1817 6.48658C15.5563 5.96808 16.1325 5.68908 16.7783 5.70374L31.9498 6.20957C32.1647 6.21674 32.333 6.39091 32.333 6.60608C32.333 6.81274 32.1777 6.98274 31.972 7.00124L18.2728 8.24674C18.0453 8.26757 17.8442 8.40324 17.74 8.60641C17.6355 8.80991 17.6427 9.05207 17.7585 9.24891L26.447 24.0044C26.1055 24.1704 25.7845 24.3814 25.5082 24.6577L25.4272 24.7387C24.6033 25.5629 23.2618 25.5636 22.4373 24.7387C21.0937 23.3944 18.906 23.3944 17.5623 24.7387C17.2372 25.0636 16.8058 25.2426 16.3465 25.2426C16.3442 25.2426 16.3417 25.2426 16.3393 25.2426C15.8777 25.2406 15.4452 25.0584 15.1197 24.7279L15.05 24.6576C14.3993 24.0066 13.5333 23.6477 12.6125 23.6477C11.692 23.6477 10.826 24.0064 10.175 24.6576L10.094 24.7386C9.93517 24.8974 9.75351 25.0161 9.56367 25.1137L18.0905 18.0917C18.3088 17.9117 18.39 17.6129 18.292 17.3469ZM3.17151 25.6816C3.99567 24.8574 5.33684 24.8574 6.16117 25.6816C6.81217 26.3326 7.67817 26.6914 8.59867 26.6914C9.51951 26.6914 10.3855 26.3327 11.0365 25.6816L11.1175 25.6006C11.9167 24.8021 13.3115 24.8044 14.1048 25.5982L14.1708 25.6649C14.746 26.2492 15.5143 26.5727 16.334 26.5757C16.3382 26.5761 16.3425 26.5761 16.3463 26.5761C17.1618 26.5761 17.928 26.2587 18.5048 25.6816C19.329 24.8574 20.6702 24.8574 21.4945 25.6816C22.8385 27.0262 25.0263 27.0262 26.3698 25.6816L26.4508 25.6006C27.25 24.8021 28.6413 24.8007 29.4417 25.6019L29.4997 25.6596C30.6862 26.8464 32.6298 26.8587 33.832 25.6879C34.6702 24.8709 36.025 24.8799 36.8203 25.6716L38.333 27.4244V31.5591L37.5455 30.7662C36.2112 29.4231 34.0267 29.4086 32.675 30.7344C31.9995 31.3966 30.9087 31.3894 30.2423 30.7181L30.184 30.6594C29.5362 30.0071 28.6748 29.6481 27.7585 29.6481C26.8418 29.6481 25.9805 30.0071 25.3333 30.6587L25.252 30.7404C24.461 31.5366 23.084 31.5366 22.293 30.7404C21.6452 30.0881 20.7838 29.7291 19.8672 29.7291C18.9508 29.7291 18.0895 30.0881 17.4417 30.7404C17.12 31.0642 16.6933 31.2427 16.2392 31.2427C16.2372 31.2427 16.235 31.2427 16.2327 31.2427C15.7763 31.2407 15.3482 31.0591 15.0267 30.7304L14.957 30.6594C14.3092 30.0071 13.4478 29.6481 12.5315 29.6481C11.6148 29.6481 10.7535 30.0071 10.1053 30.6597L10.0253 30.7404C9.23434 31.5359 7.85701 31.5366 7.06601 30.7404C6.41818 30.0881 5.55684 29.7291 4.64017 29.7291C3.72384 29.7291 2.86251 30.0884 2.21501 30.7404L1.66634 31.2934V27.1867L3.17151 25.6816ZM1.66634 36.2441V33.1854L3.16151 31.6799C3.95251 30.8837 5.32951 30.8837 6.12051 31.6799C6.76834 32.3322 7.62967 32.6912 8.54601 32.6912C9.46268 32.6912 10.324 32.3322 10.9722 31.6796L11.0522 31.5989C11.8425 30.8027 13.2227 30.8049 14.0085 31.5959L14.0745 31.6632C14.6468 32.2486 15.4113 32.5727 16.2278 32.5757C16.2317 32.5761 16.236 32.5761 16.2398 32.5761C17.0517 32.5761 17.814 32.2581 18.388 31.6799C19.1787 30.8831 20.5563 30.8837 21.3473 31.6799C21.9952 32.3322 22.8565 32.6912 23.7732 32.6912C24.6895 32.6912 25.5508 32.3319 26.1977 31.6806L26.279 31.5989C27.0697 30.8027 28.4467 30.8017 29.2387 31.5992L29.297 31.6579C30.4787 32.8481 32.4135 32.8607 33.6088 31.6862C34.4388 30.8721 35.7807 30.8809 36.5997 31.7057L38.333 33.4511V36.2441H1.66634Z" fill="#D2A64F"/>
<path d="M1.71094 14.1541C1.71094 14.5477 2.0301 14.8667 2.4236 14.8667C2.8171 14.8667 3.13644 14.5476 3.13644 14.1541C3.13644 13.7606 2.81727 13.4414 2.4236 13.4414C2.02994 13.4414 1.71094 13.7604 1.71094 14.1541Z" fill="#D2A64F"/>
<path d="M5.03483 3.08951C5.403 3.08951 5.7015 2.79102 5.7015 2.42285V1.08952C5.7015 0.721351 5.403 0.422852 5.03483 0.422852C4.66666 0.422852 4.36816 0.721351 4.36816 1.08952V2.42285C4.36816 2.79102 4.66666 3.08951 5.03483 3.08951Z" fill="#D2A64F"/>
<path d="M5.03483 4.42285C4.66666 4.42285 4.36816 4.72135 4.36816 5.08952V6.42285C4.36816 6.79102 4.66666 7.08952 5.03483 7.08952C5.403 7.08952 5.7015 6.79102 5.7015 6.42285V5.08952C5.7015 4.72135 5.403 4.42285 5.03483 4.42285Z" fill="#D2A64F"/>
<path d="M2.36784 4.42318H3.70117C4.06934 4.42318 4.36784 4.12468 4.36784 3.75651C4.36784 3.38834 4.06934 3.08984 3.70117 3.08984H2.36784C1.99967 3.08984 1.70117 3.38834 1.70117 3.75651C1.70117 4.12468 1.99967 4.42318 2.36784 4.42318Z" fill="#D2A64F"/>
<path d="M6.36881 4.42318H7.70215C8.07031 4.42318 8.36881 4.12468 8.36881 3.75651C8.36881 3.38834 8.07031 3.08984 7.70215 3.08984H6.36881C6.00065 3.08984 5.70215 3.38834 5.70215 3.75651C5.70215 4.12468 6.00065 4.42318 6.36881 4.42318Z" fill="#D2A64F"/>
<path d="M30.0003 11.0771C27.611 11.0771 25.667 13.0211 25.667 15.4105V16.6846C25.667 19.3826 27.8617 21.5771 30.5595 21.5771H33.667C34.0352 21.5771 34.3337 21.2786 34.3337 20.9105V15.4105C34.3337 13.0211 32.3897 11.0771 30.0003 11.0771ZM33.0003 20.2438H30.5595C28.597 20.2438 27.0003 18.6471 27.0003 16.6846V15.4105C27.0003 13.7561 28.346 12.4105 30.0003 12.4105C31.6547 12.4105 33.0003 13.7561 33.0003 15.4105V20.2438Z" fill="#D2A64F"/>
</svg>
