<svg width="60" height="60" viewBox="0 0 60 60" fill="none" xmlns="http://www.w3.org/2000/svg">
<g filter="url(#filter0_b)">
<rect width="60" height="60" fill="white" fill-opacity="0.15"/>
<path d="M44.6667 14.9993C45.0349 14.9993 45.3334 14.7009 45.3334 14.3327C45.3334 13.9645 45.0349 13.666 44.6667 13.666C44.2985 13.666 44 13.9645 44 14.3327C44 14.7009 44.2985 14.9993 44.6667 14.9993Z" fill="#D2A64F"/>
<path d="M15.6672 44.1953C15.4069 43.9349 14.9849 43.9349 14.7246 44.1953L14.1959 44.7239L13.6672 44.1953C13.4069 43.9349 12.9849 43.9349 12.7245 44.1953C12.4642 44.4556 12.4642 44.8776 12.7245 45.1379L13.2532 45.6666L12.7245 46.1953C12.4642 46.4556 12.4642 46.8776 12.7245 47.1379C12.8547 47.2681 13.0254 47.3333 13.1959 47.3333C13.3664 47.3333 13.537 47.2681 13.6672 47.1379L14.1959 46.6093L14.7246 47.1379C14.8547 47.2681 15.0254 47.3333 15.1959 47.3333C15.3664 47.3333 15.5371 47.2681 15.6672 47.1379C15.9276 46.8776 15.9276 46.4556 15.6672 46.1953L15.1386 45.6666L15.6672 45.1379C15.9276 44.8776 15.9276 44.4558 15.6672 44.1953Z" fill="#D2A64F"/>
<path d="M49.9526 21.4185C48.6238 18.0975 43.2559 17.7153 41.9467 17.6718C39.3596 15.1332 37.3614 14.1503 36.5607 13.8278L35.9801 11.5047C35.8909 11.1478 35.5282 10.9285 35.1721 11.0197C34.8146 11.1088 34.5972 11.4708 34.6871 11.8283L35.3537 14.495C35.4104 14.7235 35.5874 14.9062 35.8141 14.9732C35.8362 14.9797 38.0549 15.6642 41.1956 18.8045C41.3206 18.9295 41.4899 18.9995 41.6662 18.9998C43.3036 19.0018 47.7606 19.5295 48.7144 21.9142C48.8184 22.1743 49.0691 22.3332 49.3334 22.3332C49.4161 22.3332 49.5001 22.3175 49.5808 22.2853C49.9226 22.1483 50.0893 21.7607 49.9526 21.4185Z" fill="#D2A64F"/>
<path d="M19.1381 18.8047C22.2819 15.6609 24.1961 14.9711 24.2111 14.9659C24.4272 14.8936 24.5919 14.7162 24.6466 14.4952L25.3132 11.8286C25.4031 11.4711 25.1856 11.1092 24.8282 11.0199C24.4696 10.9281 24.1089 11.1479 24.0202 11.5049L23.4342 13.8484C22.7109 14.1827 20.9264 15.1707 18.3867 17.6719C17.0384 17.7132 11.3809 18.0869 10.0476 21.4189C9.91091 21.7611 10.0776 22.1487 10.4192 22.2857C10.5001 22.3181 10.5841 22.3337 10.6667 22.3337C10.9311 22.3337 11.1817 22.1749 11.2859 21.9144C12.2397 19.5291 16.9376 19.0019 18.6674 19.0001C18.8437 18.9997 19.0131 18.9297 19.1381 18.8047Z" fill="#D2A64F"/>
<path d="M44.7121 29.5402L42.3794 31.9992H33.6411C32.8736 31.9992 32.1718 31.5224 31.8429 30.7807L30.6593 26.4887C30.5798 26.1994 30.3168 25.999 30.0168 25.999C29.7168 25.999 29.4536 26.1992 29.3743 26.4887L28.1906 30.7807C27.8618 31.5222 27.1599 31.9992 26.3924 31.9992H18.2864L15.9544 29.5405C15.7018 29.2732 15.2793 29.2619 15.0118 29.5155C14.7448 29.7689 14.7338 30.191 14.9871 30.4579L17.5164 33.1245C17.6421 33.2574 17.8173 33.3325 18.0001 33.3325H26.3926C27.7103 33.3325 28.9049 32.5197 29.4356 31.2615C29.4466 31.2349 29.4558 31.2075 29.4636 31.1795L30.0169 29.1734L30.5703 31.1795C30.5781 31.2075 30.5873 31.2349 30.5983 31.2615C31.1289 32.5197 32.3236 33.3325 33.6413 33.3325H42.6659C42.8489 33.3325 43.0239 33.2574 43.1496 33.1249L45.6796 30.4582C45.9329 30.1909 45.9218 29.769 45.6549 29.5155C45.3879 29.2615 44.9648 29.2734 44.7121 29.5402Z" fill="#D2A64F"/>
<path d="M19.9656 36.5445C20.0248 36.3669 20.0066 36.1729 19.9161 36.0094C19.825 35.8457 19.6695 35.728 19.4871 35.6849C18.6713 35.4915 16.8576 34.834 16.4591 34.037C16.3133 33.7447 15.9755 33.603 15.6655 33.6985C15.3536 33.7952 15.1576 34.1035 15.2026 34.427C15.228 34.609 15.844 38.9244 17.7416 42.3047L19.1961 45.1619V48.3354C19.1961 48.7035 19.4943 49.002 19.8628 49.002C20.2313 49.002 20.5295 48.7035 20.5295 48.3354V45.002C20.5295 44.8969 20.5048 44.7934 20.4571 44.6997L18.9175 41.6762C17.8816 39.8305 17.2436 37.638 16.8895 36.1147C17.4885 36.4409 18.1153 36.6694 18.5665 36.811C18.4173 38.9542 20.5886 41.1987 20.862 41.4719C21.1223 41.7322 21.5443 41.7322 21.8046 41.4719C22.065 41.2115 22.065 40.7895 21.8046 40.5292C21.189 39.9127 19.5281 37.858 19.9656 36.5445Z" fill="#D2A64F"/>
<path d="M44.8972 33.7086C44.5795 33.5924 44.2227 33.7328 44.0704 34.0361C43.7124 34.7523 41.7879 35.4289 40.5359 35.6806C40.3484 35.7184 40.1862 35.8346 40.0899 35.9999C39.9942 36.1653 39.974 36.3639 40.0345 36.5451C40.4727 37.8596 38.8549 39.8671 38.1947 40.5298C37.9349 40.7904 37.9355 41.2124 38.196 41.4724C38.4564 41.7319 38.8777 41.7334 39.138 41.4721C39.4102 41.2003 41.5625 38.9751 41.4355 36.8409C41.9772 36.7019 42.7375 36.4718 43.4505 36.1339C42.9635 37.6639 42.179 39.8289 41.1562 41.6514L39.2962 44.6511C39.2304 44.7566 39.1959 44.8783 39.1959 45.0023V48.3356C39.1959 48.7038 39.494 49.0023 39.8625 49.0023C40.231 49.0023 40.5292 48.7038 40.5292 48.3356V45.1921L42.3039 42.3288C44.197 38.9558 45.2687 34.6748 45.3137 34.4941C45.3952 34.1648 45.2162 33.8261 44.8972 33.7086Z" fill="#D2A64F"/>
<path d="M29.8627 47.9993C30.2309 47.9993 30.5293 47.7009 30.5293 47.3327C30.5293 46.9645 30.2309 46.666 29.8627 46.666C29.4945 46.666 29.196 46.9645 29.196 47.3327C29.196 47.7009 29.4945 47.9993 29.8627 47.9993Z" fill="#D2A64F"/>
<path d="M21.8785 18.5218C21.799 18.8811 22.0257 19.2373 22.385 19.317L28.1955 20.6083L29.3915 21.8043C29.5217 21.9345 29.6923 21.9996 29.8628 21.9996C30.0333 21.9996 30.204 21.9345 30.3342 21.8043L31.5302 20.6083L37.3406 19.317C37.7 19.2371 37.9266 18.8811 37.8471 18.5218C37.7676 18.1618 37.411 17.9371 37.0516 18.0156L31.0517 19.349C30.928 19.3763 30.8147 19.4385 30.7248 19.5283L29.8628 20.3903L29.0008 19.5283C28.911 19.4385 28.7977 19.3763 28.674 19.349L22.674 18.0156C22.3178 17.9378 21.9585 18.1618 21.8785 18.5218Z" fill="#D2A64F"/>
<path d="M29.8627 39.333C29.4942 39.333 29.196 39.6315 29.196 39.9997V45.333C29.196 45.7012 29.4942 45.9997 29.8627 45.9997C30.2312 45.9997 30.5293 45.7012 30.5293 45.333V39.9997C30.5293 39.6315 30.2312 39.333 29.8627 39.333Z" fill="#D2A64F"/>
</g>
<defs>
<filter id="filter0_b" x="-4" y="-4" width="68" height="68" filterUnits="userSpaceOnUse" color-interpolation-filters="sRGB">
<feFlood flood-opacity="0" result="BackgroundImageFix"/>
<feGaussianBlur in="BackgroundImage" stdDeviation="2"/>
<feComposite in2="SourceAlpha" operator="in" result="effect1_backgroundBlur"/>
<feBlend mode="normal" in="SourceGraphic" in2="effect1_backgroundBlur" result="shape"/>
</filter>
</defs>
</svg>
