<svg width="40" height="39" viewBox="0 0 40 39" fill="none" xmlns="http://www.w3.org/2000/svg">
<path d="M34.6667 3.99935C35.0349 3.99935 35.3334 3.70087 35.3334 3.33268C35.3334 2.96449 35.0349 2.66602 34.6667 2.66602C34.2985 2.66602 34 2.96449 34 3.33268C34 3.70087 34.2985 3.99935 34.6667 3.99935Z" fill="#D2A64F"/>
<path d="M5.66722 33.1953C5.40688 32.9349 4.98488 32.9349 4.72455 33.1953L4.19588 33.7239L3.66722 33.1953C3.40688 32.9349 2.98488 32.9349 2.72455 33.1953C2.46421 33.4556 2.46421 33.8776 2.72455 34.1379L3.25321 34.6666L2.72455 35.1953C2.46421 35.4556 2.46421 35.8776 2.72455 36.1379C2.85471 36.2681 3.02538 36.3333 3.19588 36.3333C3.36638 36.3333 3.53705 36.2681 3.66722 36.1379L4.19588 35.6093L4.72455 36.1379C4.85472 36.2681 5.02538 36.3333 5.19588 36.3333C5.36638 36.3333 5.53705 36.2681 5.66722 36.1379C5.92755 35.8776 5.92755 35.4556 5.66722 35.1953L5.13855 34.6666L5.66722 34.1379C5.92755 33.8776 5.92755 33.4558 5.66722 33.1953Z" fill="#D2A64F"/>
<path d="M39.9528 10.4185C38.6239 7.09752 33.2561 6.71535 31.9469 6.67185C29.3598 4.13318 27.3616 3.15035 26.5609 2.82785L25.9803 0.504683C25.8911 0.14785 25.5284 -0.0714835 25.1723 0.0196832C24.8148 0.10885 24.5974 0.47085 24.6873 0.82835L25.3539 3.49502C25.4106 3.72352 25.5876 3.90618 25.8143 3.97318C25.8364 3.97968 28.0551 4.66418 31.1958 7.80452C31.3208 7.92952 31.4901 7.99952 31.6664 7.99985C33.3038 8.00185 37.7608 8.52952 38.7146 10.9142C38.8186 11.1743 39.0693 11.3332 39.3336 11.3332C39.4163 11.3332 39.5003 11.3175 39.5809 11.2853C39.9228 11.1483 40.0894 10.7607 39.9528 10.4185Z" fill="#D2A64F"/>
<path d="M9.13826 7.80475C12.2821 4.66091 14.1963 3.97108 14.2113 3.96591C14.4274 3.89358 14.5921 3.71625 14.6468 3.49525L15.3134 0.82858C15.4033 0.47108 15.1858 0.109247 14.8284 0.0199133C14.4698 -0.07192 14.1091 0.147913 14.0204 0.504913L13.4344 2.84841C12.7111 3.18275 10.9266 4.17075 8.38693 6.67191C7.0386 6.71325 1.3811 7.08691 0.0477646 10.4189C-0.088902 10.7611 0.0777645 11.1487 0.419431 11.2857C0.500265 11.3181 0.584265 11.3337 0.666931 11.3337C0.931265 11.3337 1.18193 11.1749 1.2861 10.9144C2.23993 8.52908 6.93776 8.00191 8.6676 8.00008C8.84393 7.99975 9.01326 7.92975 9.13826 7.80475Z" fill="#D2A64F"/>
<path d="M34.7122 18.5402L32.3796 20.9992H23.6412C22.8737 20.9992 22.1719 20.5224 21.8431 19.7807L20.6594 15.4887C20.5799 15.1994 20.3169 14.999 20.0169 14.999C19.7169 14.999 19.4537 15.1992 19.3744 15.4887L18.1907 19.7807C17.8619 20.5222 17.1601 20.9992 16.3926 20.9992H8.28655L5.95455 18.5405C5.70189 18.2732 5.27939 18.2619 5.01189 18.5155C4.74489 18.7689 4.73389 19.191 4.98722 19.4579L7.51655 22.1245C7.64222 22.2574 7.81739 22.3325 8.00022 22.3325H16.3927C17.7104 22.3325 18.9051 21.5197 19.4357 20.2615C19.4467 20.2349 19.4559 20.2075 19.4637 20.1795L20.0171 18.1734L20.5704 20.1795C20.5782 20.2075 20.5874 20.2349 20.5984 20.2615C21.1291 21.5197 22.3237 22.3325 23.6414 22.3325H32.6661C32.8491 22.3325 33.0241 22.2574 33.1497 22.1249L35.6797 19.4582C35.9331 19.1909 35.9219 18.769 35.6551 18.5155C35.3881 18.2615 34.9649 18.2734 34.7122 18.5402Z" fill="#D2A64F"/>
<path d="M9.9657 25.5445C10.0249 25.3669 10.0067 25.1729 9.9162 25.0094C9.82503 24.8457 9.66953 24.728 9.4872 24.6849C8.67136 24.4915 6.8577 23.834 6.4592 23.037C6.31336 22.7447 5.97553 22.603 5.66553 22.6985C5.3537 22.7952 5.1577 23.1035 5.2027 23.427C5.22803 23.609 5.84403 27.9244 7.7417 31.3047L9.1962 34.1619V37.3354C9.1962 37.7035 9.49436 38.002 9.86286 38.002C10.2314 38.002 10.5295 37.7035 10.5295 37.3354V34.002C10.5295 33.8969 10.5049 33.7934 10.4572 33.6997L8.91753 30.6762C7.8817 28.8305 7.2437 26.638 6.88953 25.1147C7.48853 25.4409 8.11536 25.6694 8.56653 25.811C8.41736 27.9542 10.5887 30.1987 10.862 30.4719C11.1224 30.7322 11.5444 30.7322 11.8047 30.4719C12.065 30.2115 12.065 29.7895 11.8047 29.5292C11.189 28.9127 9.5282 26.858 9.9657 25.5445Z" fill="#D2A64F"/>
<path d="M34.8974 22.7086C34.5798 22.5924 34.2229 22.7328 34.0706 23.0361C33.7126 23.7523 31.7881 24.4289 30.5361 24.6806C30.3486 24.7184 30.1864 24.8346 30.0901 24.9999C29.9944 25.1653 29.9743 25.3639 30.0348 25.5451C30.4729 26.8596 28.8551 28.8671 28.1949 29.5298C27.9351 29.7904 27.9358 30.2124 28.1963 30.4724C28.4566 30.7319 28.8779 30.7334 29.1383 30.4721C29.4104 30.2003 31.5628 27.9751 31.4358 25.8409C31.9774 25.7019 32.7378 25.4718 33.4508 25.1339C32.9638 26.6639 32.1793 28.8289 31.1564 30.6514L29.2964 33.6511C29.2306 33.7566 29.1961 33.8783 29.1961 34.0023V37.3356C29.1961 37.7038 29.4943 38.0023 29.8628 38.0023C30.2313 38.0023 30.5294 37.7038 30.5294 37.3356V34.1921L32.3041 31.3288C34.1973 27.9558 35.2689 23.6748 35.3139 23.4941C35.3954 23.1648 35.2164 22.8261 34.8974 22.7086Z" fill="#D2A64F"/>
<path d="M19.863 36.9993C20.2312 36.9993 20.5296 36.7009 20.5296 36.3327C20.5296 35.9645 20.2312 35.666 19.863 35.666C19.4948 35.666 19.1963 35.9645 19.1963 36.3327C19.1963 36.7009 19.4948 36.9993 19.863 36.9993Z" fill="#D2A64F"/>
<path d="M11.8787 7.5218C11.7992 7.88113 12.0258 8.2373 12.3852 8.31696L18.1957 9.6083L19.3917 10.8043C19.5218 10.9345 19.6925 10.9996 19.863 10.9996C20.0335 10.9996 20.2042 10.9345 20.3343 10.8043L21.5303 9.6083L27.3408 8.31696C27.7002 8.23713 27.9268 7.88113 27.8473 7.5218C27.7678 7.1618 27.4112 6.93713 27.0518 7.01563L21.0518 8.34896C20.9282 8.3763 20.8148 8.43846 20.725 8.5283L19.863 9.3903L19.001 8.5283C18.9112 8.43846 18.7978 8.3763 18.6742 8.34896L12.6742 7.01563C12.318 6.9378 11.9587 7.1618 11.8787 7.5218Z" fill="#D2A64F"/>
<path d="M19.863 28.333C19.4945 28.333 19.1963 28.6315 19.1963 28.9997V34.333C19.1963 34.7012 19.4945 34.9997 19.863 34.9997C20.2315 34.9997 20.5296 34.7012 20.5296 34.333V28.9997C20.5296 28.6315 20.2315 28.333 19.863 28.333Z" fill="#D2A64F"/>
</svg>
