<svg width="20" height="20" viewBox="0 0 20 20" fill="none" xmlns="http://www.w3.org/2000/svg">
<path d="M10 13.125C11.7259 13.125 13.125 11.7259 13.125 10C13.125 8.27411 11.7259 6.875 10 6.875C8.27411 6.875 6.875 8.27411 6.875 10C6.875 11.7259 8.27411 13.125 10 13.125Z" stroke="#D2A64F" stroke-miterlimit="10"/>
<path d="M13.4375 2.8125H6.5625C4.49143 2.8125 2.8125 4.49143 2.8125 6.5625V13.4375C2.8125 15.5086 4.49143 17.1875 6.5625 17.1875H13.4375C15.5086 17.1875 17.1875 15.5086 17.1875 13.4375V6.5625C17.1875 4.49143 15.5086 2.8125 13.4375 2.8125Z" stroke="#D2A64F" stroke-linecap="round" stroke-linejoin="round"/>
<path d="M14.5 5.9375C14.5 6.17912 14.3041 6.375 14.0625 6.375C13.8209 6.375 13.625 6.17912 13.625 5.9375C13.625 5.69588 13.8209 5.5 14.0625 5.5C14.3041 5.5 14.5 5.69588 14.5 5.9375Z" fill="black" stroke="#D2A64F"/>
</svg>
