<svg width="40" height="41" viewBox="0 0 40 41" fill="none" xmlns="http://www.w3.org/2000/svg">
<rect y="0.229004" width="40" height="40" fill="white" fill-opacity="0.2"/>
<rect x="0.5" y="0.729004" width="39" height="39" stroke="white" stroke-opacity="0.4"/>
<path d="M31.0748 24.0988C30.5313 23.4465 29.9138 22.8618 29.3165 22.2964C29.1042 22.0953 28.8846 21.8874 28.6729 21.6807C28.0652 21.0865 28.0431 20.8633 28.5242 20.1884C28.8571 19.7232 29.21 19.2574 29.5514 18.807C29.8609 18.3982 30.1811 17.9756 30.4879 17.5515L30.5509 17.4644C31.1374 16.6529 31.7439 15.8138 32.0667 14.8016C32.1505 14.5346 32.2385 14.1416 32.0372 13.813C31.8362 13.4846 31.4461 13.3845 31.1701 13.3377C31.0336 13.3145 30.898 13.3114 30.7722 13.3114L26.9316 13.3086L26.8999 13.3084C26.3192 13.3084 25.9279 13.582 25.7036 14.145C25.4895 14.683 25.2544 15.2558 24.986 15.8005C24.452 16.8851 23.7737 18.1343 22.7923 19.1762L22.7508 19.2205C22.6349 19.3451 22.5036 19.4862 22.4076 19.4862C22.3929 19.4862 22.3769 19.4833 22.3588 19.4776C22.1555 19.3984 22.0191 18.9063 22.0252 18.6774C22.0253 18.6742 22.0254 18.6711 22.0254 18.6679L22.0227 14.229C22.0227 14.2136 22.0216 14.1983 22.0196 14.1831C21.9219 13.4615 21.7055 13.0123 20.8878 12.8522C20.8661 12.8478 20.8439 12.8457 20.8218 12.8457H16.8283C16.1777 12.8457 15.8192 13.1101 15.4822 13.5059C15.3912 13.6117 15.2019 13.832 15.2958 14.0992C15.391 14.3704 15.7001 14.4284 15.8007 14.4472C16.3003 14.5423 16.5819 14.8479 16.6617 15.3818C16.801 16.309 16.8181 17.2987 16.7156 18.4964C16.687 18.8293 16.6305 19.0864 16.5373 19.306C16.5156 19.3573 16.4389 19.5246 16.3607 19.5246C16.3358 19.5246 16.2638 19.5149 16.1328 19.4246C15.823 19.2124 15.5964 18.9095 15.3322 18.5354C14.4332 17.265 13.6788 15.8656 13.0254 14.256C12.7831 13.6635 12.3306 13.3318 11.7506 13.3221C11.1133 13.3124 10.5355 13.3077 9.98443 13.3077C9.38232 13.3077 8.8241 13.3133 8.27901 13.3246C7.81238 13.3329 7.48961 13.4728 7.31977 13.7407C7.14966 14.0089 7.16072 14.3611 7.35268 14.7875C8.8893 18.2036 10.2825 20.6874 11.8703 22.8414C12.9828 24.3486 14.0987 25.3919 15.3816 26.1243C16.7333 26.8976 18.2481 27.2735 20.0124 27.2735C20.2124 27.2735 20.4192 27.2687 20.6277 27.2589C21.6529 27.209 22.0332 26.8379 22.0813 25.8397C22.1042 25.3296 22.16 24.7946 22.4107 24.3383C22.569 24.0509 22.7166 24.0509 22.7651 24.0509C22.8585 24.0509 22.9744 24.0939 23.0988 24.1745C23.322 24.3201 23.5133 24.5152 23.6701 24.6857C23.8178 24.8476 23.9638 25.0112 24.1099 25.1749C24.4253 25.5281 24.7513 25.8932 25.092 26.2395C25.8375 26.9981 26.6589 27.3317 27.6022 27.2593H31.1234C31.1309 27.2593 31.1385 27.259 31.146 27.2586C31.4968 27.2354 31.8007 27.0408 31.9797 26.7246C32.2014 26.3329 32.1969 25.8332 31.9677 25.3876C31.7077 24.8838 31.3703 24.4533 31.0748 24.0988Z" stroke="#D2A64F" stroke-width="2"/>
</svg>
