<svg width="40" height="41" viewBox="0 0 40 41" fill="none" xmlns="http://www.w3.org/2000/svg">
<rect y="0.229004" width="40" height="40" fill="white" fill-opacity="0.2"/>
<rect x="0.5" y="0.729004" width="39" height="39" stroke="white" stroke-opacity="0.4"/>
<path d="M20 23.979C22.0711 23.979 23.75 22.3001 23.75 20.229C23.75 18.1579 22.0711 16.479 20 16.479C17.9289 16.479 16.25 18.1579 16.25 20.229C16.25 22.3001 17.9289 23.979 20 23.979Z" stroke="#D2A64F" stroke-width="2" stroke-miterlimit="10"/>
<path d="M24.125 11.604H15.875C13.3897 11.604 11.375 13.6187 11.375 16.104V24.354C11.375 26.8393 13.3897 28.854 15.875 28.854H24.125C26.6103 28.854 28.625 26.8393 28.625 24.354V16.104C28.625 13.6187 26.6103 11.604 24.125 11.604Z" stroke="#D2A64F" stroke-width="2" stroke-linecap="round" stroke-linejoin="round"/>
<path d="M24.875 16.479C25.4963 16.479 26 15.9753 26 15.354C26 14.7327 25.4963 14.229 24.875 14.229C24.2537 14.229 23.75 14.7327 23.75 15.354C23.75 15.9753 24.2537 16.479 24.875 16.479Z" fill="#D2A64F"/>
</svg>
