<svg width="542" height="116" viewBox="0 0 542 116" fill="none" xmlns="http://www.w3.org/2000/svg">
<g filter="url(#filter0_dd)">
<line x1="493.923" y1="24.7812" x2="517.923" y2="48.7814" stroke="#D2A64F" stroke-width="2"/>
</g>
<path fill-rule="evenodd" clip-rule="evenodd" d="M490.868 36.1004C490.616 36.0958 490.361 36.0935 490.103 36.0935H468.232V40.6653H471.524C472.597 40.6653 473.401 40.9556 473.938 41.5361C474.523 42.0683 474.815 42.8665 474.815 43.9309V54.7435H468.232V59.3153H474.815V72.6677C474.815 73.7805 474.523 74.6029 473.938 75.1351C473.401 75.6672 472.597 75.9333 471.524 75.9333H468.232V80.5051H492.078C496.613 80.5051 500.197 79.7552 502.83 78.2555C505.464 76.7074 507.146 74.361 507.877 71.2164L511.462 67.6606L507.877 64.2499C507.487 62.5082 506.805 61.0085 505.829 59.7507C504.854 58.4928 503.562 57.4527 501.953 56.6303C503.367 55.7111 504.44 54.5258 505.171 53.0744C505.468 52.465 505.705 51.8116 505.882 51.1143L490.868 36.1004ZM97.9235 76.3687C101.093 73.1757 102.946 68.3862 103.483 62.0003L107.14 58.2993L103.483 54.7435C102.995 48.3575 101.142 43.5438 97.9235 40.3025C94.7538 37.0611 90.2432 35.4404 84.3915 35.4404C78.4423 35.4404 73.8584 37.0611 70.64 40.3025C67.4704 43.5438 65.6661 48.3575 65.2272 54.7435L61.6431 58.2993L65.2272 61.9277C65.6661 68.3621 67.4704 73.1757 70.64 76.3687C73.8584 79.5617 78.4423 81.1582 84.3915 81.1582C90.2432 81.1582 94.7538 79.5617 97.9235 76.3687ZM90.9015 44.584C92.3644 47.6318 93.0959 52.2036 93.0959 58.2993C93.0959 64.395 92.3644 68.9668 90.9015 72.0146C89.4386 75.0625 87.2686 76.5864 84.3915 76.5864C81.4656 76.5864 79.2713 75.0625 77.8083 72.0146C76.3454 68.9668 75.614 64.395 75.614 58.2993C75.614 52.2036 76.3454 47.6318 77.8083 44.584C79.2713 41.5361 81.4656 40.0122 84.3915 40.0122C87.2686 40.0122 89.4386 41.5361 90.9015 44.584ZM57.4989 47.1964H60.1321V36.0935H18V47.1964H20.6333C20.6333 45.0194 21.2184 43.3987 22.3888 42.3344C23.6079 41.2217 25.4365 40.6653 27.8747 40.6653H30.8737C31.9465 40.6653 32.7511 40.9556 33.2875 41.5361C33.8727 42.0683 34.1653 42.8665 34.1653 43.9309V79.852C36.5547 79.852 38.359 80.5051 39.5781 81.8113C40.7972 83.1175 41.4067 85.0769 41.4067 87.6893H44.04V43.9309C44.04 42.8665 44.3082 42.0683 44.8446 41.5361C45.381 40.9556 46.21 40.6653 47.3316 40.6653H50.2574C52.6469 40.6653 54.4511 41.2217 55.6702 42.3344C56.8893 43.3987 57.4989 45.0194 57.4989 47.1964ZM127.96 56.0497H135.348C137.396 56.0497 138.957 55.4208 140.029 54.1629C141.102 52.9051 141.639 50.9941 141.639 48.4301C141.639 45.866 141.102 43.9309 140.029 42.6246C138.957 41.3184 137.396 40.6653 135.348 40.6653H131.252C130.13 40.6653 129.301 40.9556 128.765 41.5361C128.228 42.0683 127.96 42.8665 127.96 43.9309V56.0497ZM111.502 60.6215V56.0497H118.086V43.9309C118.086 42.8665 117.793 42.0683 117.208 41.5361C116.671 40.9556 115.867 40.6653 114.794 40.6653H111.502V36.0935H137.03V36.1661C141.029 36.3596 144.199 37.1821 146.539 38.6334C148.88 40.0848 150.392 42.1651 151.074 44.8743L154.732 48.4301L151.074 51.9859C150.392 54.6951 148.88 56.7754 146.539 58.2267C144.199 59.6781 141.029 60.4763 137.03 60.6215H127.96V87.6893H125.327C125.327 85.0769 124.717 83.1175 123.498 81.8113C122.279 80.5051 120.475 79.852 118.086 79.852V60.6215H111.502ZM192.053 75.1351C191.517 74.6029 191.249 73.7805 191.249 72.6677V43.9309C191.249 42.8665 191.517 42.0683 192.053 41.5361C192.59 40.9556 193.419 40.6653 194.54 40.6653H195.491C199.295 40.6653 202.172 42.1409 204.122 45.092C206.073 48.043 207.048 52.4455 207.048 58.2993C207.048 64.2015 206.073 68.6281 204.122 71.5792C202.172 74.4819 199.295 75.9333 195.491 75.9333H194.54C193.419 75.9333 192.59 75.6672 192.053 75.1351ZM178.082 75.9333H174.791V80.5051H195.491C202.074 80.5051 207.121 78.957 210.632 75.8607C214.192 72.7161 216.24 67.975 216.777 61.6374L220.141 58.2993L216.777 55.1063C216.24 48.8171 214.192 44.076 210.632 40.883C207.121 37.69 202.074 36.0935 195.491 36.0935H174.791V40.6653H178.082C179.155 40.6653 179.96 40.9556 180.496 41.5361C181.081 42.0683 181.374 42.8665 181.374 43.9309V72.6677C181.374 73.7805 181.081 74.6029 180.496 75.1351C179.96 75.6672 179.155 75.9333 178.082 75.9333ZM264.847 62.0003C264.31 68.3862 262.457 73.1757 259.288 76.3687C256.118 79.5617 251.607 81.1582 245.756 81.1582C239.806 81.1582 235.223 79.5617 232.004 76.3687C228.835 73.1757 227.03 68.3621 226.591 61.9277L223.007 58.2993L226.591 54.7435C227.03 48.3575 228.835 43.5438 232.004 40.3025C235.223 37.0611 239.806 35.4404 245.756 35.4404C251.607 35.4404 256.118 37.0611 259.288 40.3025C262.506 43.5438 264.359 48.3575 264.847 54.7435L268.504 58.2993L264.847 62.0003ZM254.46 58.2993C254.46 52.2036 253.729 47.6318 252.266 44.584C250.803 41.5361 248.633 40.0122 245.756 40.0122C242.83 40.0122 240.635 41.5361 239.173 44.584C237.71 47.6318 236.978 52.2036 236.978 58.2993C236.978 64.395 237.71 68.9668 239.173 72.0146C240.635 75.0625 242.83 76.5864 245.756 76.5864C248.633 76.5864 250.803 75.0625 252.266 72.0146C253.729 68.9668 254.46 64.395 254.46 58.2993ZM305.412 82.3193C306.631 83.5287 307.241 85.3187 307.241 87.6893H309.874V63.887C309.874 62.8227 310.142 62.0245 310.679 61.4923C311.215 60.9118 312.044 60.6215 313.165 60.6215H316.457V56.0497H293.416V60.6215H296.708C297.78 60.6215 298.585 60.9118 299.121 61.4923C299.707 62.0245 299.999 62.8227 299.999 63.887V72.6677C299.999 73.7805 299.707 74.6029 299.121 75.1351C298.585 75.6672 297.78 75.9333 296.708 75.9333H295.318C291.417 75.9333 288.515 74.4819 286.613 71.5792C284.712 68.6281 283.761 64.2015 283.761 58.2993C283.761 52.4455 284.712 48.043 286.613 45.092C288.515 42.1409 291.417 40.6653 295.318 40.6653H299.999C302.389 40.6653 304.193 41.2217 305.412 42.3344C306.631 43.3987 307.241 45.0194 307.241 47.1964H309.874V36.0935H295.318C288.491 36.0935 283.249 37.69 279.591 40.883C275.934 44.0276 273.837 48.7445 273.301 55.0338L270.009 58.2993L273.301 61.71C273.837 67.9992 275.934 72.7161 279.591 75.8607C283.249 78.957 288.491 80.5051 295.318 80.5051H299.999C302.389 80.5051 304.193 81.1098 305.412 82.3193ZM374.368 47.1964H371.734C371.734 45.0194 371.125 43.3987 369.906 42.3344C368.687 41.2217 366.882 40.6653 364.493 40.6653H359.812C356.593 40.6653 354.179 42.1409 352.57 45.092C351.01 48.043 350.229 52.4455 350.229 58.2993C350.229 64.2015 351.01 68.6281 352.57 71.5792C354.179 74.4819 356.593 75.9333 359.812 75.9333H364.493C366.882 75.9333 368.687 75.4011 369.906 74.3368C371.125 73.2241 371.734 71.5792 371.734 69.4022H374.368V80.5051H359.812C353.618 80.5051 348.84 78.957 345.475 75.8607C342.11 72.7161 340.208 67.9992 339.77 61.71L336.478 58.2993L339.77 55.0338C340.208 48.7445 342.086 44.0276 345.402 40.883C348.766 37.69 353.57 36.0935 359.812 36.0935H374.368V47.1964ZM383.593 75.9333H380.302V80.5051H417.021V69.4022H414.388C414.388 71.5792 413.778 73.2241 412.559 74.3368C411.34 75.4011 409.536 75.9333 407.146 75.9333H400.051C398.929 75.9333 398.1 75.6672 397.564 75.1351C397.028 74.6029 396.759 73.7805 396.759 72.6677V43.9309C396.759 42.8665 397.028 42.0683 397.564 41.5361C398.1 40.9556 398.929 40.6653 400.051 40.6653H403.343V36.0935H380.302V40.6653H383.593C384.666 40.6653 385.471 40.9556 386.007 41.5361C386.592 42.0683 386.885 42.8665 386.885 43.9309V72.6677C386.885 73.7805 386.592 74.6029 386.007 75.1351C385.471 75.6672 384.666 75.9333 383.593 75.9333ZM438.338 40.6653H436.363C435.242 40.6653 434.413 40.9556 433.876 41.5361C433.34 42.0683 433.072 42.8665 433.072 43.9309V66.1366C433.072 69.6199 433.803 72.2323 435.266 73.974C436.778 75.7156 439.045 76.5864 442.069 76.5864C444.995 76.5864 447.189 75.7156 448.652 73.974C450.115 72.2323 450.846 69.6199 450.846 66.1366V43.9309C450.846 42.8665 450.554 42.0683 449.969 41.5361C449.432 40.9556 448.628 40.6653 447.555 40.6653H445.58V36.0935H465.329V40.6653H463.354C462.233 40.6653 461.404 40.9556 460.867 41.5361C460.331 42.0683 460.063 42.8665 460.063 43.9309V66.1366C460.063 71.168 458.551 74.9415 455.528 77.4572C452.553 79.9245 448.067 81.1582 442.069 81.1582C435.973 81.1582 431.414 79.9245 428.391 77.4572C425.367 74.9415 423.855 71.168 423.855 66.1366V43.9309C423.855 42.8665 423.563 42.0683 422.978 41.5361C422.441 40.9556 421.637 40.6653 420.564 40.6653H418.589V36.0935H438.338V40.6653ZM490.103 54.7435H484.69V43.9309C484.69 42.8665 484.958 42.0683 485.495 41.5361C486.031 40.9556 486.86 40.6653 487.982 40.6653H490.103C492.151 40.6653 493.711 41.2701 494.784 42.4795C495.857 43.689 496.393 45.4548 496.393 47.777C496.393 50.0991 495.857 51.8408 494.784 53.0019C493.711 54.1629 492.151 54.7435 490.103 54.7435ZM485.495 75.1351C484.958 74.6029 484.69 73.7805 484.69 72.6677V59.3153H492.078C494.126 59.3153 495.686 60.0167 496.759 61.4197C497.832 62.8227 498.368 64.903 498.368 67.6606C498.368 70.4181 497.832 72.4984 496.759 73.9014C495.686 75.256 494.126 75.9333 492.078 75.9333H487.982C486.86 75.9333 486.031 75.6672 485.495 75.1351Z" fill="white"/>
<g filter="url(#filter1_dd)">
<line x1="477.214" y1="21.5858" x2="520.414" y2="64.7861" stroke="#D2A64F" stroke-width="4"/>
</g>
<g filter="url(#filter2_dd)">
<line x1="22.2558" y1="66.8465" x2="48.7949" y2="93.3856" stroke="#D2A64F" stroke-width="5"/>
</g>
<defs>
<filter id="filter0_dd" x="473.216" y="4.07422" width="65.4144" height="65.4144" filterUnits="userSpaceOnUse" color-interpolation-filters="sRGB">
<feFlood flood-opacity="0" result="BackgroundImageFix"/>
<feColorMatrix in="SourceAlpha" type="matrix" values="0 0 0 0 0 0 0 0 0 0 0 0 0 0 0 0 0 0 127 0" result="hardAlpha"/>
<feOffset/>
<feGaussianBlur stdDeviation="10"/>
<feColorMatrix type="matrix" values="0 0 0 0 0.823056 0 0 0 0 0.650385 0 0 0 0 0.310278 0 0 0 1 0"/>
<feBlend mode="normal" in2="BackgroundImageFix" result="effect1_dropShadow"/>
<feColorMatrix in="SourceAlpha" type="matrix" values="0 0 0 0 0 0 0 0 0 0 0 0 0 0 0 0 0 0 127 0" result="hardAlpha"/>
<feOffset/>
<feGaussianBlur stdDeviation="10"/>
<feColorMatrix type="matrix" values="0 0 0 0 0.823056 0 0 0 0 0.650385 0 0 0 0 0.310278 0 0 0 1 0"/>
<feBlend mode="normal" in2="effect1_dropShadow" result="effect2_dropShadow"/>
<feBlend mode="normal" in="SourceGraphic" in2="effect2_dropShadow" result="shape"/>
</filter>
<filter id="filter1_dd" x="455.8" y="0.171387" width="86.0288" height="86.0288" filterUnits="userSpaceOnUse" color-interpolation-filters="sRGB">
<feFlood flood-opacity="0" result="BackgroundImageFix"/>
<feColorMatrix in="SourceAlpha" type="matrix" values="0 0 0 0 0 0 0 0 0 0 0 0 0 0 0 0 0 0 127 0" result="hardAlpha"/>
<feOffset/>
<feGaussianBlur stdDeviation="10"/>
<feColorMatrix type="matrix" values="0 0 0 0 0.823056 0 0 0 0 0.650385 0 0 0 0 0.310278 0 0 0 1 0"/>
<feBlend mode="normal" in2="BackgroundImageFix" result="effect1_dropShadow"/>
<feColorMatrix in="SourceAlpha" type="matrix" values="0 0 0 0 0 0 0 0 0 0 0 0 0 0 0 0 0 0 127 0" result="hardAlpha"/>
<feOffset/>
<feGaussianBlur stdDeviation="10"/>
<feColorMatrix type="matrix" values="0 0 0 0 0.823056 0 0 0 0 0.650385 0 0 0 0 0.310278 0 0 0 1 0"/>
<feBlend mode="normal" in2="effect1_dropShadow" result="effect2_dropShadow"/>
<feBlend mode="normal" in="SourceGraphic" in2="effect2_dropShadow" result="shape"/>
</filter>
<filter id="filter2_dd" x="0.488037" y="45.0786" width="70.0746" height="70.0746" filterUnits="userSpaceOnUse" color-interpolation-filters="sRGB">
<feFlood flood-opacity="0" result="BackgroundImageFix"/>
<feColorMatrix in="SourceAlpha" type="matrix" values="0 0 0 0 0 0 0 0 0 0 0 0 0 0 0 0 0 0 127 0" result="hardAlpha"/>
<feOffset/>
<feGaussianBlur stdDeviation="10"/>
<feColorMatrix type="matrix" values="0 0 0 0 0.823056 0 0 0 0 0.650385 0 0 0 0 0.310278 0 0 0 1 0"/>
<feBlend mode="normal" in2="BackgroundImageFix" result="effect1_dropShadow"/>
<feColorMatrix in="SourceAlpha" type="matrix" values="0 0 0 0 0 0 0 0 0 0 0 0 0 0 0 0 0 0 127 0" result="hardAlpha"/>
<feOffset/>
<feGaussianBlur stdDeviation="10"/>
<feColorMatrix type="matrix" values="0 0 0 0 0.823056 0 0 0 0 0.650385 0 0 0 0 0.310278 0 0 0 1 0"/>
<feBlend mode="normal" in2="effect1_dropShadow" result="effect2_dropShadow"/>
<feBlend mode="normal" in="SourceGraphic" in2="effect2_dropShadow" result="shape"/>
</filter>
</defs>
</svg>
