<svg width="20" height="20" viewBox="0 0 20 20" fill="none" xmlns="http://www.w3.org/2000/svg">
<path d="M18.2174 13.0196C17.8255 12.6127 17.3802 12.248 16.9495 11.8953C16.7963 11.7698 16.638 11.6402 16.4853 11.5112C16.0471 11.1406 16.0311 11.0013 16.3781 10.5804C16.6181 10.2902 16.8727 9.9996 17.1188 9.71859C17.3421 9.46364 17.5729 9.19998 17.7942 8.93547L17.8397 8.88109C18.2626 8.37491 18.7 7.8515 18.9327 7.22009C18.9932 7.0535 19.0566 6.80836 18.9115 6.60338C18.7665 6.39857 18.4852 6.33608 18.2862 6.3069C18.1877 6.29245 18.09 6.29048 17.9992 6.29048L15.2296 6.28877L15.2067 6.2886C14.7879 6.2886 14.5057 6.4593 14.344 6.81051C14.1896 7.14607 14.02 7.50341 13.8265 7.84318C13.4414 8.51976 12.9523 9.29903 12.2445 9.94895L12.2146 9.97659C12.131 10.0543 12.0363 10.1423 11.9671 10.1423C11.9565 10.1423 11.9449 10.1405 11.9319 10.137C11.7853 10.0875 11.6869 9.78056 11.6913 9.63777C11.6914 9.63579 11.6914 9.63382 11.6914 9.63185L11.6895 6.86288C11.6895 6.85328 11.6887 6.84376 11.6873 6.83425C11.6168 6.38412 11.4607 6.10393 10.871 6.00403C10.8554 6.00133 10.8394 6 10.8234 6H7.94354C7.47434 6 7.21581 6.16496 6.97279 6.41185C6.90719 6.47785 6.77064 6.61525 6.83832 6.78192C6.90699 6.95108 7.1299 6.98725 7.20248 6.99899C7.56278 7.0583 7.76587 7.24893 7.82339 7.58201C7.92382 8.16041 7.93615 8.77776 7.86223 9.52488C7.84162 9.73252 7.80085 9.89289 7.73366 10.0299C7.71805 10.0619 7.66271 10.1662 7.60628 10.1663C7.58834 10.1663 7.53647 10.1602 7.44199 10.1039C7.21858 9.97149 7.05513 9.78258 6.86458 9.54922C6.21632 8.75676 5.67226 7.88377 5.20108 6.87976C5.02633 6.51017 4.69998 6.30325 4.28171 6.29717C3.82213 6.29113 3.40545 6.28821 3.00804 6.28821C2.57382 6.28821 2.17126 6.29168 1.77817 6.29875C1.44165 6.3039 1.20889 6.39115 1.08641 6.55829C0.963734 6.72556 0.971711 6.94529 1.11014 7.21126C2.21828 9.34223 3.22302 10.8916 4.36802 12.2353C5.17031 13.1755 5.97504 13.8262 6.90025 14.2831C7.87502 14.7655 8.9674 15 10.2397 15C10.384 15 10.5331 14.997 10.6835 14.9909C11.4228 14.9597 11.6971 14.7282 11.7318 14.1056C11.7483 13.7874 11.7885 13.4536 11.9693 13.169C12.0835 12.9897 12.1899 12.9897 12.2249 12.9897C12.2923 12.9897 12.3758 13.0165 12.4655 13.0668C12.6264 13.1577 12.7644 13.2794 12.8775 13.3857C12.984 13.4867 13.0893 13.5888 13.1947 13.6909C13.4221 13.9112 13.6572 14.139 13.9029 14.355C14.4406 14.8282 15.0329 15.0363 15.7132 14.9911H18.2525C18.2579 14.9911 18.2634 14.991 18.2688 14.9907C18.5218 14.9762 18.7409 14.8548 18.87 14.6576C19.0299 14.4132 19.0267 14.1016 18.8614 13.8236C18.6739 13.5093 18.4306 13.2407 18.2174 13.0196Z" stroke="#D2A64F"/>
</svg>
