<svg width="40" height="41" viewBox="0 0 40 41" fill="none" xmlns="http://www.w3.org/2000/svg">
<rect y="0.229004" width="40" height="40" fill="white" fill-opacity="0.2"/>
<rect x="0.5" y="0.729004" width="39" height="39" stroke="white" stroke-opacity="0.4"/>
<path d="M23.6 20.2289L18.2 16.6289V23.8289L23.6 20.2289Z" stroke="#D2A64F" stroke-width="2" stroke-linecap="round" stroke-linejoin="round"/>
<path d="M8.30005 20.2292C8.30005 23.5767 8.64589 25.5407 8.9088 26.5502C8.97907 26.8259 9.11403 27.0808 9.30249 27.294C9.49094 27.5071 9.72748 27.6723 9.99249 27.7758C13.7586 29.2231 20 29.1833 20 29.1833C20 29.1833 26.2414 29.2231 30.0076 27.7758C30.2726 27.6723 30.5091 27.5071 30.6976 27.294C30.886 27.0808 31.021 26.8259 31.0913 26.5502C31.3542 25.5407 31.7 23.5767 31.7 20.2292C31.7 16.8817 31.3542 14.9176 31.0913 13.9082C31.021 13.6325 30.8861 13.3775 30.6976 13.1644C30.5092 12.9512 30.2726 12.7861 30.0076 12.6826C26.2415 11.2353 20 11.275 20 11.275C20 11.275 13.7587 11.2353 9.99252 12.6825C9.72751 12.786 9.49098 12.9512 9.30252 13.1643C9.11406 13.3775 8.9791 13.6325 8.90882 13.9081C8.6459 14.9176 8.30005 16.8817 8.30005 20.2292Z" stroke="#D2A64F" stroke-width="2" stroke-linecap="round" stroke-linejoin="round"/>
</svg>
