<svg width="20" height="20" viewBox="0 0 20 20" fill="none" xmlns="http://www.w3.org/2000/svg">
<path d="M12.5 10L8.75 7.5V12.5L12.5 10Z" stroke="#D2A64F" stroke-linecap="round" stroke-linejoin="round"/>
<path d="M1.875 10.0005C1.875 12.3251 2.11517 13.689 2.29774 14.39C2.34654 14.5815 2.44026 14.7586 2.57114 14.9066C2.70201 15.0546 2.86627 15.1693 3.0503 15.2412C5.66569 16.2462 10 16.2186 10 16.2186C10 16.2186 14.3343 16.2462 16.9497 15.2412C17.1337 15.1693 17.298 15.0546 17.4288 14.9066C17.5597 14.7586 17.6534 14.5815 17.7022 14.3901C17.8848 13.6891 18.125 12.3251 18.125 10.0005C18.125 7.67581 17.8848 6.31189 17.7023 5.61088C17.6535 5.41943 17.5597 5.24237 17.4289 5.09435C17.298 4.94634 17.1337 4.83164 16.9497 4.75976C14.3343 3.7547 10 3.7823 10 3.7823C10 3.7823 5.66574 3.7547 3.05033 4.75975C2.86629 4.83163 2.70203 4.94633 2.57116 5.09434C2.44029 5.24235 2.34656 5.41942 2.29776 5.61087C2.11518 6.31187 1.875 7.67581 1.875 10.0005Z" stroke="#D2A64F" stroke-linecap="round" stroke-linejoin="round"/>
</svg>
