<svg width="30" height="30" viewBox="0 0 30 30" fill="none" xmlns="http://www.w3.org/2000/svg">
<path d="M18.682 4.6875C20.2713 5.11493 21.7204 5.95245 22.8841 7.11618C24.0478 8.27991 24.8854 9.72899 25.3128 11.3183" stroke="#D2A64F" stroke-width="2" stroke-linecap="round" stroke-linejoin="round"/>
<path d="M17.7108 8.31152C18.6644 8.56798 19.5338 9.07049 20.2321 9.76873C20.9303 10.467 21.4328 11.3364 21.6893 12.29" stroke="#D2A64F" stroke-width="2" stroke-linecap="round" stroke-linejoin="round"/>
<path d="M10.8371 14.626C11.8095 16.6141 13.4211 18.2184 15.4136 19.1818C15.5594 19.2509 15.7207 19.2808 15.8815 19.2686C16.0424 19.2565 16.1973 19.2026 16.3311 19.1124L19.2649 17.156C19.3947 17.0695 19.544 17.0167 19.6993 17.0024C19.8546 16.9882 20.011 17.0129 20.1543 17.0743L25.643 19.4266C25.8295 19.5058 25.9852 19.6435 26.0866 19.8188C26.188 19.9942 26.2297 20.1978 26.2054 20.3989C26.0319 21.7564 25.3695 23.0041 24.3423 23.9084C23.3151 24.8128 21.9935 25.3117 20.625 25.3117C16.3981 25.3117 12.3443 23.6326 9.35549 20.6437C6.36662 17.6549 4.6875 13.6011 4.6875 9.37423C4.68757 8.00568 5.18648 6.68409 6.0908 5.6569C6.99512 4.62971 8.24285 3.96736 9.60035 3.79388C9.80146 3.76954 10.005 3.81122 10.1804 3.91264C10.3558 4.01406 10.4934 4.16972 10.5726 4.35617L12.927 9.84967C12.9879 9.99177 13.0127 10.1467 12.9992 10.3007C12.9857 10.4547 12.9344 10.603 12.8497 10.7324L10.9001 13.7112C10.8114 13.8452 10.7589 14 10.7479 14.1603C10.7368 14.3206 10.7676 14.4811 10.8371 14.626V14.626Z" stroke="#D2A64F" stroke-width="2" stroke-linecap="round" stroke-linejoin="round"/>
</svg>
